<?xml version="1.0" encoding="UTF-8" standalone="no"?>
<!-- Created with Inkscape (http://www.inkscape.org/) -->

<svg
   width="169.33331mm"
   height="169.33333mm"
   viewBox="0 0 169.33331 169.33333"
   version="1.1"
   id="svg5"
   xml:space="preserve"
   inkscape:version="1.3.2 (091e20e, 2023-11-25, custom)"
   sodipodi:docname="app_icon.svg"
   xmlns:inkscape="http://www.inkscape.org/namespaces/inkscape"
   xmlns:sodipodi="http://sodipodi.sourceforge.net/DTD/sodipodi-0.dtd"
   xmlns="http://www.w3.org/2000/svg"
   xmlns:svg="http://www.w3.org/2000/svg"><sodipodi:namedview
     id="namedview7"
     pagecolor="#ffffff"
     bordercolor="#000000"
     borderopacity="0.25"
     inkscape:showpageshadow="2"
     inkscape:pageopacity="0"
     inkscape:pagecheckerboard="0"
     inkscape:deskcolor="#d1d1d1"
     inkscape:document-units="mm"
     showgrid="false"
     inkscape:zoom="0.45407884"
     inkscape:cx="256.56337"
     inkscape:cy="-9.9101732"
     inkscape:window-width="1920"
     inkscape:window-height="1009"
     inkscape:window-x="-8"
     inkscape:window-y="-8"
     inkscape:window-maximized="1"
     inkscape:current-layer="g1"
     showguides="false"><sodipodi:guide
       position="212.36065,-70.924801"
       orientation="-1,0"
       id="guide7280"
       inkscape:locked="false" /><sodipodi:guide
       position="224.68097,-192.48565"
       orientation="0,-1"
       id="guide9663"
       inkscape:locked="false" /><sodipodi:guide
       position="265.23873,-182.54592"
       orientation="0,1"
       id="guide19274"
       inkscape:locked="false" /><inkscape:page
       x="0"
       y="0"
       width="169.33331"
       height="169.33333"
       id="page1"
       margin="0"
       bleed="0" /></sodipodi:namedview><defs
     id="defs2"><rect
       x="166.54997"
       y="171.96622"
       width="541.62592"
       height="218.00443"
       id="rect6290-8-9-07-0-8-4-5-6" /></defs><g
     inkscape:label="Livello 1"
     inkscape:groupmode="layer"
     id="layer1"
     transform="translate(208.80597,156.02146)"><path
       id="rect336"
       style="fill:#ffffff;stroke-width:1.7;stroke-miterlimit:3.6;paint-order:markers stroke fill"
       d="m -161.71014,-156.02145 h 75.141666 c 26.091092,0 47.095833,21.00474 47.095833,47.09583 v 75.141662 c 0,26.0910909 -21.004741,47.095832 -47.095833,47.095832 h -75.141666 c -26.09109,0 -47.09583,-21.0047411 -47.09583,-47.095832 v -75.141662 c 0,-26.09109 21.00474,-47.09583 47.09583,-47.09583 z" /></g><g
     id="g1"
     inkscape:groupmode="layer"
     inkscape:label="1"
     transform="matrix(0.26458332,0,0,0.26458333,179.33332,0)"><path
       id="path1"
       d="m -504.26278,197.43565 c -17.62273,0 -31.92148,14.2894 -31.92148,31.92148 0,17.63208 14.29173,31.92148 31.92148,31.92148 16.19917,-0.0281 29.81301,-12.18093 31.66668,-28.27958 -2.59233,12.57363 -13.6419,21.60589 -26.47032,21.63161 -14.96495,0 -27.10148,-12.13418 -27.10148,-27.09913 0,-14.95793 12.13653,-27.09211 27.10148,-27.09211 6.23655,0 12.2721,2.15521 17.11081,6.08929 -5.96074,-5.82516 -13.96916,-9.09304 -22.30717,-9.09304 z m 355.14283,277.49902 c -2.64844,0 -4.99534,-0.49089 -7.04067,-1.48668 -2.03602,-0.98645 -3.6232,-2.38429 -4.76626,-4.18186 -1.11268,-1.79055 -1.66199,-3.88031 -1.66199,-6.26461 0,-2.35624 0.54931,-4.446 1.66199,-6.27397 1.14306,-1.82561 2.73024,-3.23048 4.76626,-4.22628 2.07338,-1.01448 4.44833,-1.5264 7.13184,-1.5264 2.65778,0 5.00466,0.49321 7.04068,1.47966 2.03599,0.9958 3.61616,2.40298 4.72884,4.22862 1.14306,1.79756 1.70875,3.87097 1.70875,6.22721 0,2.38429 -0.56569,4.4834 -1.70875,6.30902 -1.11268,1.79991 -2.70219,3.20477 -4.7756,4.22861 -2.03599,0.98645 -4.39925,1.48668 -7.08509,1.48668 z m 0.64983,-2.13652 c 2.50118,0 4.48107,-0.83917 5.92567,-2.51052 1.48668,-1.67134 2.22768,-3.89901 2.22768,-6.68302 0,-2.01029 -0.40205,-3.80786 -1.20617,-5.38805 -0.80412,-1.60589 -1.92614,-2.86581 -3.37775,-3.7611 -1.4259,-0.89528 -3.03179,-1.34174 -4.82234,-1.34174 -2.49183,0 -4.47406,0.84853 -5.92567,2.54558 -1.45162,1.67134 -2.17159,3.88966 -2.17159,6.63861 0,2.08275 0.39972,3.91773 1.20384,5.53297 0.80411,1.58017 1.90977,2.7957 3.33333,3.66292 1.41422,0.86723 3.02245,1.30435 4.813,1.30435 z m -24.07902,-21.50305 c 1.17813,0 2.47311,-0.0258 3.88966,-0.0912 0,0.93268 -0.0654,1.62459 -0.18232,2.09211 -0.64983,0.0538 -1.14306,0.22673 -1.47967,0.50957 -0.34828,0.27584 -0.59372,0.75971 -0.748,1.4446 -0.11922,0.64751 -0.18468,1.6246 -0.18468,2.92194 v 16.38851 c -0.39972,0.18233 -1.03085,0.28283 -1.89807,0.28283 l -16.6176,-18.43385 V 467.548 c 0,1.33473 0.0724,2.33754 0.22674,3.02244 0.18233,0.67555 0.47453,1.15942 0.87658,1.43524 0.40207,0.28286 0.99579,0.44648 1.76252,0.50959 0.15427,0.50258 0.22906,1.19683 0.22906,2.0921 -1.66199,-0.0561 -3.04113,-0.0912 -4.11874,-0.0912 -1.45161,0 -2.85882,0.0351 -4.20991,0.0912 0,-0.89527 0.0724,-1.58952 0.22907,-2.0921 0.76672,-0.0538 1.34176,-0.22673 1.71576,-0.50959 0.40205,-0.27582 0.67554,-0.75969 0.83217,-1.43524 0.18233,-0.6849 0.27349,-1.68771 0.27349,-3.02244 v -13.5577 l -0.0468,-0.0468 c -0.20804,-0.21972 -0.49321,-0.35531 -0.82982,-0.42076 -0.33895,-0.0912 -0.98645,-0.16357 -1.94484,-0.22673 -0.15656,-0.55868 -0.22907,-1.2506 -0.22907,-2.09212 1.10564,0.0654 2.1926,0.0912 3.24216,0.0912 0.94904,0 1.92614,-0.0258 2.91258,-0.0912 l 15.42311,17.32119 V 458.1721 c 0,-1.30668 -0.0912,-2.27442 -0.28285,-2.93127 -0.15656,-0.67555 -0.4301,-1.15942 -0.83215,-1.43526 -0.40207,-0.28284 -1.00516,-0.44646 -1.80693,-0.50957 -0.11922,-0.71296 -0.18233,-1.40721 -0.18233,-2.09212 1.54278,0.0654 2.86583,0.0912 3.98084,0.0912 z m -39.77562,23.31231 c 0,-0.95838 0.0724,-1.65263 0.22907,-2.0921 0.77607,-0.0538 1.34176,-0.18233 1.71576,-0.36466 0.40205,-0.19167 0.67554,-0.51192 0.83217,-0.97708 0.15428,-0.46519 0.23608,-1.15944 0.23608,-2.08977 v -12.40065 c 0,-0.89529 -0.0819,-1.58019 -0.23608,-2.04536 -0.15656,-0.46516 -0.43012,-0.78541 -0.83217,-0.96774 -0.374,-0.19167 -0.93969,-0.31089 -1.71576,-0.374 -0.15656,-0.46752 -0.22907,-1.15943 -0.22907,-2.09211 1.97288,0.0654 3.70733,0.0912 5.187,0.0912 1.23189,0 2.93127,-0.0258 5.09584,-0.0912 0,0.95839 -0.0654,1.65264 -0.19167,2.09211 -1.10566,0.0538 -1.86303,0.31089 -2.26508,0.73866 -0.37402,0.43946 -0.55868,1.31604 -0.55868,2.64844 v 12.40065 c 0,1.3324 0.18466,2.22767 0.55868,2.69285 0.40205,0.43011 1.15942,0.67555 2.26508,0.73866 0.12623,0.46752 0.19167,1.15942 0.19167,2.0921 -2.10145,-0.0561 -3.79851,-0.0912 -5.09584,-0.0912 -1.54278,0 -3.27723,0.0351 -5.187,0.0912 z m -17.9687,0.23609 c -2.52921,0 -4.5395,-0.29921 -6.01917,-0.88359 -1.45161,-0.62179 -2.50117,-1.53576 -3.14867,-2.7396 -0.62179,-1.24357 -0.92333,-2.83076 -0.92333,-4.78495 v -9.66105 c 0,-0.9584 -0.0631,-1.67135 -0.19167,-2.13652 -0.11922,-0.46516 -0.35532,-0.76671 -0.69425,-0.92333 -0.31089,-0.19168 -0.81114,-0.32725 -1.52408,-0.41841 -0.15427,-0.49324 -0.22908,-1.19683 -0.22908,-2.09211 1.47966,0.0654 3.08789,0.0912 4.81299,0.0912 1.72511,0 3.42451,-0.0258 5.09585,-0.0912 0,0.80412 -0.0654,1.49837 -0.18466,2.09211 -0.86723,0.0912 -1.48668,0.22673 -1.85368,0.41841 -0.374,0.15655 -0.63815,0.46751 -0.79243,0.92333 -0.11921,0.43712 -0.18233,1.15007 -0.18233,2.13652 v 9.10472 c 0,2.19964 0.49089,3.85227 1.47734,4.96494 1.02384,1.11501 2.76765,1.67134 5.24076,1.67134 0.74101,0 1.49837,-0.10992 2.26508,-0.3179 0.77607,-0.25713 1.43526,-0.60308 1.99159,-1.06827 0.58439,-0.53061 1.0028,-1.22486 1.25059,-2.09209 0.27349,-0.90463 0.42076,-2.21832 0.42076,-3.94343 v -7.29781 c 0,-1.17578 -0.0841,-2.05235 -0.23843,-2.6461 -0.11921,-0.62179 -0.38336,-1.05189 -0.78541,-1.29733 -0.40207,-0.28284 -1.00516,-0.46517 -1.80693,-0.55633 -0.11921,-0.75035 -0.18233,-1.44227 -0.18233,-2.09211 1.23189,0.0654 2.52923,0.0912 3.88968,0.0912 1.20382,0 2.51986,-0.0258 3.93408,-0.0912 0,0.77607 -0.0724,1.47032 -0.22675,2.09211 -0.96073,0.0912 -1.60822,0.42777 -1.94483,1.02149 -0.31089,0.5844 -0.46751,1.6807 -0.46751,3.29594 v 7.52455 c 0,2.0734 -0.17304,3.70735 -0.50958,4.92286 -0.3109,1.17579 -0.92333,2.13652 -1.85368,2.87518 -1.54511,1.26928 -3.74474,1.90042 -6.61992,1.90042 z m -26.67369,-2.41935 c 1.69939,0 3.04113,-0.18233 4.02758,-0.55633 0.98645,-0.37402 1.78121,-0.9584 2.36559,-1.76252 0.5844,-0.8041 1.15943,-1.98223 1.71576,-3.53435 0.89529,0.28284 1.57083,0.65919 2.036,1.11501 -0.59373,1.82561 -1.06826,4.1351 -1.44226,6.92145 -2.40066,-0.0561 -5.39506,-0.0912 -8.97616,-0.0912 -5.6779,0 -9.67743,0.0444 -11.99861,0.13552 0,-0.89295 0.0842,-1.56148 0.23843,-1.98925 0.85788,-0.0654 1.50772,-0.21973 1.94483,-0.46517 0.45582,-0.25713 0.78542,-0.6849 0.96775,-1.3067 0.21972,-0.64749 0.32959,-1.58017 0.32959,-2.78399 v -19.08371 c 0,-1.55446 -0.23843,-2.58531 -0.70359,-3.11361 -0.43012,-0.55866 -1.25995,-0.86956 -2.49184,-0.92332 -0.15655,-0.43946 -0.23843,-1.10566 -0.23843,-1.99859 1.79057,0.0912 3.6606,0.13551 5.60544,0.13551 1.88172,0 3.75409,-0.0444 5.60776,-0.13551 0,0.89293 -0.0819,1.55913 -0.23843,1.99859 -0.86722,0.0538 -1.52408,0.21038 -1.98924,0.45582 -0.43012,0.21973 -0.74101,0.62178 -0.92334,1.21552 -0.19167,0.58438 -0.28283,1.42356 -0.28283,2.50118 v 18.94812 c 0,1.20382 0.10992,2.10845 0.32959,2.69283 0.21038,0.59374 0.6101,1.00515 1.20382,1.2506 0.5844,0.25711 1.46098,0.374 2.6391,0.374 z m -37.91962,2.18326 c 0,-0.95838 0.0724,-1.65263 0.22675,-2.0921 0.77605,-0.0538 1.34407,-0.18233 1.71809,-0.36466 0.40205,-0.19167 0.67555,-0.51192 0.82982,-0.97708 0.15656,-0.46519 0.22909,-1.15944 0.22909,-2.08977 v -12.40065 c 0,-0.89529 -0.0724,-1.58019 -0.22909,-2.04536 -0.15427,-0.46516 -0.42777,-0.78541 -0.82982,-0.96774 -0.37402,-0.19167 -0.94204,-0.31089 -1.71809,-0.374 -0.15428,-0.46752 -0.22675,-1.15943 -0.22675,-2.09211 1.97289,0.0654 3.698,0.0912 5.18701,0.0912 1.23189,0 2.92895,-0.0258 5.08415,-0.0912 0,0.95839 -0.0538,1.65264 -0.18232,2.09211 -1.11268,0.0538 -1.86303,0.31089 -2.26508,0.73866 -0.374,0.43946 -0.55633,1.31604 -0.55633,2.64844 v 12.40065 c 0,1.3324 0.18233,2.22767 0.55633,2.69285 0.40205,0.43011 1.1524,0.67555 2.26508,0.73866 0.1285,0.46752 0.18232,1.15942 0.18232,2.0921 -2.08976,-0.0561 -3.78915,-0.0912 -5.08415,-0.0912 -1.54511,0 -3.27958,0.0351 -5.18701,0.0912 z m -32.23237,0 c 0,-0.95838 0.0724,-1.65263 0.22673,-2.0921 0.74101,-0.0538 1.31605,-0.18233 1.7181,-0.36466 0.40207,-0.19167 0.67556,-0.52827 0.82984,-1.02151 0.19167,-0.50256 0.28283,-1.24356 0.28283,-2.23 v -12.21599 c 0,-0.89529 -0.0912,-1.58019 -0.28283,-2.04536 -0.15428,-0.46516 -0.42777,-0.78541 -0.82984,-0.96774 -0.374,-0.19167 -0.94203,-0.31089 -1.7181,-0.374 -0.11693,-0.49324 -0.18232,-1.19683 -0.18232,-2.09211 1.72745,0.0654 3.71669,0.0912 5.97242,0.0912 1.02151,0 1.79055,-0.009 2.31885,-0.0444 l 2.45675,-0.0468 c 4.47406,0 8.14399,0.78541 11.02152,2.3656 2.89387,1.58017 4.34548,4.49275 4.34548,8.72837 0,4.8317 -1.63394,8.08088 -4.90416,9.75224 -3.27723,1.64328 -6.7742,2.46609 -10.5096,2.46609 -4.446,0 -8.03412,0.0351 -10.74567,0.0912 z m 10.93035,-2.18326 c 2.21832,0 4.0907,-0.24544 5.59608,-0.73866 1.54278,-0.53063 2.76764,-1.48903 3.66059,-2.88452 0.93268,-1.3885 1.3885,-3.35204 1.3885,-5.89061 0,-3.4432 -1.07761,-5.91633 -3.24218,-7.43338 -2.12716,-1.51473 -4.84806,-2.2721 -8.14399,-2.2721 -1.26929,0 -2.22769,0.0912 -2.87518,0.2735 v 15.32259 c 0,0.99344 0.0912,1.75314 0.28284,2.28143 0.18232,0.49322 0.51893,0.84853 1.01216,1.06825 0.53061,0.18233 1.29734,0.2735 2.32118,0.2735 z m -26.02386,0.0912 c 0.15428,0.46752 0.22674,1.15942 0.22674,2.0921 -1.23189,-0.0561 -2.82141,-0.0912 -4.76624,-0.0912 -2.03601,0 -3.6793,0.0351 -4.91119,0.0912 0,-0.95838 0.0912,-1.65263 0.28286,-2.0921 0.70359,-0.0912 1.19681,-0.20805 1.47966,-0.36466 0.30856,-0.19167 0.46516,-0.45582 0.46516,-0.79475 0,-0.2735 -0.15655,-0.75737 -0.46516,-1.44227 l -0.93268,-1.99159 c -4.43666,0 -7.94298,0.0749 -10.5096,0.22909 l -0.51192,1.20617 c -0.30154,0.7106 -0.45582,1.26928 -0.45582,1.67133 0,0.86724 0.63114,1.3698 1.90042,1.48668 0.18233,0.55868 0.27349,1.25994 0.27349,2.0921 -1.16877,-0.0561 -2.45675,-0.0912 -3.84525,-0.0912 -1.20384,0 -2.30014,0.0351 -3.28659,0.0912 0,-0.74099 0.0912,-1.44226 0.28284,-2.0921 0.67556,-0.11693 1.19683,-0.40205 1.57083,-0.82982 0.37402,-0.46518 0.86723,-1.37916 1.47966,-2.73961 l 7.97103,-17.69519 c 0.58438,-0.11921 1.19683,-0.18233 1.84432,-0.18233 l 8.51801,17.73261 c 0.68489,1.42354 1.25291,2.38194 1.71808,2.88452 0.49323,0.49322 1.04956,0.76671 1.67135,0.82982 z m -9.54185,-6.5007 -2.777,-5.84386 c -0.80411,-1.64328 -1.36045,-2.94998 -1.67134,-3.90836 -0.24544,0.77605 -0.55633,1.55212 -0.92099,2.32819 -0.33895,0.74099 -0.55634,1.20617 -0.64984,1.3885 l -2.63675,6.03553 z m -3.56242,-18.28894 c -2.07339,-3.22346 -4.03459,-5.8345 -5.88826,-7.85414 0.68489,-0.33661 1.56147,-0.50957 2.6461,-0.50957 0.58438,0 1.18746,0.0444 1.79991,0.13552 0.86722,2.94998 1.96354,5.65217 3.28657,8.12763 -0.24544,0.12851 -0.54698,0.19167 -0.92098,0.19167 -0.24778,0 -0.55868,-0.0373 -0.92334,-0.0912 z m -15.10285,3.47827 c -0.0912,1.67135 0.0188,3.67929 0.32959,6.03554 -0.64751,0.28283 -1.4072,0.42075 -2.27444,0.42075 -0.0631,-1.489 -0.45582,-2.58532 -1.20382,-3.29593 -0.70361,-0.71296 -1.83731,-1.06825 -3.38009,-1.06825 h -2.03601 v 15.92333 c 0,0.95839 0.0724,1.67133 0.22909,2.13652 0.19167,0.43944 0.49321,0.75035 0.93035,0.93268 0.46749,0.18232 1.15941,0.30855 2.08275,0.374 0.15427,0.36465 0.22906,1.01215 0.22906,1.94483 -2.28376,-0.0561 -4.14679,-0.0912 -5.5984,-0.0912 -1.79056,0 -3.70735,0.0351 -5.74335,0.0912 0,-0.93268 0.0724,-1.58018 0.22909,-1.94483 0.93033,-0.0654 1.62458,-0.19168 2.0804,-0.374 0.50258,-0.18233 0.84151,-0.51193 1.02384,-0.97711 0.18233,-0.4675 0.2735,-1.15941 0.2735,-2.09209 v -15.92333 h -1.89106 c -1.24124,0 -2.19964,0.17303 -2.87518,0.50957 -0.64751,0.31091 -1.12437,0.75971 -1.43293,1.34409 -0.31088,0.59375 -0.57503,1.42357 -0.78541,2.51052 -0.98643,0 -1.7181,-0.13797 -2.18326,-0.42075 0.46516,-2.09911 0.69425,-4.11875 0.69425,-6.03554 1.60589,0.0654 5.14026,0.0912 10.61011,0.0912 5.55166,0 9.12109,-0.0258 10.69192,-0.0912 z m -26.53345,0 c -0.0912,1.67135 0.0188,3.67929 0.32726,6.03554 -0.64751,0.28283 -1.40487,0.42075 -2.27209,0.42075 -0.0561,-1.489 -0.45817,-2.58532 -1.20617,-3.29593 -0.70361,-0.71296 -1.83498,-1.06825 -3.37776,-1.06825 h -2.03599 v 15.92333 c 0,0.95839 0.0819,1.67133 0.23608,2.13652 0.18233,0.43944 0.49323,0.75035 0.92333,0.93268 0.46517,0.18232 1.15942,0.30855 2.08042,0.374 0.15656,0.36465 0.22907,1.01215 0.22907,1.94483 -2.28377,-0.0561 -4.14446,-0.0912 -5.59841,-0.0912 -1.78822,0 -3.705,0.0351 -5.74334,0.0912 0,-0.93268 0.0749,-1.58018 0.22909,-1.94483 0.93267,-0.0654 1.62458,-0.19168 2.09209,-0.374 0.49322,-0.18233 0.82982,-0.51193 1.01215,-0.97711 0.18233,-0.4675 0.28285,-1.15941 0.28285,-2.09209 v -15.92333 h -1.89809 c -1.24123,0 -2.19262,0.17303 -2.8775,0.50957 -0.64752,0.31091 -1.12203,0.75971 -1.43293,1.34409 -0.31089,0.59375 -0.57504,1.42357 -0.78541,2.51052 -0.98644,0 -1.71575,-0.13797 -2.18093,-0.42075 0.46518,-2.09911 0.70126,-4.11875 0.70126,-6.03554 1.59888,0.0654 5.13324,0.0912 10.60076,0.0912 5.554,0 9.12343,-0.0258 10.69426,-0.0912 z m -37.8752,23.40347 c 0,-0.95838 0.0724,-1.65263 0.22673,-2.0921 0.77607,-0.0538 1.34176,-0.18233 1.7181,-0.36466 0.40207,-0.19167 0.67556,-0.51192 0.82984,-0.97708 0.15655,-0.46519 0.23843,-1.15944 0.23843,-2.08977 v -12.40065 c 0,-0.89529 -0.0819,-1.58019 -0.23843,-2.04536 -0.15428,-0.46516 -0.42777,-0.78541 -0.82984,-0.96774 -0.37634,-0.19167 -0.94203,-0.31089 -1.7181,-0.374 -0.15427,-0.46752 -0.22673,-1.15943 -0.22673,-2.09211 1.97055,0.0654 3.70735,0.0912 5.18466,0.0912 1.23422,0 2.93128,-0.0258 5.09585,-0.0912 0,0.95839 -0.0631,1.65264 -0.18233,2.09211 -1.11501,0.0538 -1.87237,0.31089 -2.27442,0.73866 -0.37402,0.43946 -0.55635,1.31604 -0.55635,2.64844 v 12.40065 c 0,1.3324 0.18233,2.22767 0.55635,2.69285 0.40205,0.43011 1.15941,0.67555 2.27442,0.73866 0.11922,0.46752 0.18233,1.15942 0.18233,2.0921 -2.09911,-0.0561 -3.79851,-0.0912 -5.09585,-0.0912 -1.54278,0 -3.26788,0.0351 -5.18466,0.0912 z m -17.41469,0.32726 c -2.83778,0 -5.3857,-0.68256 -7.64143,-2.04301 -2.21832,-1.39786 -3.96214,-3.32398 -5.23142,-5.80879 -1.23422,-2.47312 -1.85367,-5.30389 -1.85367,-8.49229 0,-3.4058 0.71061,-6.29969 2.13651,-8.68398 1.45161,-2.38194 3.3497,-4.18186 5.6966,-5.3857 2.37493,-1.20617 4.92286,-1.8186 7.6344,-1.8186 1.88875,0 3.63254,0.21038 5.23142,0.61243 1.60824,0.36466 3.28659,0.96774 5.04909,1.80926 -0.3366,1.60589 -0.51192,4.00656 -0.51192,7.19495 -0.67554,0.28286 -1.49602,0.41843 -2.44506,0.41843 -0.1285,-3.0949 -0.75971,-5.21271 -1.90042,-6.36279 -1.14073,-1.17812 -2.83077,-1.76251 -5.04909,-1.76251 -2.50118,0 -4.57458,0.58439 -6.20853,1.76251 -1.63627,1.17813 -2.84011,2.73025 -3.60682,4.64703 -0.77607,1.91679 -1.15941,4.02759 -1.15941,6.30903 0,2.79571 0.46516,5.31557 1.38615,7.57131 0.96073,2.22766 2.32819,3.99719 4.11876,5.29451 1.7999,1.26929 3.88966,1.90979 6.29967,1.90979 1.45395,0 2.94999,-0.25714 4.49276,-0.75035 1.54278,-0.49324 2.97802,-1.15944 4.31042,-1.98926 0.18233,0.15428 0.35531,0.38336 0.50258,0.69425 0.19167,0.27349 0.30154,0.51894 0.32959,0.73866 -1.88171,1.46097 -3.71669,2.51052 -5.5166,3.16036 -1.75316,0.6475 -3.77981,0.97476 -6.06358,0.97476 z m 305.4981,-46.09165 c -4.32913,0 -8.12764,-0.84152 -11.41421,-2.53858 -3.24219,-1.69004 -5.7714,-4.02759 -7.58767,-6.99393 -1.77186,-3.01309 -2.65778,-6.39317 -2.65778,-10.15429 0,-3.84525 0.93268,-7.22301 2.78634,-10.16363 1.90744,-2.93128 4.49978,-5.20337 7.77934,-6.8303 3.28659,-1.65265 6.98458,-2.48247 11.09398,-2.48247 4.19121,0 7.92426,0.81347 11.21319,2.4287 3.32398,1.61526 5.89762,3.88033 7.71389,6.7742 1.85368,2.89622 2.78636,6.24592 2.78636,10.04443 0,3.76343 -0.93268,7.16924 -2.78636,10.20804 -1.81627,3.0131 -4.36419,5.38805 -7.65078,7.11315 -3.28657,1.73679 -7.05002,2.59468 -11.2763,2.59468 z m 1.15943,-3.21414 c 2.46609,0 4.60261,-0.65684 6.41888,-1.97288 1.81627,-1.31604 3.20477,-3.12295 4.15381,-5.42309 0.99579,-2.32819 1.48903,-4.95793 1.48903,-7.89857 0,-3.23282 -0.63114,-6.18279 -1.88174,-8.85695 -1.20382,-2.66713 -2.91257,-4.7756 -5.12155,-6.31837 -2.19963,-1.58018 -4.68443,-2.37494 -7.45209,-2.37494 -2.29078,0 -4.34548,0.62178 -6.16175,1.86301 -1.81862,1.20384 -3.24218,2.94064 -4.28238,5.19636 -0.98645,2.2534 -1.48901,4.86676 -1.48901,7.84247 0,3.19541 0.56567,6.17344 1.69004,8.9107 1.12202,2.71389 2.76531,4.89481 4.92052,6.54746 2.16457,1.65265 4.7382,2.4848 7.71624,2.4848 z m -42.85184,3.21414 c -4.1094,0 -7.76065,-0.82283 -10.9584,-2.48482 -3.19541,-1.6877 -5.68724,-4.04394 -7.45909,-7.04769 -1.77186,-3.01309 -2.65779,-6.4376 -2.65779,-10.2735 0,-4.13511 1.01449,-7.65078 3.0505,-10.547 2.02665,-2.93829 4.71248,-5.14025 8.03412,-6.60121 3.33335,-1.47032 6.92146,-2.20898 10.76673,-2.20898 2.54792,0 4.96727,0.24544 7.25807,0.73866 2.33754,0.48387 4.69378,1.22488 7.06873,2.20196 -0.47453,2.14587 -0.71296,5.05846 -0.71296,8.7471 -0.90462,0.374 -2.32819,0.56567 -4.27302,0.56567 -0.0912,-3.50631 -0.89528,-5.92567 -2.40067,-7.28612 -1.4703,-1.3885 -3.63487,-2.08275 -6.48433,-2.08275 -4.62833,0 -8.06219,1.42592 -10.30856,4.28239 -2.24639,2.85882 -3.36841,6.41888 -3.36841,10.6662 0,3.31464 0.60075,6.28099 1.80693,8.92007 1.21551,2.62973 2.98504,4.70314 5.32258,6.2085 2.32819,1.49837 5.1239,2.25574 8.36607,2.25574 1.89809,0 3.84292,-0.26415 5.8345,-0.79476 1.97989,-0.51894 3.88968,-1.2763 5.69659,-2.2534 0.3109,0.22675 0.58439,0.54698 0.84852,0.95839 0.25714,0.41142 0.43012,0.79476 0.52129,1.13137 -2.38196,1.65265 -4.82003,2.89388 -7.33288,3.72605 -2.50117,0.78542 -5.37635,1.17813 -8.61852,1.17813 z m -47.33523,0 c -4.31978,0 -8.12764,-0.84152 -11.40487,-2.53858 -3.24218,-1.69004 -5.77139,-4.02759 -7.58766,-6.99393 -1.77187,-3.01309 -2.65779,-6.39317 -2.65779,-10.15429 0,-3.84525 0.93268,-7.22301 2.78635,-10.16363 1.89809,-2.93128 4.49041,-5.20337 7.77933,-6.8303 3.28659,-1.65265 6.98458,-2.48247 11.08464,-2.48247 4.20056,0 7.93361,0.81347 11.22253,2.4287 3.32166,1.61526 5.89762,3.88033 7.71389,6.7742 1.85368,2.89622 2.78636,6.24592 2.78636,10.04443 0,3.76343 -0.93268,7.16924 -2.78636,10.20804 -1.81627,3.0131 -4.36418,5.38805 -7.65077,7.11315 -3.28658,1.73679 -7.05003,2.59468 -11.28565,2.59468 z m 1.16877,-3.21414 c 2.4661,0 4.60262,-0.65684 6.41889,-1.97288 1.81627,-1.31604 3.19543,-3.12295 4.15381,-5.42309 0.98644,-2.32819 1.48902,-4.95793 1.48902,-7.89857 0,-3.23282 -0.63113,-6.18279 -1.88173,-8.85695 -1.21319,-2.66713 -2.92192,-4.7756 -5.12155,-6.31837 -2.20197,-1.58018 -4.69378,-2.37494 -7.45209,-2.37494 -2.29078,0 -4.34548,0.62178 -6.16175,1.86301 -1.81862,1.20384 -3.24219,2.94064 -4.28239,5.19636 -0.99579,2.2534 -1.48901,4.86676 -1.48901,7.84247 0,3.19541 0.56568,6.17344 1.69005,8.9107 1.12202,2.71389 2.7653,4.89481 4.92051,6.54746 2.16457,1.65265 4.73821,2.4848 7.71624,2.4848 z m -40.6522,-0.28283 c 2.11781,0 3.82655,-0.22909 5.12388,-0.67555 1.29501,-0.49323 2.33756,-1.24358 3.11361,-2.25573 0.82048,-1.0145 1.57784,-2.46612 2.26275,-4.34783 1.7368,0.26648 3.03178,0.76671 3.88967,1.52642 -0.85789,2.25572 -1.53343,5.20337 -2.00796,8.85695 -3.79849,-0.0724 -8.38242,-0.10992 -13.7424,-0.10992 -8.59983,0 -14.49978,0.0444 -17.69521,0.16356 0,-1.3885 0.12851,-2.38194 0.38336,-2.98503 1.21319,-0.0819 2.11782,-0.26414 2.7209,-0.56569 0.6475,-0.30154 1.10567,-0.85086 1.3698,-1.63627 0.2548,-0.82984 0.38336,-2.01731 0.38336,-3.56008 v -21.49371 c 0,-1.39784 -0.12851,-2.4474 -0.38336,-3.16036 -0.26413,-0.71995 -0.7223,-1.22253 -1.3698,-1.52407 -0.60308,-0.30155 -1.50771,-0.49322 -2.7209,-0.56569 -0.21037,-0.67555 -0.32024,-1.67134 -0.32024,-2.99673 2.89388,0.11922 5.8088,0.17532 8.74709,0.17532 3.28892,0 6.22721,-0.0561 8.82189,-0.17532 0,1.36045 -0.12851,2.35625 -0.39271,2.99673 -1.20617,0.0724 -2.11781,0.26414 -2.7209,0.56569 -0.60309,0.30154 -1.03321,0.82047 -1.29734,1.58017 -0.2548,0.71062 -0.38336,1.78822 -0.38336,3.21413 v 21.33007 c 0,1.54278 0.14727,2.71155 0.44648,3.49697 0.30154,0.79476 0.85086,1.36045 1.62693,1.69705 0.82047,0.30155 2.00794,0.44881 3.56006,0.44881 z m -46.22959,3.49697 c -4.31978,0 -8.11827,-0.84152 -11.40487,-2.53858 -3.24216,-1.69004 -5.77139,-4.02759 -7.58766,-6.99393 -1.77186,-3.01309 -2.67649,-6.65732 -2.65778,-10.15429 0.0188,-3.50631 0.93268,-7.23235 2.78634,-10.16363 1.89809,-2.93128 4.49043,-5.20337 7.77935,-6.8303 3.28658,-1.65265 6.98458,-2.48247 11.08462,-2.48247 4.20056,0 7.93363,0.81347 11.22255,2.4287 3.32399,1.61526 5.89762,3.88033 7.71389,6.7742 1.85367,2.89622 2.78635,6.24592 2.78635,10.04443 0,3.76343 -0.93268,7.16924 -2.78635,10.20804 -1.81627,3.0131 -4.3642,5.37868 -7.65077,7.11315 -3.28659,1.73679 -7.05004,2.59468 -11.28567,2.59468 z m 1.16878,-3.21414 c 2.46611,0 4.60261,-0.65684 6.41888,-1.97288 1.81627,-1.31604 3.20477,-3.12295 4.15383,-5.42309 0.99579,-2.32819 1.48901,-4.95793 1.48901,-7.89857 0,-3.23282 -0.63114,-6.18279 -1.88172,-8.85695 -1.20384,-2.66713 -2.91259,-4.7756 -5.12157,-6.31837 -2.19961,-1.58018 -4.69378,-2.37494 -7.45207,-2.37494 -2.2908,0 -4.3455,0.62178 -6.16177,1.86301 -1.8186,1.20384 -3.24217,2.94064 -4.28238,5.19636 -0.9958,2.2534 -1.48901,4.86676 -1.48901,7.84247 0,3.19541 0.56569,6.17344 1.69004,8.9107 1.12202,2.71389 2.76531,4.89481 4.92053,6.54746 2.16456,1.65265 4.73819,2.4848 7.71623,2.4848 z m -33.52036,-6.42823 c 1.6433,2.21832 3.16036,3.77981 4.53717,4.67508 1.3885,0.90229 3.16036,1.39551 5.32491,1.47032 0,1.24123 -0.13797,2.23702 -0.3927,2.99439 -5.14024,0 -8.96681,0.16357 -11.47733,0.50258 -1.12435,-1.42592 -2.24637,-2.93128 -3.37074,-4.51147 -1.12202,-1.61524 -1.87938,-2.69285 -2.27209,-3.21412 l -0.64983,-0.9584 c -1.33239,-1.92612 -2.56429,-3.47826 -3.68864,-4.68443 -1.12202,-1.20617 -2.62039,-2.44741 -4.47405,-3.72604 l -2.14587,0.0561 -1.94485,-0.0561 v 8.34736 c 0,1.46799 0.13798,2.583 0.39271,3.331 0.25481,0.75035 0.69425,1.27865 1.29734,1.58019 0.60308,0.30154 1.47032,0.47451 2.59234,0.51192 0.25478,0.60309 0.39271,1.59653 0.39271,2.98503 -1.86303,-0.10992 -4.88547,-0.16357 -9.07668,-0.16357 -3.37775,0 -6.16176,0.0538 -8.36373,0.16357 0,-1.31369 0.12851,-2.30949 0.38336,-2.98503 1.21552,-0.0819 2.11782,-0.26415 2.7209,-0.56569 0.61243,-0.30154 1.04254,-0.81347 1.29734,-1.52642 0.26413,-0.71061 0.39271,-1.78822 0.39271,-3.21412 v -21.94952 c 0,-1.43526 -0.12851,-2.50351 -0.39271,-3.21412 -0.2548,-0.75971 -0.71296,-1.27864 -1.36045,-1.58019 -0.60309,-0.30154 -1.50772,-0.47451 -2.7209,-0.51192 -0.21974,-0.71061 -0.32025,-1.68769 -0.32025,-2.93128 1.59888,0.10993 4.31978,0.16603 8.1627,0.16603 1.69004,0 3.99953,-0.0374 6.94017,-0.10993 l 4.14446,-0.0561 c 5.5353,0 9.53483,0.88594 11.99861,2.64844 2.46609,1.77187 3.69798,4.1468 3.69798,7.11314 0,2.71156 -0.93034,4.98598 -2.79335,6.8303 -1.80693,1.84432 -4.31978,3.12297 -7.51521,3.83591 1.6807,0.93969 3.05049,1.95186 4.08135,3.04816 1.04255,1.04956 2.57597,2.94998 4.60262,5.69893 z m -17.96167,-10.44648 c 3.28892,0 5.97242,-0.67555 8.04581,-2.02665 2.11781,-1.39785 3.17672,-3.42449 3.17672,-6.10099 0,-2.40065 -0.8041,-4.26367 -2.40065,-5.57737 -1.55212,-1.36045 -3.95512,-2.03601 -7.19496,-2.03601 -1.34174,0 -2.74895,0.15428 -4.21927,0.44648 v 15.13092 c 1.04022,0.10992 1.90744,0.16357 2.59235,0.16357 z m -37.40769,2.76766 c 2.38194,0 4.32679,-0.65919 5.8345,-1.9729 1.56147,-1.31603 2.33754,-3.54371 2.33754,-6.65732 0,-3.04816 -0.82281,-5.4418 -2.46611,-7.1669 -1.59888,-1.73445 -4.08135,-2.60402 -7.45208,-2.60402 -0.99346,0 -2.03601,0.11921 -3.1136,0.34828 v 25.78543 c 0,1.61759 0.19167,2.87753 0.58438,3.77981 0.4301,0.86723 1.07761,1.47966 1.94483,1.86303 0.86022,0.33894 2.0734,0.53997 3.62552,0.62179 0.26415,0.63815 0.39271,1.63394 0.39271,2.98503 -2.11781,-0.10992 -5.25011,-0.16357 -9.40393,-0.16357 -4.57457,0 -7.87985,0.0538 -9.91586,0.16357 0,-1.3885 0.10747,-2.38194 0.32726,-2.98503 1.20618,-0.0819 2.11081,-0.26415 2.7209,-0.56569 0.64985,-0.30154 1.09631,-0.81347 1.36045,-1.52642 0.25714,-0.71061 0.38337,-1.78822 0.38337,-3.21412 v -21.94952 c 0,-1.39785 -0.12623,-2.44741 -0.38337,-3.16037 -0.26414,-0.71995 -0.69425,-1.22252 -1.295,-1.52407 -0.60309,-0.30154 -1.51706,-0.49321 -2.7209,-0.56569 -0.26648,-0.78541 -0.39271,-1.79055 -0.39271,-2.98738 2.37262,0.10993 5.46752,0.16603 9.26603,0.16603 l 5.51659,-0.0561 c 1.12202,-0.0351 2.46378,-0.0538 4.01824,-0.0538 5.4044,0 9.31277,1.04022 11.73212,3.10427 2.46612,2.03599 3.69801,4.71949 3.69801,8.07153 0,2.41001 -0.5844,4.64704 -1.75316,6.71108 -1.15943,2.036 -2.89388,3.66994 -5.18701,4.91352 -2.2908,1.20383 -5.03039,1.80691 -8.22581,1.80691 -1.81861,0 -3.33333,-0.21038 -4.53951,-0.62177 -0.0912,-0.45582 -0.13552,-0.81113 -0.13552,-1.07761 0,-0.5914 0.13552,-1.17579 0.39271,-1.74382 0.72931,0.18468 1.68771,0.28519 2.84948,0.28519 z m -35.59377,13.9972 c 0.30154,0.90463 0.45582,1.89807 0.45582,2.98503 -1.68771,-0.10992 -4.40861,-0.16357 -8.17204,-0.16357 -4.01824,0 -6.84667,0.0444 -8.49229,0.16357 0,-1.27863 0.17531,-2.27209 0.52126,-2.98503 1.07762,-0.11921 1.85367,-0.30154 2.3282,-0.56569 0.52126,-0.26648 0.78541,-0.65919 0.78541,-1.18747 0,-0.56569 -0.31089,-1.42591 -0.91397,-2.59467 l -2.13652,-4.39927 c -6.70174,0 -12.18795,0.0912 -16.47033,0.28286 l -1.29734,2.93128 c -0.55633,1.24123 -0.84152,2.27209 -0.84152,3.10424 0,0.74802 0.25714,1.3324 0.77607,1.74381 0.52127,0.38337 1.32539,0.60309 2.403,0.68491 0.34595,0.90463 0.51894,1.89807 0.51894,2.98503 -1.46799,-0.10992 -3.6793,-0.16357 -6.61058,-0.16357 -1.25994,0 -3.1136,0.0444 -5.57737,0.16357 0,-1.16876 0.17304,-2.14586 0.51894,-2.93128 1.12435,-0.19167 1.98222,-0.65684 2.59467,-1.4142 0.64749,-0.78541 1.50536,-2.3095 2.59232,-4.56522 l 13.48763,-29.45772 c 0.90228,-0.19167 1.96119,-0.28283 3.17672,-0.28283 l 15.16597,29.90417 c 0.82283,1.58017 1.48902,2.76766 2.01029,3.56008 0.51894,0.75036 0.99346,1.29734 1.42356,1.63628 0.48388,0.30154 1.05891,0.48387 1.75316,0.56569 z m -17.0477,-11.62461 -4.21927,-8.58345 c -1.16876,-2.25574 -2.16222,-4.49276 -2.97568,-6.71109 -0.78542,2.18326 -1.67134,4.42029 -2.66713,6.71109 l -3.75176,8.58345 z m -26.25996,-23.70268 c 2.67416,0 4.86677,-0.0561 6.54514,-0.16602 0,1.0145 -0.12623,2.01029 -0.38337,2.98738 -1.21318,0.22675 -2.20898,0.82984 -2.98505,1.80693 -0.77605,0.93969 -1.62458,2.46611 -2.5292,4.56522 -5.1052,11.3324 -9.59796,20.99347 -13.48764,29.0089 -0.82047,0.22907 -1.98923,0.33894 -3.49695,0.33894 -4.75691,-11.17579 -9.21226,-20.90231 -13.35672,-29.17486 -0.9958,-1.98925 -1.75316,-3.40581 -2.27443,-4.23563 -0.47452,-0.82282 -0.94905,-1.3885 -1.42591,-1.69004 -0.42777,-0.33661 -1.03085,-0.54699 -1.81627,-0.61946 -0.25479,-0.75035 -0.38334,-1.7438 -0.38334,-2.98738 1.81627,0.10992 4.68443,0.16602 8.62085,0.16602 2.85647,0 5.75035,-0.0561 8.69097,-0.16602 0,1.12437 -0.13551,2.12016 -0.3927,2.98738 -1.29499,0.0724 -2.24638,0.26415 -2.84713,0.56569 -0.56802,0.26415 -0.85086,0.72931 -0.85086,1.40486 0,0.75971 0.47453,2.1108 1.4259,4.06499 3.41515,7.07574 6.33708,13.74943 8.75644,20.03275 3.71669,-7.48716 6.74614,-14.12579 9.07667,-19.91587 0.51893,-1.24123 0.77607,-2.31885 0.77607,-3.22114 0,-1.72744 -1.0963,-2.70453 -3.30528,-2.93128 -0.25714,-0.71294 -0.3857,-1.70873 -0.3857,-2.98738 1.77185,0.10992 3.78214,0.16602 6.02851,0.16602 z m -59.45305,38.65128 c -4.32913,0 -8.12764,-0.84152 -11.41421,-2.53858 -3.23984,-1.69004 -5.77139,-4.02759 -7.58766,-6.99393 -1.77187,-3.01309 -2.65779,-6.39317 -2.65779,-10.15429 0,-3.84525 0.93268,-7.23235 2.78634,-10.16363 1.90744,-2.93128 4.50211,-5.20337 7.7887,-6.8303 3.27723,-1.65265 6.97522,-2.48247 11.08462,-2.48247 4.19122,0 7.92662,0.81347 11.21319,2.4287 3.33335,1.61526 5.89762,3.88033 7.71624,6.7742 1.86301,2.89622 2.78401,6.24592 2.78401,10.04443 0,3.76343 -0.921,7.16924 -2.78401,10.20804 -1.81862,3.0131 -4.36421,5.37868 -7.65313,7.11315 -3.28657,1.73679 -7.03833,2.59468 -11.2763,2.59468 z m 1.16877,-3.21414 c 2.45676,0 4.60262,-0.65684 6.41889,-1.97288 1.80926,-1.31604 3.19543,-3.12295 4.14681,-5.42309 0.99345,-2.32819 1.48668,-4.95793 1.48668,-7.89857 0,-3.23282 -0.61946,-6.18279 -1.87938,-8.85695 -1.20618,-2.66713 -2.91493,-4.7756 -5.1239,-6.31837 -2.19964,-1.58018 -4.68444,-2.37494 -7.44975,-2.37494 -2.29313,0 -4.34783,0.62178 -6.1641,1.86301 -1.81627,1.20384 -3.24218,2.94064 -4.27304,5.19636 -0.99579,2.2534 -1.49835,4.86676 -1.49835,7.84247 0,3.19541 0.56568,6.1641 1.69004,8.9107 1.12203,2.71389 2.76531,4.89481 4.92988,6.54746 2.15521,1.65265 4.73118,2.4848 7.71622,2.4848 z m -31.83966,-12.58298 c 0,3.42449 -0.2548,6.07293 -0.77607,7.95232 -0.52126,1.88171 -1.51706,3.4432 -2.98503,4.68443 -2.4217,2.1108 -6.00982,3.16037 -10.75737,3.16037 -4.06266,0 -7.28612,-0.48388 -9.66107,-1.46098 -2.33753,-1.02384 -4.02525,-2.51987 -5.05843,-4.5208 -0.9958,-1.98925 -1.48903,-4.54653 -1.48903,-7.66948 v -16.87471 c 0,-1.47032 -0.10747,-2.53857 -0.32724,-3.21414 -0.21974,-0.71995 -0.5844,-1.20382 -1.10567,-1.4703 -0.52126,-0.26415 -1.36045,-0.46518 -2.52922,-0.61946 -0.25479,-0.71294 -0.38335,-1.70873 -0.38335,-2.98738 1.72511,0.10993 4.34548,0.16603 7.84478,0.16603 4.10707,0 7.17627,-0.0561 9.20292,-0.16603 0,1.19683 -0.10992,2.20197 -0.32025,2.98738 -1.34174,0.10747 -2.31885,0.30154 -2.92193,0.56569 -0.55633,0.26415 -0.94904,0.74802 -1.16876,1.47032 -0.21038,0.67555 -0.31792,1.7625 -0.31792,3.26789 v 16.02618 c 0,3.53204 0.75736,6.26228 2.26275,8.18141 1.56148,1.91678 4.1281,2.87518 7.71622,2.87518 1.16877,0 2.33755,-0.16357 3.50631,-0.50258 1.20617,-0.38337 2.19963,-0.93969 2.97804,-1.69706 0.95839,-0.86022 1.60589,-2.01029 1.94483,-3.4432 0.3927,-1.42356 0.58439,-3.60682 0.58439,-6.54746 v -12.91959 c 0,-1.88172 -0.1285,-3.30528 -0.38569,-4.28239 -0.21739,-0.98643 -0.62881,-1.69938 -1.23189,-2.14586 -0.60309,-0.45582 -1.53344,-0.74099 -2.78402,-0.84853 -0.21972,-1.05189 -0.32959,-2.04534 -0.32959,-2.98738 1.55212,0.10993 3.69799,0.16603 6.41889,0.16603 2.54791,0 4.66573,-0.0561 6.35577,-0.16603 0,1.0145 -0.12851,2.01029 -0.39271,2.98738 -1.03085,0.10747 -1.83496,0.39271 -2.3913,0.84853 -0.56803,0.41141 -0.96073,1.10566 -1.16876,2.08275 -0.21974,0.93969 -0.3296,2.33755 -0.3296,4.18188 z m -46.22957,-22.85416 c 2.55493,0 4.67507,-0.0561 6.35344,-0.16602 0,1.31604 -0.10992,2.31183 -0.31792,2.98738 -1.04253,0.0351 -1.83731,0.30154 -2.40298,0.79243 -0.51893,0.4488 -0.9023,1.24358 -1.16878,2.3656 -0.21037,1.1337 -0.3179,2.74895 -0.3179,4.8574 v 27.31186 c -0.95138,0.26414 -2.18327,0.3927 -3.698,0.3927 l -25.47688,-29.2824 v 17.82377 c 0,2.18093 0.12851,3.86163 0.38337,5.02104 0.26414,1.13137 0.71295,1.94483 1.36045,2.4287 0.69425,0.49323 1.67133,0.75736 2.92193,0.79478 0.25712,0.67554 0.38335,1.67133 0.38335,2.98503 -1.94483,-0.10993 -4.20991,-0.16357 -6.80225,-0.16357 -3.11361,0 -5.45115,0.0538 -7.00327,0.16357 0,-1.27863 0.10992,-2.27209 0.32023,-2.98503 1.25994,-0.0468 2.20898,-0.30155 2.85649,-0.79478 0.69425,-0.48387 1.16876,-1.29733 1.4259,-2.4287 0.30154,-1.15941 0.45582,-2.84011 0.45582,-5.02104 v -22.06173 l -0.45582,-0.51192 c -0.55868,-0.59374 -1.12436,-1.01215 -1.69005,-1.24123 -0.51192,-0.21973 -1.37915,-0.37401 -2.59234,-0.44648 -0.21038,-0.78542 -0.32023,-1.79055 -0.32023,-2.98738 1.37914,0.10992 3.32399,0.16602 5.83451,0.16602 2.11781,0 3.84525,-0.0561 5.18699,-0.16602 l 23.14635,26.97291 v -15.9701 c 0,-2.14586 -0.1285,-3.7611 -0.3927,-4.8574 -0.25479,-1.12202 -0.72932,-1.9168 -1.42357,-2.3656 -0.64984,-0.49089 -1.61758,-0.75737 -2.91257,-0.79243 -0.26648,-1.0519 -0.39271,-2.04534 -0.39271,-2.98738 1.89808,0.10992 4.14447,0.16602 6.73914,0.16602 z m 505.68524,-84.01596 -2.99674,4.0276 -28.39646,-0.65685 21.91446,9.40393 -0.97708,1.39784 0.0538,3.14867 c -21.02852,-4.32679 -39.39928,-1.48667 -50.1473,-21.73914 -4.1351,-7.78167 -4.31743,-17.50585 -6.59187,-25.94204 l -43.38245,40.48623 -8.67462,-2.89387 17.34924,28.92709 -23.13699,-14.46472 v 8.67462 h -2.88454 l -17.35858,-34.70549 h -2.88687 l 5.78075,28.92709 c -19.4133,-14.66574 -27.99676,-49.63771 -33.7658,-72.56434 l -26.97292,14.7195 20.25247,66.51946 c -8.29126,-5.25947 -20.03508,-13.44088 -23.62319,-23.13934 -2.07108,-5.58672 1.21551,-11.57785 0.55633,-17.34924 -1.87939,-16.64563 -14.60029,-27.2908 -26.10333,-37.68352 -3.98318,-3.58813 -8.80318,-12.69052 -8.80318,-9.19355 -6.29033,21.20151 -27.11082,24.27772 -34.82706,32.33288 -10.27115,10.72932 -24.00423,12.44508 -37.35392,17.43106 l 28.91773,31.81161 c -25.33896,-6.49135 -47.18797,-30.45116 -63.62557,-49.16085 -5.7597,14.58158 -14.44367,25.36467 -28.91773,31.81161 v 2.89621 l 26.02386,14.45303 v 2.89388 l -57.84483,-26.03087 5.7901,8.68396 c -20.67323,-5.04208 -15.67791,-9.16783 -46.10337,-34.31512 l -43.79151,37.12719 -19.5325,0.46518 21.07528,-9.33148 22.24172,-19.58627 22.9009,-13.25854 20.24312,15.914 28.74476,11.25059 14.4647,5.14025 34.7055,-31.49138 28.27959,16.79058 31.81161,-12.5269 44.02996,-48.36843 40.48856,24.90185 28.92709,-7.15055 20.24313,16.15243 25.78543,13.17673 14.78262,12.45442 46.19451,-24.82705 31.82097,21.68539 28.91774,9.1585 z m 18.70968,-141.0286 c -1.12436,-0.21973 -2.45675,0 -3.56242,0.69425 -1.19681,0.75736 -1.59653,1.90042 -1.84432,2.99439 -0.25479,1.0963 -0.31089,2.27442 -0.23843,3.51566 0.14727,2.48482 0.75971,5.13091 2.01029,7.223 0.55633,0.9397 1.77187,1.2506 2.71156,0.68491 0.93969,-0.56569 1.241234,-1.78121 0.67554,-2.71155 -0.7223,-1.21552 -1.32305,-3.48761 -1.4329,-5.41609 -0.0561,-0.95839 0.009,-1.84432 0.13551,-2.41935 0.13798,-0.56569 0.37635,-0.68491 0.10993,-0.51894 0.33893,-0.21038 0.43944,-0.20103 0.68489,-0.15655 0.24779,0.0561 0.64984,0.22906 1.115003,0.60308 0.930348,0.73866 1.97991,2.12716 2.80272,3.26087 0.77607,1.04955 1.661992,3.66994 2.073406,5.90697 0.210378,1.12202 0.3179,2.16457 0.336606,2.84946 0.0088,0.34597 -0.01876,0.61946 -0.02577,0.67556 0,0.0258 -0.0088,0 0.05382,-0.14727 0.06311,-0.13552 0.191673,-0.49323 0.738658,-0.78541 -0.967743,0.52127 -1.332399,1.72744 -0.801771,2.69518 0.518934,0.9584 1.725106,1.31369 2.683487,0.78541 0.647511,-0.3483 0.867234,-0.80412 1.005155,-1.115 0.126227,-0.31089 0.191672,-0.54699 0.226736,-0.78542 0.08415,-0.46516 0.09116,-0.91397 0.08415,-1.41422 -0.02805,-0.99579 -0.166024,-2.1926 -0.402051,-3.48059 -0.474527,-2.57364 -1.243585,-5.43246 -2.777001,-7.53156 -0.820477,-1.12436 -1.963536,-2.7583 -3.534364,-4.0089 -0.77607,-0.63113 -1.697056,-1.17812 -2.828434,-1.39784 z m -7.87284,13.331 c -1.06826,0.21038 -1.76251,1.25058 -1.55213,2.3282 0.70361,3.49696 3.48061,6.05422 6.1267,7.50584 0.7597,0.42076 0.95139,0.71295 1.47032,1.51708 0.53061,0.8041 1.29734,2.03599 2.74895,3.32398 2.045338,1.81627 3.17672,4.61897 3.17672,4.61897 0.392708,1.02385 1.54511,1.53344 2.566622,1.14073 1.023844,-0.39271 1.533416,-1.54278 1.140709,-2.56429 0,0 -1.294987,-3.53436 -4.263677,-6.1641 -1.049545,-0.93033 -1.460959,-1.63394 -2.045339,-2.51986 -0.575035,-0.88593 -1.423563,-2.036 -2.884535,-2.83077 -1.7999,-0.9958 -3.82655,-3.19541 -4.15614,-4.80365 -0.20805,-1.0776 -1.2506,-1.76952 -2.3282,-1.55213 z m 16.856013,57.0594 c -0.701263,0.38337 -0.958381,1.26228 -0.575036,1.96354 2.192621,3.99955 2.711555,5.734 2.695198,6.67602 -0.0088,0.47453 -0.128506,0.85789 -0.37635,1.48668 -0.245442,0.6405 -0.600754,1.47032 -0.930348,2.62272 -0.219723,0.76673 0.229085,1.56149 0.995794,1.77888 0.766725,0.21972 1.570828,-0.22674 1.78822,-0.99346 0.266479,-0.95137 0.558678,-1.63628 0.841515,-2.35625 0.273492,-0.7223 0.546985,-1.51706 0.565691,-2.47545 0.04435,-1.90744 -0.785414,-4.00888 -3.041149,-8.12529 -0.383345,-0.70359 -1.259923,-0.97007 -1.963535,-0.57739 z m -2.840115,-11.83263 c -0.783065,-0.12851 -1.533416,0.41141 -1.65263,1.20617 -1.423564,8.83826 0.53061,12.16223 0.430101,15.32026 -0.03734,0.8041 0.593742,1.47967 1.397845,1.50772 0.794776,0.0188 1.460976,-0.60309 1.486677,-1.40721 0.137974,-4.21692 -1.78822,-6.65498 -0.455821,-14.96495 0.128507,-0.79476 -0.411395,-1.53341 -1.206172,-1.66199 z m -3.623179,-22.51755 c -0.521284,-0.0444 -1.04255,0.12851 -1.444601,0.46519 -0.829839,0.70359 -1.084628,1.58951 -1.222548,2.30247 -0.12851,0.71997 -0.12851,1.37916 -0.13797,2.00794 -0.0258,1.25994 -0.15428,2.37495 -0.30856,2.67649 -0.88594,1.71577 -2.403,3.83358 -7.10379,9.93457 -0.67789,0.85787 -0.52128,2.10845 0.34595,2.77465 0.86724,0.67556 2.11781,0.51192 2.78401,-0.3553 4.71249,-6.11736 6.393189,-8.37307 7.505847,-10.53765 0.841516,-1.63394 0.712957,-3.21411 0.741007,-4.41094 0.0088,-0.60308 0.03506,-1.11267 0.08187,-1.38617 0.05382,-0.27582 0.109923,-0.18466 -0.128507,0.007 0.832171,-0.70127 0.942042,-1.94483 0.23843,-2.77466 -0.338938,-0.40206 -0.822809,-0.65685 -1.351088,-0.70361 z m -7.021989,53.70037 c -0.79476,0.10993 -1.33473,0.84853 -1.21552,1.64329 1.36045,9.45069 1.40721,14.57224 0.90463,16.59188 -0.20103,0.76671 0.27349,1.56148 1.04956,1.75315 0.77606,0.19869 1.57083,-0.27582 1.75316,-1.06123 0.748,-2.9944 0.53997,-8.12531 -0.84853,-17.70456 -0.10992,-0.79476 -0.84852,-1.34174 -1.6433,-1.22253 z m -3.19541,-19.4951 c -0.78541,-0.15428 -1.54513,0.35529 -1.6994,1.14071 -0.78542,3.99018 -1.19681,8.05518 -1.32304,11.37683 -0.0561,1.65263 -0.0468,3.12295 0.0258,4.31978 0.0819,1.19681 0.14726,2.03599 0.53063,2.87751 0.3366,0.71997 1.19683,1.0402 1.91678,0.7106 0.73166,-0.3366 1.04021,-1.20382 0.70361,-1.93548 0.009,0.0281 -0.19169,-0.77605 -0.26415,-1.83496 -0.0654,-1.05891 -0.0819,-2.43806 -0.0188,-4.0276 0.11922,-3.16736 0.51192,-7.12248 1.25994,-10.93034 0.15428,-0.78308 -0.35531,-1.54277 -1.13136,-1.69705 z m -2.70454,-5.55167 -3.57877,1.6994 c 0,0 0.4301,0.92099 0.85787,1.89808 0.21038,0.49323 0.43946,0.98645 0.5844,1.36981 0.0468,0.12851 0.0724,0.21038 0.10045,0.30154 -0.009,0.0444 0,-0.0373 -0.0281,0.0351 -0.0631,0.21037 -0.18233,0.53061 -0.374,0.89526 -0.38336,0.73165 -1.01217,1.67134 -1.98925,2.58533 l 2.71155,2.88452 c 1.33238,-1.24123 2.20896,-2.53857 2.784,-3.64188 0.28285,-0.55868 0.50257,-1.06126 0.64984,-1.50772 0.14499,-0.44647 0.24544,-0.75736 0.24544,-1.3324 0,-0.57503 -0.10045,-0.70359 -0.16357,-0.93268 -0.0724,-0.22673 -0.15656,-0.45582 -0.24779,-0.69425 -0.19167,-0.48387 -0.40906,-1.03085 -0.63815,-1.55212 -0.45582,-1.04956 -0.91397,-2.00796 -0.91397,-2.00796 z m 6.36513,-6.78354 c -0.63113,0.0538 -1.02384,0.24544 -1.3885,0.42777 -0.71997,0.374 -1.3511,0.84151 -2.02665,1.32538 -1.36045,0.96775 -2.92193,1.88873 -3.49697,1.9799 -1.08695,0.14726 -1.84432,1.15943 -1.68068,2.24639 0.15656,1.08695 1.16876,1.83496 2.24637,1.67133 2.08275,-0.30154 3.56943,-1.53343 4.86677,-2.48247 -0.0631,0.45582 -0.10046,0.81114 -0.19169,1.34175 -0.39271,2.23703 -0.95838,4.87612 -1.15007,7.06639 -0.19168,2.12716 -0.21973,4.76624 -0.0188,7.06873 0.10045,1.15007 0.25478,2.19027 0.52126,3.12295 0.13552,0.45582 0.2922,0.9023 0.55633,1.35111 0.2735,0.45582 0.69425,1.02149 1.52409,1.29499 0.13798,0.0468 -0.15427,-0.25479 0.0912,0.23843 0.24777,0.48387 0.70359,1.52408 1.66199,2.6835 0.0749,0.10046 0.51192,0.88592 0.87658,1.88172 0.36699,0.99579 0.73164,2.24639 1.03319,3.50631 0.61944,2.52923 0.967739,5.37869 0.920982,5.96308 -0.08187,1.10565 -0.418412,3.98083 -0.565672,6.7742 -0.0724,1.3885 -0.10046,2.76764 -0.0188,4.00887 0.0912,1.24124 0.0912,2.29313 0.977087,3.46892 1.661992,2.23002 5.306227,5.42545 5.306227,5.42545 0.804121,0.72931 2.0547,0.6662 2.793358,-0.14727 0.731662,-0.81113 0.666199,-2.06171 -0.144987,-2.79337 0,0 -3.798512,-3.54371 -4.784961,-4.84806 0.210379,0.28283 -0.128506,-0.41142 -0.201017,-1.37916 -0.06311,-0.95838 -0.03734,-2.22766 0.02805,-3.53436 0.144986,-2.61103 0.465165,-5.30388 0.556329,-6.68304 0.135519,-1.89106 -0.357644,-4.446 -1.023844,-7.18559 -0.327261,-1.36981 -0.719969,-2.73026 -1.150071,-3.91773 -0.42777,-1.19683 -0.820477,-2.17391 -1.542778,-3.05049 -0.638143,-0.77607 -0.848523,-1.28799 -1.196823,-1.97288 -0.3553,-0.69192 -1.16876,-1.79758 -2.35625,-2.19029 0.50258,0.16357 0.6218,0.43713 0.6218,0.43713 0,0.009 -0.0819,-0.16357 -0.15428,-0.42777 -0.14727,-0.51192 -0.2922,-1.37915 -0.374,-2.37495 -0.18468,-1.9986 -0.15656,-4.51846 0.007,-6.37214 0.16602,-1.78119 0.69425,-4.41093 1.10565,-6.72978 0.20103,-1.15007 0.38336,-2.22768 0.46518,-3.17905 0.0373,-0.47453 0.0561,-0.93035 0.0188,-1.38617 -0.0281,-0.45815 -0.0444,-0.95138 -0.52828,-1.63627 -0.48387,-0.68491 -1.55212,-1.04022 -2.18326,-0.99346 z m 5.359982,-46.15011 c -2.912572,-1.01215 -5.350632,0.12851 -7.059382,0.39271 -1.7064,0.25714 -2.85647,1.32539 -3.54138,2.15521 -0.34828,0.42076 -0.59372,0.81346 -0.76671,1.04956 -0.16602,0.24778 -0.49321,0.36699 0.18233,-0.0351 -1.0963,0.65685 -1.07761,1.3324 -1.17812,1.78121 -0.10046,0.45582 -0.11922,0.85787 -0.14727,1.25994 -0.0351,0.80177 -0.0444,1.62458 -0.0724,1.97989 0,0 0,0.009 0,0.009 -0.11922,1.3324 0.31089,2.17391 0.63113,3.00375 0.2735,0.68489 0.50023,1.1524 0.58438,1.30668 -0.009,0.12851 -0.009,0.32025 -0.0373,0.52828 -0.0538,0.49323 -0.15428,0.90463 -0.15428,1.55447 0,0.75736 0.72932,1.80693 1.3324,2.07106 0.44646,0.20103 0.6662,0.18233 0.89527,0.18233 0.34597,0.59374 0.59374,1.02384 1.22255,2.4217 0.25712,0.56568 0.75736,0.9841 1.36045,1.12202 0.62177,0.14727 1.48901,0.15428 2.14586,-0.1285 0.33894,-0.13552 0.47451,-0.30155 0.69425,-0.44646 0.39271,0.26413 0.90463,0.7223 1.43291,1.13136 -0.21038,-0.15428 -0.13552,-0.21739 -0.0912,0.10992 0.0468,0.32024 0.0374,0.84853 0.0374,1.43291 0,-0.47452 0.0444,-0.30855 -0.028,-0.12622 -0.0631,0.17303 -0.19168,0.46516 -0.374,0.81113 -0.35532,0.68489 -0.87658,1.58952 -1.44227,2.56662 -1.14071,1.94483 -2.4661,4.11874 -3.25151,5.68957 -1.70642,3.41515 -0.64751,6.18982 -0.64751,6.55448 0,-0.13552 -0.0724,0.47686 -0.23843,1.0963 -0.15428,0.62179 -0.37401,1.36979 -0.60309,2.08275 -0.24544,0.76671 -0.3179,0.93969 -0.49088,1.45161 -0.43011,0.009 -0.55867,0 -1.02385,0.0351 -0.009,0 -0.009,0 -0.009,0 -0.33661,0.0373 -0.74802,0.10992 -1.22253,0.4301 -0.46519,0.32025 -0.86724,0.99579 -0.93268,1.55214 -0.0351,0.34828 0.1285,0.34828 0.17303,0.56567 -0.61009,0.20104 -1.15943,0.3296 -1.82563,0.6662 -0.6662,0.3296 -1.25992,0.76906 -1.69705,1.40721 -0.43945,0.64749 -0.65919,1.53343 -0.53061,2.32819 0.16357,1.00514 1.04954,1.42356 1.74379,2.00093 l -1.0402,2.583 c -0.42076,0.17303 -0.71296,0.28283 -1.51706,0.63113 -1.23189,0.53763 -2.44507,1.00281 -3.45957,1.76251 -1.41421,1.06825 -1.44226,2.51052 -1.52408,3.4128 -0.0841,0.91399 -0.32959,1.62693 -0.10045,1.26928 0.16357,-0.26413 0.0443,-0.0631 -0.45817,0.0912 -0.25479,0.0841 -0.54699,0.16602 -0.92099,0.30154 -0.36465,0.12851 -0.84853,0.26648 -1.39784,0.91399 0,0 -0.009,0 -0.009,0 -0.29218,0.35529 -0.52828,0.91397 -0.52828,1.47966 0,0.56568 0.21038,1.0402 0.43712,1.36045 0.45817,0.62879 0.91399,0.83917 1.36981,1.04955 0.91397,0.41141 1.96354,0.59374 3.17905,0.59374 1.60589,0 2.94764,-0.63815 4.22628,-1.21552 0.0188,0.48388 0.009,0.47686 0.0374,1.02385 0.10045,2.15521 0.22673,4.47405 0.51893,5.95372 0.16603,0.81111 0.56802,4.1351 0.93268,7.21364 0.18233,1.54278 0.35531,3.04816 0.52127,4.27304 0.15427,1.22253 0.24544,1.98223 0.43713,2.7022 0.27349,1.0402 0.748,1.49837 1.25058,2.04535 0.50256,0.54699 1.07759,1.05891 1.62458,1.53342 0.66855,0.57503 0.90463,0.73166 1.3067,1.0332 v 11.53109 c 0,2.52923 1.46096,4.55821 2.71153,6.31137 0.5844,0.81113 0.70362,0.88592 1.15008,1.42356 -0.9397,0.91398 -1.87939,2.20898 -1.87939,4.14447 0,1.0145 0.75736,1.86302 1.77186,1.96353 l 25.565713,2.79571 c 0.923318,0.10747 1.799896,-0.43947 2.099107,-1.31604 0,0 0.511922,-1.48901 1.206172,-3.10427 0.3483,-0.81346 0.731645,-1.64328 1.096302,-2.29313 0.364657,-0.64749 0.813465,-1.12202 0.712956,-1.04954 0.490884,-0.37402 0.920986,-0.98645 1.084626,-1.60589 0.166024,-0.61245 0.109923,-1.16878 0.01876,-1.64331 -0.201017,-0.94202 -0.58438,-1.69004 -1.01215,-2.58531 -0.860222,-1.78822 -1.982242,-4.02524 -2.739606,-7.10379 -0.757364,-3.08555 -1.341744,-7.95232 -1.636274,-12.28146 -0.144986,-2.16455 -0.217392,-4.20056 -0.226736,-5.84385 -0.01876,-1.63394 0.07241,-2.96634 0.128507,-3.25854 0.135519,-0.71294 0.09818,-1.30668 0.06311,-2.1108 -0.03734,-0.80177 -0.109923,-1.75316 -0.219723,-2.82141 -0.219741,-2.13652 -0.556347,-4.72884 -0.895285,-7.35858 -0.336606,-2.62973 -0.675544,-5.27817 -0.911641,-7.4965 -0.247774,-2.2113 -0.366989,-4.09069 -0.329594,-4.68443 0.219723,-3.37776 1.891078,-8.49229 1.891078,-12.46377 0,-2.07341 -0.549334,-5.68023 -1.096319,-9.31277 -0.556329,-3.64424 -1.150071,-7.29781 -1.231873,-8.20946 -0.184678,-1.93548 -1.344093,-3.26087 -2.255735,-4.24732 -0.913973,-0.9841 -1.633942,-1.77886 -1.799913,-2.17156 -0.647494,-1.58019 -1.888729,-3.08791 -3.085556,-4.86677 -1.206172,-1.77186 -2.283768,-3.72605 -2.466096,-4.57458 -0.446477,-2.17391 -1.825633,-3.82654 -3.286591,-5.10519 -1.460958,-1.27863 -3.013098,-2.19027 -4.382892,-2.66713 z m -1.316042,3.74475 c 0.703611,0.23843 2.028998,0.96774 3.087905,1.89809 1.058906,0.93268 1.834959,2.0547 2.017287,2.92191 0.446477,2.18328 1.799914,4.13745 3.069199,6.00983 1.269286,1.87237 2.53624,3.75175 2.702194,4.14446 0.656855,1.58019 1.778875,2.51052 2.56429,3.3614 0.785414,0.84852 1.161764,1.4703 1.196827,1.91678 0.137974,1.47032 0.712939,4.82936 1.259924,8.43619 0.549334,3.60682 1.058907,7.48014 1.058907,8.72137 0,2.67415 -1.59653,7.94296 -1.870022,12.20899 -0.09344,1.31369 0.08187,3.0949 0.336606,5.36699 0.247773,2.27442 0.593724,4.95092 0.932679,7.57129 0.327244,2.62039 0.656838,5.20337 0.867217,7.25807 0.100456,1.0332 0.182328,1.92614 0.217391,2.62039 0.02805,0.68491 -0.02577,1.23422 -0.01578,1.16878 -0.191673,1.03319 -0.210379,2.29313 -0.191673,4.02758 0.007,1.74381 0.09116,3.85226 0.245442,6.07995 0.301543,4.47638 0.857872,9.40626 1.734451,12.957 0.867234,3.55305 2.192621,6.1641 3.013098,7.87283 0.374001,0.77607 0.575035,1.28566 0.649825,1.52409 -0.511922,0.53762 -0.977087,1.06825 -1.334731,1.7064 -0.474527,0.85086 -0.902297,1.78121 -1.27863,2.66713 -0.42777,0.99579 -0.50959,1.25994 -0.738675,1.89108 l -21.138391,-2.30247 c 0.0631,-0.0188 0.21972,-0.31091 0.21972,-0.31091 1.35111,-0.48387 1.762522,-2.18093 0.77607,-3.22113 0,0 -1.0963,-1.18746 -2.18325,-2.70454 -1.08696,-1.52407 -1.9729,-3.525 -1.9729,-3.99953 v -12.48949 c 0,-0.63114 -0.2992,-1.22488 -0.81112,-1.58953 0,0 -0.93268,-0.67555 -1.87237,-1.48901 -0.47453,-0.41142 -0.93969,-0.84853 -1.26928,-1.20384 -0.3296,-0.35765 -0.46519,-0.7597 -0.36466,-0.39271 0.0188,0.0631 -0.16357,-0.99579 -0.32025,-2.18326 -0.15428,-1.19683 -0.33661,-2.69285 -0.52127,-4.23563 -0.36465,-3.0692 -0.70126,-6.12903 -0.98411,-7.53389 -0.14727,-0.73166 -0.33894,-3.24218 -0.43945,-5.35063 -0.10046,-2.11081 -0.14499,-3.95513 -0.14499,-3.95513 -0.0373,-1.47733 -1.63627,-2.40066 -2.93127,-1.67836 0,0 -0.97709,0.53764 -2.17392,1.07761 -0.43945,0.19167 -0.63815,0.20805 -1.08696,0.35531 0.22909,-0.77607 0.43947,-1.59888 0.48388,-2.10847 0.0724,-0.7223 0.3109,-0.88592 -0.0444,-0.62179 0,0 0.009,0 0.009,0 0.0538,-0.0373 1.49604,-0.79476 2.65545,-1.30668 1.15942,-0.50023 2.20197,-0.91164 2.20197,-0.91164 0.49321,-0.20102 0.89293,-0.59373 1.09397,-1.08696 l 1.26928,-3.13229 c 0.11922,-0.0631 0.52127,-0.26415 0.52127,-0.26415 0,0 0.62179,-0.75035 0.62179,-0.75035 0,0 0.19167,-0.92099 0.19167,-0.92099 0,0 -0.1285,-0.60309 -0.1285,-0.60309 0,0 -0.15428,-0.3366 -0.15428,-0.3366 0,0 -0.22909,-0.31091 -0.23843,-0.31091 0,0 -0.0912,-0.10992 -0.12851,-0.14726 -0.14498,-0.12623 -0.20102,-0.15428 -0.25478,-0.19167 -0.43011,-0.2922 -0.71296,-0.42778 -0.71296,-0.42778 -0.10046,-0.009 -0.20102,-0.0188 -0.30154,-0.0188 -0.10046,-0.0561 -0.0912,-0.0468 -0.22674,-0.10993 0.59374,-0.24544 1.26929,-0.48387 1.88873,-0.67556 0.39271,-0.10992 0.7223,-0.19167 1.13371,-0.374 0.21038,-0.0819 0.43712,-0.0468 0.97709,-0.7223 0.0631,-0.0819 0.13552,-0.18233 0.20103,-0.31089 0.0724,-0.12622 0.17304,-0.43713 0.17304,-0.43713 0,-0.009 -0.009,-0.23843 -0.0188,-0.43945 0.6475,-0.0912 1.20617,-0.48387 1.50772,-1.06826 0,0 0.47452,-1.3324 0.9584,-2.84012 0.23608,-0.75736 0.46516,-1.55913 0.65683,-2.29078 0.19169,-0.73867 0.36466,-1.29733 0.36466,-2.08275 0,-2.30014 -0.89527,-2.51988 0.22908,-4.7756 0.62881,-1.26928 1.9542,-3.47826 3.122954,-5.46752 0.575035,-0.99579 1.131382,-1.93781 1.55214,-2.74895 0.210379,-0.41141 0.383345,-0.78541 0.528279,-1.14072 0.147265,-0.36699 0.310887,-0.62178 0.310887,-1.36278 0,-0.47453 0.04681,-1.16878 -0.06311,-1.9799 -0.109923,-0.80412 -0.402051,-1.90042 -1.397844,-2.67649 -0.254787,-0.20103 -0.930348,-0.82048 -1.725106,-1.3511 -0.39271,-0.26414 -0.83217,-0.52828 -1.46096,-0.69425 -0.53063,-0.13552 -1.34176,0.0187 -2.04536,0.37401 -0.35531,-0.77607 -0.70359,-1.62459 -1.20617,-2.32819 -0.22673,-0.32726 -0.54698,-0.57503 -0.91164,-0.71062 -0.0468,-0.0188 -0.0281,0 -0.0654,-0.0188 0.009,-0.17304 0.0281,-0.33896 0.0373,-0.53063 0.009,-0.31089 0.13797,-0.51893 -0.19167,-1.30435 -0.21038,-0.49321 -0.43012,-0.89528 -0.67556,-1.52642 -0.25712,-0.63815 -0.34829,-1.44225 -0.36466,-1.20382 0.0631,-0.74101 0.0443,-1.51708 0.0819,-2.12017 0.009,-0.26413 0.0351,-0.44645 0.0444,-0.54698 0.0749,-0.11922 0.32959,-0.31089 0.40206,-0.4114 0.19168,-0.28285 0.38335,-0.55634 0.57504,-0.79477 0.38335,-0.46517 0.71294,-0.70127 1.06825,-0.75737 2.4287,-0.36465 3.92707,-0.98643 5.1496,-0.55633 z m -9.94156,44.02059 c 0.15428,0.12851 0.28284,0.33896 0.48387,0.45582 -0.0934,-0.0538 -0.21038,-0.14498 -0.35764,-0.29218 -0.0444,-0.0444 -0.0912,-0.10992 -0.12623,-0.16357 z m 5.86021,67.65082 -10.61945,9.26836 c -0.32724,0.29219 -0.55633,0.68489 -0.63815,1.12436 l -0.6662,3.60682 3.89902,0.71062 0.5283,-2.92193 10.09115,-8.81019 z m 1.40721,-0.49321 c -1.14073,-0.0631 -2.10146,0.84151 -2.10146,1.98222 v 13.14868 h 3.96448 v -11.05657 l 25.483893,1.40486 -0.282855,11.82562 3.95279,0.10046 0.338938,-13.75176 c 0.01876,-1.06827 -0.804103,-1.96354 -1.872371,-2.01731 z m -13.66995,25.05611 -0.12622,3.96447 59.139817,2.02665 0.137973,-3.96447 z m -2.04535,-8.73773 v 10.10753 l -8.87564,13.2305 3.30528,2.21131 9.19589,-13.73306 c 0.21974,-0.32025 0.33895,-0.70361 0.33895,-1.09632 v -10.71996 z m 31.996286,12.0173 c -10.236105,-0.72231 -21.678386,0.20103 -30.324936,3.29593 -0.22908,0.0819 -0.44647,0.21038 -0.6288,0.37402 -0.3483,0.30154 -1.56149,1.13136 -2.39364,2.63908 -0.83918,1.50538 -1.24124,3.65125 -0.73868,6.45395 l 4.24499,1.26227 -0.3366,-1.94483 c -0.38337,-2.14586 -0.0654,-3.18841 0.29218,-3.84525 0.2922,-0.51192 0.71997,-0.83918 1.19449,-1.24124 7.79803,-2.73026 18.74709,-3.73539 28.417504,-3.05049 4.892464,0.33894 9.450672,1.0963 13.073869,2.17392 3.625529,1.07759 6.283315,2.57363 7.379616,3.87097 l 1.276298,1.50771 1.746145,-4.07434 c -2.000931,-2.37261 -5.252458,-3.90838 -9.259,-5.09351 -4.018236,-1.19681 -8.83123,-1.97288 -13.943436,-2.33754 z m -10.182335,14.05097 c -4.417951,0.32025 -9.102391,1.14306 -13.733071,2.69518 l -1.87937,0.62881 1.25992,3.75408 1.88873,-0.63113 c 8.511,-2.85881 17.47782,-3.02245 24.160854,-2.26508 3.342674,0.37402 6.107998,0.98645 7.907894,1.55214 0.439464,0.13797 0.584398,0.21972 0.895285,0.34828 l 3.396444,2.02665 0.895284,-1.77185 c 0.236098,-0.46518 0.273493,-1.08695 0.154278,-1.53343 -0.119215,-0.44648 -0.320249,-0.73866 -0.502577,-0.94904 -0.364657,-0.43012 -0.684889,-0.62179 -1.030857,-0.83217 -0.712939,-0.40205 -1.552122,-0.72931 -2.620373,-1.06825 -2.127176,-0.67556 -5.095849,-1.30435 -8.655932,-1.70642 -3.562415,-0.40205 -7.725566,-0.57503 -12.136509,-0.24777 z m -19.777941,-28.05051 c -0.64751,-0.009 -1.25994,0.28284 -1.64331,0.80412 l -9.91585,13.27724 c -0.27349,0.38336 -0.4114,0.83918 -0.38335,1.31369 l 0.71294,11.15008 c 0.0631,1.04956 0.93035,1.87237 1.97991,1.86302 h 6.18279 c 0.42777,0.89294 0.82048,2.10847 2.96634,3.95279 2.16457,1.85367 3.4432,1.47967 4.79431,1.52408 v 90.77145 h 3.96213 v -92.04074 c 0,-1.18513 -1.03085,-2.10847 -2.20897,-1.9612 0,0 -2.18093,0.22675 -3.97148,-1.31603 -2.11782,-1.80692 -2.79338,-3.63489 -2.79338,-3.63489 -0.30154,-0.76671 -1.03319,-1.26928 -1.85366,-1.26928 h -5.23376 l -0.53764,-8.56475 8.8663,-11.8794 55.890639,1.3441 0.273493,8.64657 -6.884069,7.37728 c -0.201017,0.21038 -0.348282,0.46517 -0.446459,0.73866 0,0 -1.416551,4.42965 -2.438063,7.16924 -0.175315,0.44647 -1.178121,1.22254 -2.412344,1.67135 -1.23189,0.44646 -2.363255,0.60074 -2.363255,0.60074 -1.005138,0.13797 -1.746144,1.00515 -1.727438,2.01029 l 2.512852,121.55221 0.03506,1.97289 3.962135,-0.0749 -0.03506,-1.97989 -2.484802,-119.99074 c 0.565673,-0.1285 0.69425,-0.0841 1.460958,-0.36699 1.690043,-0.6101 3.873302,-1.61525 4.756893,-3.99954 1.033206,-2.7466 2.211327,-6.42823 2.356243,-6.91211 l 7.159893,-7.66013 c 0.355312,-0.38335 0.546985,-0.88593 0.528296,-1.40486 l -0.345968,-11.34175 c -0.03734,-1.04956 -0.885922,-1.89108 -1.944829,-1.9168 z m 7.39597,37.41938 c -86.15013,64.74759 -447.64874,-23.04583 -519.52817,15.12156 67.2511,-35.08183 421.69034,60.60313 519.52817,-15.12156 z"
       style="fill:#000000;fill-opacity:1;fill-rule:nonzero;stroke:none;stroke-width:2.33754" /></g></svg>
