<?xml version="1.0" encoding="UTF-8" standalone="no"?>
<!-- Created with Inkscape (http://www.inkscape.org/) -->

<svg
   width="169.33333mm"
   height="169.33334mm"
   viewBox="0 0 169.33333 169.33335"
   version="1.1"
   id="svg5"
   xml:space="preserve"
   xmlns="http://www.w3.org/2000/svg"
   xmlns:svg="http://www.w3.org/2000/svg"><defs
     id="defs2" /><g
     id="g1"
     transform="matrix(0.26458332,0,0,0.26458333,-0.58334413,1.1695025e-7)"><g
       id="g8"
       transform="matrix(0.98468263,0,0,0.98468263,14.482703,9.8031786)"><rect
         style="font-variation-settings:'opsz' 12, 'wght' 800;fill:#0b2a55;fill-opacity:1;stroke-width:0.6743;stroke-linecap:round"
         id="rect3"
         width="513.62366"
         height="513.62366"
         x="171.34006"
         y="-140.24907"
         rx="92.44754"
         ry="92.44754"
         transform="rotate(29.999999)" /><rect
         style="font-variation-settings:'opsz' 12, 'wght' 800;fill:#103c79;fill-opacity:1;stroke-width:0.6743;stroke-linecap:round"
         id="rect4"
         width="513.62366"
         height="513.62366"
         x="186.91965"
         y="-255.03467"
         rx="92.44754"
         ry="92.44754"
         transform="rotate(44.999998)" /><rect
         style="font-variation-settings:'opsz' 12, 'wght' 800;fill:#154fa0;fill-opacity:1;stroke-width:0.6743;stroke-linecap:round"
         id="rect5"
         width="513.62366"
         height="513.62366"
         x="172.26003"
         y="-369.94144"
         rx="92.44754"
         ry="92.44754"
         transform="rotate(59.999999)" /><rect
         style="font-variation-settings:'opsz' 12, 'wght' 800;fill:#195ebe;fill-opacity:1;stroke-width:0.6743;stroke-linecap:round"
         id="rect6"
         width="513.62366"
         height="513.62366"
         x="128.35944"
         y="-477.1387"
         rx="92.44754"
         ry="92.44754"
         transform="rotate(75)" /><rect
         style="font-variation-settings:'opsz' 12, 'wght' 800;fill:#1d92e1;fill-opacity:1;stroke-width:0.6743;stroke-linecap:round"
         id="rect7"
         width="513.62366"
         height="513.62366"
         x="58.210438"
         y="-569.32086"
         rx="92.44754"
         ry="92.44754"
         transform="rotate(90)" /><path
         id="path3"
         d="m 195.93206,217.47016 c -14.02635,0 -25.40706,11.37328 -25.40706,25.40706 0,14.0338 11.37513,25.40707 25.40706,25.40707 12.89331,-0.0224 23.72888,-9.6951 25.20426,-22.50839 -2.06329,10.00765 -10.85791,17.19664 -21.06835,17.21711 -11.91096,0 -21.57072,-9.65788 -21.57072,-21.56884 0,-11.90537 9.65976,-21.56325 21.57072,-21.56325 4.96382,0 9.76765,1.71538 13.6189,4.84661 -4.7443,-4.63638 -11.11839,-7.23737 -17.75481,-7.23737 z m 282.66657,220.86807 c -2.10794,0 -3.97588,-0.39072 -5.60379,-1.18329 -1.6205,-0.78514 -2.88378,-1.89771 -3.79361,-3.32844 -0.88562,-1.42514 -1.32283,-3.08844 -1.32283,-4.98616 0,-1.87538 0.43721,-3.53867 1.32283,-4.9936 0.90983,-1.45304 2.17311,-2.57121 3.79361,-3.36379 1.65027,-0.80746 3.54051,-1.2149 5.67637,-1.2149 2.11541,0 3.98336,0.39255 5.60386,1.1777 1.6205,0.79258 2.87822,1.91258 3.76376,3.36565 0.90983,1.43073 1.36008,3.081 1.36008,4.95639 0,1.89771 -0.45025,3.56844 -1.36008,5.0215 -0.88554,1.43259 -2.15074,2.55075 -3.80101,3.36565 -1.6205,0.78514 -3.50143,1.18329 -5.63919,1.18329 z m 0.51726,-1.70052 c 1.99069,0 3.56654,-0.6679 4.71633,-1.99818 1.18329,-1.33025 1.77308,-3.10331 1.77308,-5.31917 0,-1.60004 -0.31996,-3.03077 -0.96004,-4.28848 -0.64001,-1.27816 -1.53303,-2.28096 -2.68839,-2.99355 -1.13491,-0.71257 -2.41309,-1.06792 -3.83819,-1.06792 -1.98336,0 -3.56105,0.67537 -4.71641,2.02609 -1.15536,1.33026 -1.72842,3.09587 -1.72842,5.28383 0,1.65771 0.31812,3.11821 0.95813,4.40381 0.64,1.2577 1.52006,2.22517 2.65313,2.91542 1.1256,0.69024 2.4056,1.03815 3.83078,1.03815 z m -19.16512,-17.11478 c 0.93775,0 1.96847,-0.0205 3.0959,-0.0726 0,0.74234 -0.0517,1.29305 -0.14509,1.66516 -0.5172,0.0428 -0.90983,0.18046 -1.17773,0.40558 -0.27723,0.21954 -0.47254,0.60467 -0.59535,1.14979 -0.0948,0.51537 -0.14701,1.29306 -0.14701,2.32564 v 13.04401 c -0.31814,0.14511 -0.82044,0.22511 -1.51066,0.22511 l -13.22635,-14.67194 v 8.8653 c 0,1.06235 0.0576,1.86051 0.18044,2.40563 0.14518,0.5377 0.37774,0.92282 0.6977,1.14235 0.32004,0.22514 0.79258,0.35536 1.40282,0.40559 0.12281,0.40002 0.18234,0.95259 0.18234,1.66516 -1.32282,-0.0446 -2.4205,-0.0726 -3.27819,-0.0726 -1.15538,0 -2.27541,0.028 -3.35078,0.0726 0,-0.71257 0.0576,-1.26514 0.18233,-1.66516 0.61025,-0.0428 1.06793,-0.18045 1.36561,-0.40559 0.32,-0.21953 0.53768,-0.60465 0.66235,-1.14235 0.14511,-0.54512 0.21767,-1.34328 0.21767,-2.40563 V 421.6681 l -0.0372,-0.0372 c -0.16558,-0.17488 -0.39255,-0.28279 -0.66047,-0.33489 -0.26978,-0.0726 -0.78514,-0.13019 -1.54794,-0.18046 -0.12461,-0.44467 -0.18233,-0.99539 -0.18233,-1.66517 0.88,0.0521 1.74514,0.0726 2.58052,0.0726 0.75535,0 1.53305,-0.0205 2.31823,-0.0726 l 12.27552,13.78635 v -8.24018 c 0,-1.04002 -0.0724,-1.81027 -0.22508,-2.33307 -0.12464,-0.53769 -0.34232,-0.92281 -0.66236,-1.14237 -0.31997,-0.22511 -0.79999,-0.35534 -1.43816,-0.40557 -0.0949,-0.56746 -0.1451,-1.12003 -0.1451,-1.66517 1.22795,0.052 2.28096,0.0726 3.16842,0.0726 z m -31.6583,18.55482 c 0,-0.7628 0.0576,-1.31537 0.18232,-1.66516 0.61769,-0.0428 1.06794,-0.14511 1.36562,-0.29023 0.31999,-0.15255 0.53767,-0.40745 0.66234,-0.77769 0.12279,-0.37025 0.1879,-0.92282 0.1879,-1.66329 v -9.86998 c 0,-0.71258 -0.0652,-1.2577 -0.1879,-1.62795 -0.12461,-0.37023 -0.34235,-0.62513 -0.66234,-0.77024 -0.29768,-0.15256 -0.74793,-0.24745 -1.36562,-0.29768 -0.12461,-0.37211 -0.18232,-0.92282 -0.18232,-1.66516 1.57026,0.052 2.95075,0.0726 4.12846,0.0726 0.98049,0 2.33306,-0.0205 4.05589,-0.0726 0,0.76281 -0.052,1.31537 -0.15255,1.66516 -0.88002,0.0428 -1.48283,0.24745 -1.80283,0.58792 -0.2977,0.34977 -0.44467,1.04747 -0.44467,2.10795 v 9.86998 c 0,1.06048 0.14697,1.77305 0.44467,2.1433 0.32,0.34233 0.92281,0.53768 1.80283,0.58791 0.10047,0.37211 0.15255,0.92282 0.15255,1.66516 -1.67259,-0.0446 -3.02332,-0.0726 -4.05589,-0.0726 -1.22794,0 -2.60843,0.028 -4.12846,0.0726 z m -14.30172,0.18791 c -2.01306,0 -3.61309,-0.23815 -4.7908,-0.70327 -1.15536,-0.4949 -1.99074,-1.22235 -2.50609,-2.18052 -0.4949,-0.98978 -0.73491,-2.25307 -0.73491,-3.80845 v -7.68946 c 0,-0.76281 -0.0502,-1.33026 -0.15255,-1.70051 -0.0949,-0.37023 -0.28281,-0.61024 -0.55258,-0.73489 -0.24744,-0.15257 -0.6456,-0.26047 -1.21305,-0.33303 -0.12278,-0.39258 -0.18232,-0.95258 -0.18232,-1.66516 1.17769,0.052 2.45772,0.0726 3.83077,0.0726 1.37306,0 2.72565,-0.0205 4.0559,-0.0726 0,0.64002 -0.052,1.19259 -0.14697,1.66516 -0.69025,0.0726 -1.18328,0.18046 -1.47539,0.33303 -0.29768,0.1246 -0.50792,0.3721 -0.63072,0.73489 -0.0948,0.34792 -0.14511,0.91537 -0.14511,1.70051 v 7.24666 c 0,1.75075 0.39071,3.06611 1.17585,3.95172 0.81489,0.88747 2.20283,1.33025 4.17124,1.33025 0.58979,0 1.19259,-0.0875 1.80284,-0.25302 0.61769,-0.20466 1.14235,-0.48 1.58515,-0.85026 0.46513,-0.42233 0.79815,-0.97489 0.99537,-1.66514 0.21768,-0.72002 0.3349,-1.76562 0.3349,-3.13867 v -5.8085 c 0,-0.93584 -0.067,-1.63352 -0.18977,-2.10609 -0.0949,-0.4949 -0.30513,-0.83723 -0.62514,-1.03259 -0.32001,-0.22511 -0.80002,-0.37023 -1.43817,-0.44279 -0.0949,-0.59722 -0.14513,-1.14794 -0.14513,-1.66516 0.9805,0.052 2.01308,0.0726 3.09589,0.0726 0.95816,0 2.00562,-0.0205 3.13123,-0.0726 0,0.61769 -0.0576,1.17027 -0.18048,1.66516 -0.76466,0.0726 -1.28001,0.34047 -1.54793,0.81303 -0.24744,0.46514 -0.37211,1.33771 -0.37211,2.62332 v 5.98896 c 0,1.65028 -0.13772,2.95077 -0.40557,3.91823 -0.24746,0.93583 -0.73491,1.7005 -1.47539,2.28842 -1.2298,1.01025 -2.98053,1.51259 -5.26896,1.51259 z m -21.23022,-1.92562 c 1.35258,0 2.4205,-0.14512 3.20565,-0.44279 0.78513,-0.29769 1.4177,-0.76282 1.88283,-1.40284 0.46513,-0.64 0.92281,-1.5777 1.36561,-2.81307 0.71258,0.22512 1.25026,0.52467 1.6205,0.88746 -0.47256,1.45305 -0.85025,3.29123 -1.14793,5.50895 -1.91074,-0.0446 -4.29405,-0.0726 -7.14433,-0.0726 -4.51918,0 -7.7025,0.0354 -9.54998,0.10787 0,-0.71073 0.067,-1.24283 0.18976,-1.5833 0.68281,-0.0521 1.20004,-0.17488 1.54794,-0.37024 0.3628,-0.20466 0.62513,-0.54512 0.77025,-1.04003 0.17488,-0.51536 0.26233,-1.25769 0.26233,-2.21585 v -15.18918 c 0,-1.23722 -0.18977,-2.05771 -0.56,-2.47819 -0.34234,-0.44465 -1.00283,-0.6921 -1.98331,-0.73489 -0.1246,-0.34978 -0.18977,-0.88002 -0.18977,-1.59072 1.42515,0.0726 2.91355,0.10784 4.4615,0.10784 1.49771,0 2.98797,-0.0353 4.46335,-0.10784 0,0.7107 -0.0652,1.24094 -0.18977,1.59072 -0.69025,0.0428 -1.21306,0.16745 -1.58329,0.36279 -0.34234,0.17489 -0.58979,0.49489 -0.7349,0.96746 -0.15256,0.46513 -0.22512,1.13305 -0.22512,1.99076 v 15.08125 c 0,0.95816 0.0875,1.67817 0.26233,2.14329 0.16745,0.47257 0.4856,0.80003 0.95815,0.99538 0.46514,0.20464 1.16283,0.29769 2.10053,0.29769 z m -30.18113,1.73771 c 0,-0.7628 0.0576,-1.31537 0.18048,-1.66516 0.61768,-0.0428 1.06977,-0.14511 1.36746,-0.29023 0.32001,-0.15255 0.5377,-0.40745 0.66048,-0.77769 0.12461,-0.37025 0.18234,-0.92282 0.18234,-1.66329 v -9.86998 c 0,-0.71258 -0.0576,-1.2577 -0.18234,-1.62795 -0.12278,-0.37023 -0.34047,-0.62513 -0.66048,-0.77024 -0.29769,-0.15256 -0.74978,-0.24745 -1.36746,-0.29768 -0.1228,-0.37211 -0.18048,-0.92282 -0.18048,-1.66516 1.57027,0.052 2.94333,0.0726 4.12847,0.0726 0.98049,0 2.33122,-0.0205 4.04659,-0.0726 0,0.76281 -0.0428,1.31537 -0.14511,1.66516 -0.88561,0.0428 -1.48283,0.24745 -1.80283,0.58792 -0.29768,0.34977 -0.4428,1.04747 -0.4428,2.10795 v 9.86998 c 0,1.06048 0.14512,1.77305 0.4428,2.1433 0.32,0.34233 0.91722,0.53768 1.80283,0.58791 0.10228,0.37211 0.14511,0.92282 0.14511,1.66516 -1.66329,-0.0446 -3.01587,-0.0726 -4.04659,-0.0726 -1.2298,0 -2.6103,0.028 -4.12847,0.0726 z m -25.65451,0 c 0,-0.7628 0.0576,-1.31537 0.18047,-1.66516 0.58978,-0.0428 1.04747,-0.14511 1.36747,-0.29023 0.32002,-0.15255 0.53769,-0.42047 0.66049,-0.81305 0.15256,-0.4 0.22511,-0.98978 0.22511,-1.77491 v -9.723 c 0,-0.71258 -0.0726,-1.2577 -0.22511,-1.62795 -0.1228,-0.37023 -0.34047,-0.62513 -0.66049,-0.77024 -0.29767,-0.15256 -0.74979,-0.24745 -1.36747,-0.29768 -0.0931,-0.39258 -0.14512,-0.95258 -0.14512,-1.66516 1.37492,0.052 2.95821,0.0726 4.75359,0.0726 0.81305,0 1.42514,-0.007 1.84563,-0.0354 l 1.95538,-0.0372 c 3.56102,0 6.482,0.62513 8.77229,1.88284 2.3033,1.2577 3.45867,3.57589 3.45867,6.94712 0,3.84566 -1.30049,6.43176 -3.90333,7.76203 -2.60842,1.30793 -5.39175,1.96283 -8.36484,1.96283 -3.53868,0 -6.39455,0.028 -8.55274,0.0726 z m 8.69973,-1.73771 c 1.76562,0 3.25589,-0.19535 4.45406,-0.58792 1.22793,-0.42234 2.20282,-1.18515 2.91355,-2.29585 0.74234,-1.10515 1.10513,-2.66798 1.10513,-4.68848 0,-2.74053 -0.85769,-4.70895 -2.58052,-5.9164 -1.69306,-1.20561 -3.85869,-1.80842 -6.48201,-1.80842 -1.01025,0 -1.77307,0.0726 -2.28841,0.21768 v 12.19562 c 0,0.79069 0.0726,1.39536 0.22511,1.81584 0.14512,0.39257 0.41303,0.67537 0.80561,0.85025 0.42232,0.14512 1.03258,0.21768 1.84748,0.21768 z m -20.71301,0.0726 c 0.12279,0.37211 0.18047,0.92281 0.18047,1.66515 -0.98049,-0.0446 -2.24563,-0.0726 -3.79356,-0.0726 -1.62051,0 -2.92844,0.028 -3.90894,0.0726 0,-0.7628 0.0726,-1.31537 0.22514,-1.66515 0.56,-0.0726 0.95256,-0.16559 1.1777,-0.29024 0.24558,-0.15256 0.37022,-0.3628 0.37022,-0.63256 0,-0.21769 -0.1246,-0.60281 -0.37022,-1.14794 l -0.74235,-1.58516 c -3.53124,0 -6.322,0.0596 -8.36484,0.18235 l -0.40745,0.96001 c -0.24001,0.56559 -0.3628,1.01025 -0.3628,1.33026 0,0.69025 0.50234,1.09025 1.5126,1.18328 0.14511,0.44466 0.21767,1.00281 0.21767,1.66515 -0.93025,-0.0446 -1.95539,-0.0726 -3.06053,-0.0726 -0.95816,0 -1.83074,0.028 -2.61587,0.0726 0,-0.58977 0.0726,-1.14793 0.22512,-1.66515 0.5377,-0.0931 0.95258,-0.32001 1.25026,-0.66047 0.29769,-0.37025 0.69025,-1.09771 1.17769,-2.18052 l 6.34434,-14.08403 c 0.46512,-0.0948 0.95258,-0.14511 1.46794,-0.14511 l 6.77969,14.1138 c 0.54512,1.13303 0.99721,1.89584 1.36745,2.29586 0.39258,0.39256 0.83538,0.61024 1.33027,0.66047 z m -7.59458,-5.17406 -2.21029,-4.65127 c -0.64,-1.30792 -1.08281,-2.34796 -1.33025,-3.11076 -0.19536,0.61768 -0.4428,1.23537 -0.73304,1.85307 -0.26978,0.58976 -0.44281,0.96001 -0.51722,1.10514 l -2.09865,4.80382 z m -2.83542,-14.5566 c -1.65025,-2.56563 -3.21122,-4.64382 -4.68661,-6.25131 0.54512,-0.26791 1.24282,-0.40557 2.10609,-0.40557 0.46513,0 0.94514,0.0354 1.4326,0.10786 0.69024,2.34796 1.56283,4.49869 2.61586,6.46897 -0.19536,0.10229 -0.43536,0.15256 -0.73303,0.15256 -0.19722,0 -0.44467,-0.0297 -0.73491,-0.0726 z m -12.02071,2.76843 c -0.0726,1.33027 0.015,2.92844 0.26232,4.80383 -0.51537,0.22511 -1.12003,0.33489 -1.81028,0.33489 -0.0502,-1.18514 -0.3628,-2.05772 -0.95815,-2.62331 -0.56002,-0.56746 -1.46236,-0.85024 -2.69029,-0.85024 h -1.62052 v 12.67374 c 0,0.76281 0.0576,1.33026 0.18235,1.70052 0.15255,0.34976 0.39256,0.59722 0.74049,0.74234 0.37208,0.14511 0.92279,0.24558 1.65771,0.29768 0.12279,0.29023 0.18231,0.80559 0.18231,1.54793 -1.8177,-0.0446 -3.30053,-0.0726 -4.4559,-0.0726 -1.42515,0 -2.95076,0.028 -4.57127,0.0726 0,-0.74234 0.0576,-1.2577 0.18234,-1.54793 0.74047,-0.0521 1.29304,-0.15257 1.65584,-0.29768 0.40002,-0.14512 0.66977,-0.40746 0.8149,-0.77771 0.14512,-0.37209 0.21769,-0.9228 0.21769,-1.66515 v -12.67374 h -1.50515 c -0.98793,0 -1.75074,0.13771 -2.28842,0.40557 -0.51537,0.24746 -0.89492,0.60467 -1.14051,1.0698 -0.24743,0.47258 -0.45768,1.13305 -0.62512,1.99818 -0.78512,0 -1.36747,-0.10982 -1.73771,-0.33489 0.37024,-1.67073 0.55257,-3.27821 0.55257,-4.80383 1.27816,0.0521 4.09125,0.0726 8.44484,0.0726 4.41869,0 7.2597,-0.0205 8.50996,-0.0726 z m -21.11861,0 c -0.0726,1.33027 0.015,2.92844 0.26047,4.80383 -0.51536,0.22511 -1.11817,0.33489 -1.80841,0.33489 -0.0446,-1.18514 -0.36466,-2.05772 -0.96001,-2.62331 -0.56002,-0.56746 -1.46051,-0.85024 -2.68844,-0.85024 h -1.6205 v 12.67374 c 0,0.76281 0.0652,1.33026 0.1879,1.70052 0.14512,0.34976 0.39258,0.59722 0.73491,0.74234 0.37023,0.14511 0.9228,0.24558 1.65585,0.29768 0.12461,0.29023 0.18232,0.80559 0.18232,1.54793 -1.81771,-0.0446 -3.29867,-0.0726 -4.45591,-0.0726 -1.42329,0 -2.9489,0.028 -4.57126,0.0726 0,-0.74234 0.0596,-1.2577 0.18234,-1.54793 0.74234,-0.0521 1.29304,-0.15257 1.66515,-0.29768 0.39256,-0.14512 0.66047,-0.40746 0.8056,-0.77771 0.14511,-0.37209 0.22512,-0.9228 0.22512,-1.66515 v -12.67374 h -1.51074 c -0.98792,0 -1.74516,0.13771 -2.29027,0.40557 -0.51538,0.24746 -0.89305,0.60467 -1.1405,1.0698 -0.24745,0.47258 -0.45769,1.13305 -0.62513,1.99818 -0.78513,0 -1.36561,-0.10982 -1.73586,-0.33489 0.37025,-1.67073 0.55815,-3.27821 0.55815,-4.80383 1.27259,0.0521 4.08567,0.0726 8.4374,0.0726 4.42056,0 7.26156,-0.0205 8.51182,-0.0726 z m -30.14578,18.62738 c 0,-0.7628 0.0576,-1.31537 0.18047,-1.66515 0.61769,-0.0428 1.06794,-0.14513 1.36747,-0.29024 0.32002,-0.15256 0.5377,-0.40745 0.6605,-0.77768 0.1246,-0.37026 0.18977,-0.92283 0.18977,-1.6633 v -9.86998 c 0,-0.71257 -0.0652,-1.2577 -0.18977,-1.62794 -0.1228,-0.37024 -0.34048,-0.62513 -0.6605,-0.77025 -0.29953,-0.15256 -0.74978,-0.24744 -1.36747,-0.29767 -0.12279,-0.37211 -0.18047,-0.92283 -0.18047,-1.66517 1.56842,0.0521 2.95078,0.0726 4.1266,0.0726 0.98235,0 2.33308,-0.0205 4.05591,-0.0726 0,0.76281 -0.0502,1.31537 -0.14512,1.66517 -0.88747,0.0428 -1.49026,0.24744 -1.81026,0.58791 -0.2977,0.34977 -0.44282,1.04747 -0.44282,2.10795 v 9.86998 c 0,1.06048 0.14512,1.77305 0.44282,2.1433 0.32,0.34233 0.92279,0.53769 1.81026,0.58792 0.0949,0.37211 0.14512,0.92281 0.14512,1.66515 -1.67073,-0.0446 -3.02332,-0.0726 -4.05591,-0.0726 -1.22794,0 -2.60098,0.028 -4.1266,0.0726 z m -13.86075,0.26048 c -2.25866,0 -4.28661,-0.54327 -6.082,-1.62609 -1.76562,-1.11258 -3.15357,-2.64563 -4.16381,-4.62335 -0.98235,-1.96842 -1.47538,-4.22149 -1.47538,-6.75921 0,-2.71076 0.56559,-5.01408 1.70049,-6.91179 1.15537,-1.89584 2.66611,-3.32845 4.53406,-4.28661 1.89027,-0.96001 3.91822,-1.44747 6.0764,-1.44747 1.50331,0 2.89123,0.16745 4.16381,0.48746 1.28005,0.29024 2.61589,0.77024 4.0187,1.44003 -0.26791,1.27816 -0.40745,3.18891 -0.40745,5.72663 -0.53769,0.22513 -1.19072,0.33304 -1.94608,0.33304 -0.10228,-2.46331 -0.60468,-4.14892 -1.51259,-5.0643 -0.90794,-0.9377 -2.25308,-1.40282 -4.0187,-1.40282 -1.99074,0 -3.64101,0.46512 -4.94151,1.40282 -1.30234,0.9377 -2.26051,2.17307 -2.87075,3.69869 -0.6177,1.52561 -0.92281,3.20564 -0.92281,5.0215 0,2.22517 0.37023,4.23078 1.10328,6.02618 0.76466,1.77305 1.85305,3.18146 3.27821,4.21403 1.43259,1.01026 3.09588,1.52005 5.01406,1.52005 1.15723,0 2.34796,-0.20467 3.57589,-0.59722 1.22794,-0.39259 2.37028,-0.92283 3.43077,-1.5833 0.14512,0.12279 0.2828,0.30513 0.40001,0.55257 0.15256,0.21767 0.24001,0.41304 0.26234,0.58791 -1.4977,1.16283 -2.95821,1.99818 -4.3908,2.51541 -1.39538,0.51536 -3.00844,0.77584 -4.82614,0.77584 z m 243.15318,-36.68544 c -3.44563,0 -6.46903,-0.66979 -9.08483,-2.02052 -2.58054,-1.34515 -4.5936,-3.20566 -6.03923,-5.56663 -1.4103,-2.3982 -2.11541,-5.08848 -2.11541,-8.08205 0,-3.06053 0.74236,-5.74897 2.21777,-8.08947 1.51814,-2.33308 3.58141,-4.14149 6.19173,-5.4364 2.61588,-1.31538 5.5592,-1.97586 8.82997,-1.97586 3.33587,0 6.30706,0.64747 8.92485,1.93306 2.64566,1.28563 4.69404,3.08845 6.13968,5.39176 1.47532,2.30517 2.21768,4.97127 2.21768,7.99459 0,2.9954 -0.74236,5.70617 -2.21768,8.12482 -1.44564,2.3982 -3.47357,4.28847 -6.08946,5.66152 -2.61588,1.38236 -5.61125,2.06518 -8.97507,2.06518 z m 0.9228,-2.55821 c 1.96282,0 3.66331,-0.5228 5.10895,-1.57027 1.44564,-1.04747 2.55078,-2.48563 3.30611,-4.31637 0.79258,-1.85305 1.18513,-3.94613 1.18513,-6.28665 0,-2.57309 -0.50231,-4.92103 -1.4977,-7.04946 -0.95812,-2.12283 -2.3182,-3.80102 -4.07639,-5.02894 -1.75072,-1.2577 -3.72843,-1.89027 -5.93123,-1.89027 -1.8233,0 -3.45868,0.49489 -4.90432,1.48281 -1.44747,0.95817 -2.58054,2.34052 -3.40846,4.13591 -0.7851,1.79353 -1.18514,3.87357 -1.18514,6.24201 0,2.5433 0.45026,4.91359 1.3452,7.09223 0.89302,2.16006 2.20096,3.8959 3.91634,5.21128 1.72278,1.31539 3.77124,1.97772 6.14151,1.97772 z m -34.10677,2.55821 c -3.27077,0 -6.17688,-0.65492 -8.72205,-1.97774 -2.5433,-1.34327 -4.52661,-3.21866 -5.93687,-5.60941 -1.41027,-2.3982 -2.1154,-5.12385 -2.1154,-8.17693 0,-3.29123 0.80746,-6.08944 2.42797,-8.39461 1.61305,-2.33865 3.75077,-4.09124 6.39454,-5.25406 2.65309,-1.17026 5.50896,-1.75818 8.56953,-1.75818 2.02794,0 3.95351,0.19535 5.77681,0.58792 1.86055,0.38513 3.73591,0.97491 5.62614,1.75259 -0.37766,1.70795 -0.56741,4.02615 -0.56741,6.96203 -0.71999,0.29767 -1.85306,0.45022 -3.40098,0.45022 -0.0724,-2.79075 -0.71259,-4.71637 -1.91077,-5.79919 -1.17025,-1.10514 -2.89311,-1.6577 -5.16101,-1.6577 -3.68381,0 -6.4169,1.13491 -8.20484,3.40845 -1.78795,2.2754 -2.68099,5.10894 -2.68099,8.48948 0,2.6382 0.47814,4.99919 1.43818,7.0997 0.96745,2.09306 2.37585,3.74334 4.23637,4.94149 1.85305,1.19259 4.0782,1.7954 6.65875,1.7954 1.51074,0 3.05865,-0.21024 4.64381,-0.63258 1.57585,-0.41303 3.09591,-1.01584 4.53407,-1.79352 0.24745,0.18047 0.46513,0.43535 0.67533,0.76279 0.20464,0.32747 0.34233,0.63257 0.41492,0.90049 -1.89589,1.31538 -3.83644,2.30331 -5.83643,2.96565 -1.99077,0.62514 -4.27913,0.93771 -6.85967,0.93771 z m -37.67524,0 c -3.43821,0 -6.46898,-0.66979 -9.0774,-2.02052 -2.58053,-1.34515 -4.59359,-3.20566 -6.0392,-5.56663 -1.41027,-2.3982 -2.1154,-5.08848 -2.1154,-8.08205 0,-3.06053 0.74235,-5.74897 2.21773,-8.08947 1.51073,-2.33308 3.57402,-4.14149 6.19175,-5.4364 2.61588,-1.31538 5.55919,-1.97586 8.82252,-1.97586 3.34333,0 6.31455,0.64747 8.93228,1.93306 2.64379,1.28563 4.69406,3.08845 6.13967,5.39176 1.47539,2.30517 2.21773,4.97127 2.21773,7.99459 0,2.9954 -0.74234,5.70617 -2.21773,8.12482 -1.44561,2.3982 -3.47355,4.28847 -6.08943,5.66152 -2.61587,1.38236 -5.61128,2.06518 -8.98252,2.06518 z m 0.93026,-2.55821 c 1.96282,0 3.66333,-0.5228 5.10895,-1.57027 1.44561,-1.04747 2.54331,-2.48563 3.30611,-4.31637 0.78513,-1.85305 1.18514,-3.94613 1.18514,-6.28665 0,-2.57309 -0.50232,-4.92103 -1.49771,-7.04946 -0.9656,-2.12283 -2.32562,-3.80102 -4.07637,-5.02894 -1.75259,-1.2577 -3.73588,-1.89027 -5.93128,-1.89027 -1.82329,0 -3.45867,0.49489 -4.90429,1.48281 -1.44748,0.95817 -2.58053,2.34052 -3.40845,4.13591 -0.79258,1.79353 -1.18515,3.87357 -1.18515,6.24201 0,2.5433 0.45025,4.91359 1.34516,7.09223 0.89304,2.16006 2.20096,3.8959 3.91635,5.21128 1.72283,1.31539 3.77125,1.97772 6.14154,1.97772 z m -32.35606,-0.22512 c 1.68562,0 3.04565,-0.18233 4.07822,-0.53768 1.03074,-0.39258 1.86053,-0.9898 2.47819,-1.79539 0.65305,-0.80747 1.25585,-1.96284 1.80099,-3.46054 1.38235,0.2121 2.41307,0.61024 3.09588,1.21491 -0.68281,1.79539 -1.2205,4.14149 -1.59818,7.04946 -3.02331,-0.0576 -6.67178,-0.0875 -10.93791,-0.0875 -6.8448,0 -11.54071,0.0354 -14.08404,0.13018 0,-1.10514 0.10229,-1.89584 0.30513,-2.37585 0.96561,-0.0652 1.68562,-0.21024 2.16563,-0.45025 0.51535,-0.24 0.88003,-0.67722 1.09026,-1.30235 0.20279,-0.66049 0.30512,-1.60562 0.30512,-2.83355 v -17.10735 c 0,-1.11258 -0.10229,-1.94794 -0.30512,-2.51541 -0.21023,-0.57302 -0.57491,-0.97304 -1.09026,-1.21304 -0.48001,-0.24001 -1.20002,-0.39257 -2.16563,-0.45025 -0.16744,-0.53769 -0.25489,-1.33026 -0.25489,-2.38517 2.30331,0.0949 4.62336,0.13954 6.96202,0.13954 2.61772,0 4.95638,-0.0446 7.02155,-0.13954 0,1.08281 -0.10228,1.87539 -0.31256,2.38517 -0.96003,0.0576 -1.68562,0.21024 -2.16563,0.45025 -0.48002,0.24 -0.82236,0.65303 -1.03259,1.25769 -0.2028,0.5656 -0.30512,1.42329 -0.30512,2.55821 v 16.9771 c 0,1.22794 0.11721,2.15819 0.35536,2.78333 0.24,0.63257 0.67722,1.08281 1.29491,1.35072 0.65303,0.24001 1.59817,0.35721 2.83354,0.35721 z m -36.79522,2.78333 c -3.43822,0 -6.46153,-0.66979 -9.07741,-2.02052 -2.58051,-1.34515 -4.59358,-3.20566 -6.0392,-5.56663 -1.41027,-2.3982 -2.13028,-5.29873 -2.11539,-8.08205 0.015,-2.79075 0.74234,-5.75639 2.21771,-8.08947 1.51074,-2.33308 3.57405,-4.14149 6.19178,-5.4364 2.61586,-1.31538 5.55918,-1.97586 8.82251,-1.97586 3.34333,0 6.31456,0.64747 8.93229,1.93306 2.64564,1.28563 4.69406,3.08845 6.13967,5.39176 1.47538,2.30517 2.21772,4.97127 2.21772,7.99459 0,2.9954 -0.74234,5.70617 -2.21772,8.12482 -1.44561,2.3982 -3.47357,4.28102 -6.08943,5.66152 -2.61587,1.38236 -5.61129,2.06518 -8.98253,2.06518 z m 0.93026,-2.55821 c 1.96283,0 3.66333,-0.5228 5.10893,-1.57027 1.44562,-1.04747 2.55076,-2.48563 3.30614,-4.31637 0.79257,-1.85305 1.18514,-3.94613 1.18514,-6.28665 0,-2.57309 -0.50235,-4.92103 -1.49771,-7.04946 -0.95817,-2.12283 -2.3182,-3.80102 -4.07638,-5.02894 -1.75072,-1.2577 -3.73589,-1.89027 -5.93128,-1.89027 -1.8233,0 -3.45869,0.49489 -4.9043,1.48281 -1.44746,0.95817 -2.58052,2.34052 -3.40845,4.13591 -0.79258,1.79353 -1.18513,3.87357 -1.18513,6.24201 0,2.5433 0.45024,4.91359 1.34514,7.09223 0.89304,2.16006 2.20098,3.8959 3.91636,5.21128 1.72283,1.31539 3.77125,1.97772 6.14154,1.97772 z m -26.67965,-5.11638 c 1.30793,1.76561 2.5154,3.00843 3.61123,3.721 1.10514,0.71816 2.51541,1.11073 4.23823,1.17026 0,0.98793 -0.10982,1.7805 -0.31256,2.38331 -4.09124,0 -7.1369,0.13019 -9.13508,0.40002 -0.89489,-1.13493 -1.78794,-2.33308 -2.68285,-3.59079 -0.89305,-1.28561 -1.49584,-2.14331 -1.80842,-2.55819 l -0.5172,-0.76282 c -1.06049,-1.53305 -2.04099,-2.76843 -2.93588,-3.72845 -0.89304,-0.96002 -2.08564,-1.94795 -3.56101,-2.96564 l -1.70795,0.0446 -1.54794,-0.0446 v 6.64386 c 0,1.1684 0.10981,2.05587 0.31256,2.65122 0.20281,0.59722 0.55257,1.01771 1.03258,1.25772 0.48001,0.24 1.17027,0.37767 2.06331,0.40744 0.20278,0.48001 0.31257,1.27072 0.31257,2.37586 -1.48284,-0.0875 -3.88847,-0.13019 -7.22435,-0.13019 -2.68843,0 -4.90429,0.0428 -6.65689,0.13019 0,-1.0456 0.10228,-1.83818 0.30512,-2.37586 0.96746,-0.0652 1.68563,-0.21025 2.16563,-0.45024 0.48745,-0.24 0.82979,-0.64746 1.03258,-1.21492 0.21023,-0.56559 0.31257,-1.42329 0.31257,-2.55819 v -17.47014 c 0,-1.14236 -0.10228,-1.99261 -0.31257,-2.5582 -0.20279,-0.60468 -0.56746,-1.0177 -1.08281,-1.25771 -0.48001,-0.24001 -1.20003,-0.37768 -2.16563,-0.40745 -0.17489,-0.56559 -0.25489,-1.34328 -0.25489,-2.33307 1.27258,0.0875 3.43821,0.13214 6.49689,0.13214 1.34513,0 3.18332,-0.0297 5.52385,-0.0875 l 3.29867,-0.0446 c 4.40567,0 7.58899,0.70514 9.54998,2.10796 1.96281,1.41027 2.9433,3.30054 2.9433,5.66152 0,2.15819 -0.74048,3.96846 -2.22329,5.43639 -1.43817,1.46795 -3.43822,2.48565 -5.98153,3.0531 1.33771,0.74792 2.42796,1.55353 3.24844,2.42609 0.82979,0.83538 2.05028,2.34797 3.66334,4.53592 z m -14.29612,-8.3146 c 2.61772,0 4.75359,-0.5377 6.40385,-1.61307 1.68561,-1.11257 2.52842,-2.72563 2.52842,-4.85591 0,-1.91075 -0.64,-3.39356 -1.91073,-4.43917 -1.23537,-1.08281 -3.14797,-1.62051 -5.72664,-1.62051 -1.06793,0 -2.18795,0.12279 -3.35821,0.35536 v 12.04306 c 0.82793,0.0875 1.51817,0.1302 2.06331,0.1302 z m -29.77368,2.20284 c 1.89585,0 3.4438,-0.52467 4.64382,-1.57028 1.24281,-1.04746 1.86051,-2.82052 1.86051,-5.29872 0,-2.4261 -0.6549,-4.33126 -1.96284,-5.7043 -1.27259,-1.3805 -3.24844,-2.07261 -5.93129,-2.07261 -0.79072,0 -1.62051,0.0949 -2.47818,0.27721 V 394.021 c 0,1.28748 0.15255,2.2903 0.46512,3.00845 0.34232,0.69025 0.8577,1.17769 1.54793,1.48283 0.68468,0.26976 1.65028,0.42977 2.88564,0.49489 0.21024,0.50792 0.31257,1.30049 0.31257,2.37586 -1.68561,-0.0875 -4.17869,-0.13019 -7.48481,-0.13019 -3.64101,0 -6.27177,0.0428 -7.89227,0.13019 0,-1.10514 0.0856,-1.89585 0.26048,-2.37586 0.96002,-0.0652 1.68003,-0.21025 2.16562,-0.45024 0.51723,-0.24 0.87258,-0.64746 1.08282,-1.21492 0.20466,-0.56559 0.30513,-1.42329 0.30513,-2.55819 v -17.47014 c 0,-1.11259 -0.10047,-1.94795 -0.30513,-2.51542 -0.21024,-0.57303 -0.55258,-0.97303 -1.03072,-1.21304 -0.48002,-0.24001 -1.20747,-0.39256 -2.16563,-0.45025 -0.2121,-0.62513 -0.31257,-1.42515 -0.31257,-2.37772 1.88842,0.0875 4.35173,0.13214 7.37505,0.13214 l 4.39079,-0.0446 c 0.89304,-0.028 1.96097,-0.0428 3.19821,-0.0428 4.30149,0 7.41225,0.82794 9.33787,2.47077 1.96284,1.62048 2.94333,3.75635 2.94333,6.42431 0,1.91819 -0.46513,3.69869 -1.39537,5.34151 -0.92283,1.6205 -2.30331,2.921 -4.12847,3.91079 -1.82331,0.95816 -4.00381,1.43816 -6.54712,1.43816 -1.44748,0 -2.65307,-0.16745 -3.6131,-0.49488 -0.0726,-0.36279 -0.10786,-0.64559 -0.10786,-0.85769 0,-0.47071 0.10786,-0.93585 0.31256,-1.38795 0.58048,0.14698 1.34329,0.22699 2.26797,0.22699 z m -28.32992,11.1407 c 0.24,0.72002 0.3628,1.51072 0.3628,2.37586 -1.34329,-0.0875 -3.50892,-0.13019 -6.50433,-0.13019 -3.19821,0 -5.44943,0.0353 -6.75921,0.13019 0,-1.01769 0.13953,-1.80841 0.41488,-2.37586 0.8577,-0.0948 1.47538,-0.24 1.85308,-0.45024 0.41487,-0.2121 0.62512,-0.52467 0.62512,-0.94514 0,-0.45024 -0.24745,-1.13492 -0.72746,-2.06516 l -1.7005,-3.50148 c -5.33407,0 -9.70068,0.0726 -13.10913,0.22514 l -1.03258,2.33307 c -0.4428,0.98793 -0.66978,1.80841 -0.66978,2.47073 0,0.59537 0.20466,1.0605 0.61769,1.38794 0.41489,0.30514 1.05491,0.48002 1.9126,0.54514 0.27535,0.72002 0.41304,1.51072 0.41304,2.37586 -1.16841,-0.0875 -2.92844,-0.13019 -5.26152,-0.13019 -1.00281,0 -2.47818,0.0353 -4.43915,0.13019 0,-0.93025 0.13772,-1.70795 0.41303,-2.33308 0.89489,-0.15255 1.57769,-0.52279 2.06516,-1.12559 0.51535,-0.62512 1.19815,-1.83818 2.06329,-3.63357 l 10.73512,-23.44609 c 0.71814,-0.15257 1.56095,-0.22512 2.52843,-0.22512 l 12.07096,23.80144 c 0.65491,1.2577 1.18514,2.20285 1.60003,2.83355 0.41304,0.59723 0.79072,1.03258 1.13304,1.30236 0.38514,0.23999 0.84282,0.38512 1.39539,0.45024 z m -13.56867,-9.2523 -3.35822,-6.83178 c -0.93024,-1.79538 -1.72096,-3.57589 -2.36841,-5.34151 -0.62514,1.73771 -1.33026,3.51821 -2.12284,5.34151 l -2.98611,6.83178 z M 208.79,370.88934 c 2.12843,0 3.87358,-0.0446 5.20943,-0.13213 0,0.80746 -0.10047,1.60003 -0.30513,2.37773 -0.9656,0.18047 -1.75818,0.66048 -2.37587,1.43817 -0.61768,0.74792 -1.29304,1.96283 -2.01305,3.63357 -4.06335,9.01972 -7.63925,16.70919 -10.73514,23.08887 -0.65302,0.18232 -1.58327,0.26977 -2.7833,0.26977 -3.78614,-8.89508 -7.33225,-16.63665 -10.63093,-23.22096 -0.79258,-1.5833 -1.39538,-2.71077 -1.81027,-3.37124 -0.37769,-0.65491 -0.75537,-1.10514 -1.13492,-1.34515 -0.34047,-0.26791 -0.82047,-0.43536 -1.44561,-0.49303 -0.20279,-0.59723 -0.30511,-1.38794 -0.30511,-2.37773 1.44561,0.0875 3.72845,0.13213 6.86153,0.13213 2.27354,0 4.57685,-0.0446 6.91736,-0.13213 0,0.89491 -0.10786,1.68748 -0.31256,2.37773 -1.03072,0.0576 -1.78795,0.21024 -2.2661,0.45024 -0.4521,0.21024 -0.67722,0.58047 -0.67722,1.11816 0,0.60467 0.37769,1.68004 1.13491,3.23542 2.7182,5.63175 5.04384,10.94349 6.96946,15.94454 2.9582,-5.95921 5.36941,-11.24305 7.22433,-15.85151 0.41303,-0.98793 0.6177,-1.84563 0.6177,-2.56378 0,-1.37491 -0.87258,-2.1526 -2.63075,-2.33307 -0.20467,-0.56745 -0.30699,-1.36003 -0.30699,-2.37773 1.41026,0.0875 3.0103,0.13213 4.79823,0.13213 z m -47.32009,30.76348 c -3.44566,0 -6.46898,-0.66979 -9.08484,-2.02052 -2.57867,-1.34515 -4.59359,-3.20566 -6.0392,-5.56663 -1.41027,-2.3982 -2.1154,-5.08848 -2.1154,-8.08205 0,-3.06053 0.74234,-5.75639 2.21772,-8.08947 1.51817,-2.33308 3.58333,-4.14149 6.1992,-5.4364 2.60843,-1.31538 5.55175,-1.97586 8.82252,-1.97586 3.33589,0 6.30898,0.64747 8.92484,1.93306 2.6531,1.28563 4.69406,3.08845 6.14154,5.39176 1.48282,2.30517 2.21586,4.97127 2.21586,7.99459 0,2.9954 -0.73304,5.70617 -2.21586,8.12482 -1.44748,2.3982 -3.47357,4.28102 -6.09131,5.66152 -2.61586,1.38236 -5.60197,2.06518 -8.97507,2.06518 z m 0.93025,-2.55821 c 1.95539,0 3.66334,-0.5228 5.10895,-1.57027 1.44003,-1.04747 2.54332,-2.48563 3.30054,-4.31637 0.79072,-1.85305 1.18328,-3.94613 1.18328,-6.28665 0,-2.57309 -0.49303,-4.92103 -1.49583,-7.04946 -0.96004,-2.12283 -2.32007,-3.80102 -4.07824,-5.02894 -1.75075,-1.2577 -3.72845,-1.89027 -5.92943,-1.89027 -1.82516,0 -3.46054,0.49489 -4.90616,1.48281 -1.44561,0.95817 -2.58052,2.34052 -3.40101,4.13591 -0.79257,1.79353 -1.19258,3.87357 -1.19258,6.24201 0,2.5433 0.45025,4.90615 1.34515,7.09223 0.89305,2.16006 2.20098,3.8959 3.92381,5.21128 1.71538,1.31539 3.76566,1.97772 6.14152,1.97772 z m -25.34194,-10.0151 c 0,2.72563 -0.2028,4.83359 -0.6177,6.32944 -0.41487,1.4977 -1.20746,2.74052 -2.37586,3.72845 -1.92748,1.68004 -4.78335,2.51542 -8.56204,2.51542 -3.23356,0 -5.7992,-0.38514 -7.68947,-1.16283 -1.8605,-0.81491 -3.2038,-2.00563 -4.02613,-3.59821 -0.79258,-1.5833 -1.18515,-3.61869 -1.18515,-6.10433 v -13.43098 c 0,-1.17026 -0.0856,-2.02051 -0.26046,-2.55821 -0.1749,-0.57303 -0.46513,-0.95815 -0.88003,-1.17025 -0.41488,-0.21024 -1.08281,-0.37025 -2.01306,-0.49304 -0.2028,-0.56744 -0.30512,-1.36002 -0.30512,-2.37772 1.37305,0.0875 3.45867,0.13214 6.24384,0.13214 3.26892,0 5.71177,-0.0446 7.32483,-0.13214 0,0.95257 -0.0875,1.75259 -0.25489,2.37772 -1.06793,0.0855 -1.84563,0.24 -2.32564,0.45025 -0.4428,0.21024 -0.75536,0.59536 -0.93024,1.17026 -0.16745,0.53769 -0.25304,1.40281 -0.25304,2.60099 v 12.75562 c 0,2.81123 0.60279,4.9843 1.80097,6.51178 1.24282,1.5256 3.28565,2.28842 6.14152,2.28842 0.93026,0 1.86052,-0.13019 2.79076,-0.40001 0.96002,-0.30514 1.75074,-0.74793 2.37029,-1.35073 0.76281,-0.68468 1.27817,-1.60005 1.54794,-2.74053 0.31256,-1.13304 0.46512,-2.87075 0.46512,-5.21128 v -10.28301 c 0,-1.4977 -0.10227,-2.63074 -0.30697,-3.40845 -0.17302,-0.78513 -0.50049,-1.35258 -0.98049,-1.70794 -0.48001,-0.3628 -1.2205,-0.58978 -2.21587,-0.67537 -0.17488,-0.83722 -0.26232,-1.62794 -0.26232,-2.37772 1.23536,0.0875 2.94331,0.13214 5.10894,0.13214 2.02795,0 3.71357,-0.0446 5.05871,-0.13214 0,0.80746 -0.10228,1.60003 -0.31257,2.37772 -0.82047,0.0855 -1.46049,0.31257 -1.90329,0.67537 -0.45211,0.32744 -0.76467,0.88002 -0.93025,1.65771 -0.17489,0.74792 -0.26233,1.86051 -0.26233,3.32845 z m -36.79521,-18.19017 c 2.03353,0 3.721,-0.0446 5.05685,-0.13213 0,1.04746 -0.0875,1.84003 -0.25304,2.37773 -0.82978,0.028 -1.46236,0.23999 -1.91259,0.6307 -0.41302,0.35721 -0.71816,0.9898 -0.93026,1.88284 -0.16744,0.90234 -0.25303,2.18796 -0.25303,3.86612 v 21.73816 c -0.75722,0.21024 -1.73771,0.31256 -2.943321,0.31256 L 78.749966,378.25876 v 14.18636 c 0,1.73586 0.102284,3.07357 0.305133,3.99636 0.210236,0.90049 0.567454,1.54794 1.082815,1.93306 0.55257,0.39258 1.330251,0.60281 2.325634,0.63259 0.204647,0.53768 0.305117,1.33026 0.305117,2.37586 -1.547936,-0.0875 -3.350768,-0.13019 -5.414072,-0.13019 -2.478198,0 -4.338702,0.0428 -5.574071,0.13019 0,-1.01769 0.08749,-1.80841 0.254878,-2.37586 1.002816,-0.0372 1.75818,-0.24001 2.273549,-0.63259 0.55257,-0.38512 0.930244,-1.03257 1.134908,-1.93306 0.240002,-0.92279 0.362797,-2.2605 0.362797,-3.99636 v -17.55945 l -0.362797,-0.40745 c -0.444667,-0.47257 -0.894906,-0.80559 -1.345152,-0.98793 -0.407449,-0.17488 -1.097698,-0.29768 -2.063305,-0.35535 -0.167446,-0.62514 -0.254878,-1.42515 -0.254878,-2.37773 1.09769,0.0875 2.645642,0.13213 4.643825,0.13213 1.685616,0 3.060527,-0.0446 4.12845,-0.13213 l 18.42273,21.46837 V 379.5146 c 0,-1.70793 -0.102274,-2.99355 -0.312563,-3.86612 -0.202793,-0.89304 -0.580479,-1.52563 -1.133049,-1.88284 -0.517223,-0.39071 -1.287471,-0.6028 -2.318184,-0.6307 -0.212098,-0.83724 -0.312567,-1.62795 -0.312567,-2.37773 1.510727,0.0875 3.298682,0.13213 5.363846,0.13213 z m 402.48689,-66.87029 -2.38523,3.20565 -22.60137,-0.5228 17.44219,7.48481 -0.77762,1.11258 0.0429,2.5061 c -16.73715,-3.4438 -31.35884,-1.18327 -39.91342,-17.30269 -3.29123,-6.19362 -3.4364,-13.93333 -5.24665,-20.6479 l -34.52911,32.22396 -6.90433,-2.3033 13.80866,23.02376 -18.41527,-11.51282 v 6.90434 h -2.29587 l -13.81607,-27.62292 h -2.29773 l 4.60104,23.02375 c -15.45151,-11.67281 -22.28329,-39.50783 -26.875,-57.75568 l -21.4684,11.71561 16.11943,52.94441 c -6.59922,-4.18613 -15.9464,-10.69792 -18.80226,-18.41715 -1.64842,-4.44661 0.96745,-9.21509 0.44279,-13.80867 -1.49584,-13.24866 -11.62072,-21.7214 -20.77625,-29.99321 -3.17031,-2.85588 -7.00667,-10.10069 -7.00667,-7.31736 -5.00662,16.87478 -21.57814,19.32321 -27.71968,25.7345 -8.17506,8.53973 -19.10554,9.90534 -29.73087,13.8738 l 23.0163,25.31961 c -20.16787,-5.16662 -37.55802,-24.2368 -50.6411,-39.12828 -4.58428,11.60582 -11.49606,20.18834 -23.0163,25.31961 v 2.30516 l 20.713,11.50351 v 2.30331 l -46.04007,-20.71859 4.60848,6.91177 C 165.8311,310.37081 169.807,307.08703 145.59064,287.0717 l -34.8547,29.55042 -15.546376,0.37025 16.774316,-7.42716 17.70271,-15.58917 18.22737,-10.55279 16.11199,12.66634 22.87863,8.9546 11.5128,4.09125 27.62293,-25.06473 22.5084,13.36401 25.31961,-9.97045 35.04449,-38.49758 32.22581,19.81997 23.02376,-5.69129 16.11199,12.8561 20.52324,10.48767 11.76583,9.91277 36.7673,-19.76044 25.32709,17.25992 23.01628,7.28946 z m 14.89148,-112.24802 c -0.89493,-0.17488 -1.95541,0 -2.83547,0.55257 -0.95256,0.6028 -1.27069,1.51259 -1.46792,2.38331 -0.2028,0.87257 -0.24746,1.81026 -0.18975,2.7982 0.11724,1.97772 0.60467,4.08381 1.60005,5.74896 0.44277,0.74792 1.4103,0.99538 2.15814,0.54513 0.74794,-0.45025 0.98798,-1.41771 0.53773,-2.15819 -0.5749,-0.96746 -1.05308,-2.77587 -1.14048,-4.3108 -0.0446,-0.7628 0.008,-1.46793 0.10784,-1.92561 0.10984,-0.45024 0.29951,-0.54514 0.0875,-0.41304 0.26982,-0.16745 0.3498,-0.16 0.54513,-0.1246 0.19723,0.0446 0.51727,0.18231 0.88745,0.48 0.74053,0.58792 1.57585,1.69306 2.23074,2.59541 0.61772,0.83536 1.32283,2.921 1.65027,4.7015 0.16746,0.89304 0.25303,1.72283 0.26791,2.26795 0.008,0.27536 -0.0152,0.49304 -0.0207,0.5377 0,0.0205 -0.008,0 0.043,-0.11722 0.0501,-0.10787 0.15258,-0.39258 0.58795,-0.62513 -0.77021,0.41489 -1.06049,1.37492 -0.63817,2.14516 0.41308,0.76281 1.37304,1.04559 2.13586,0.62512 0.51536,-0.27721 0.69031,-0.64001 0.80006,-0.88745 0.10045,-0.24744 0.15258,-0.43536 0.18044,-0.62514 0.0669,-0.37023 0.0724,-0.72744 0.0669,-1.12561 -0.0223,-0.79257 -0.13213,-1.74513 -0.31996,-2.77028 -0.37776,-2.04842 -0.98982,-4.32382 -2.21029,-5.99455 -0.65305,-0.8949 -1.56288,-2.19539 -2.81311,-3.19077 -0.61771,-0.50234 -1.35077,-0.9377 -2.25119,-1.11258 z m -6.26622,10.61046 c -0.85021,0.16745 -1.40281,0.99536 -1.23535,1.85307 0.56001,2.78331 2.77029,4.8187 4.87639,5.97408 0.60465,0.33489 0.75724,0.56745 1.17024,1.20747 0.42232,0.64001 1.03263,1.6205 2.188,2.64564 1.6279,1.44561 2.52841,3.67635 2.52841,3.67635 0.31256,0.8149 1.22978,1.2205 2.04282,0.90794 0.81494,-0.31258 1.22046,-1.22794 0.90791,-2.04099 0,0 -1.03072,-2.81308 -3.39359,-4.90615 -0.83532,-0.74047 -1.16276,-1.30049 -1.62789,-2.00562 -0.45766,-0.70513 -1.13309,-1.6205 -2.29585,-2.25308 -1.43258,-0.79258 -3.04569,-2.5433 -3.30802,-3.82333 -0.16555,-0.85769 -0.99538,-1.40841 -1.85307,-1.23538 z m 13.4161,45.41493 c -0.55811,0.30514 -0.76274,1.00468 -0.45766,1.56283 1.74513,3.18334 2.15823,4.56383 2.14517,5.3136 -0.008,0.3777 -0.10228,0.68282 -0.29958,1.18329 -0.19532,0.50979 -0.47812,1.17026 -0.74045,2.08748 -0.17486,0.61026 0.18234,1.24283 0.79258,1.41585 0.61023,0.17489 1.25024,-0.18046 1.42327,-0.79071 0.21211,-0.75723 0.44468,-1.30236 0.66977,-1.8754 0.21768,-0.57489 0.43537,-1.20746 0.45025,-1.97027 0.0351,-1.51817 -0.62512,-3.19076 -2.42048,-6.46711 -0.30516,-0.56 -1.00286,-0.7721 -1.56287,-0.45956 z m -2.26051,-9.41787 c -0.62321,-0.10228 -1.22047,0.32746 -1.31534,0.96002 -1.13309,7.03458 0.42231,9.68021 0.34232,12.19376 -0.0294,0.64 0.47254,1.17771 1.11254,1.20003 0.6326,0.015 1.16285,-0.48001 1.18331,-1.12003 0.10984,-3.35635 -1.42328,-5.29686 -0.36279,-11.91096 0.10228,-0.63257 -0.32744,-1.22048 -0.96004,-1.32282 z m -2.8838,-17.92225 c -0.41483,-0.0354 -0.82975,0.10228 -1.14978,0.37026 -0.66046,0.56 -0.86326,1.26513 -0.97302,1.83259 -0.10227,0.57304 -0.10227,1.0977 -0.10984,1.59817 -0.0207,1.0028 -0.12281,1.89027 -0.24554,2.13027 -0.70518,1.36563 -1.91261,3.05124 -5.65408,7.90717 -0.53956,0.6828 -0.41491,1.67816 0.2753,2.20841 0.69031,0.53769 1.68561,0.40745 2.21586,-0.2828 3.75079,-4.86895 5.0885,-6.66432 5.97412,-8.38716 0.66977,-1.3005 0.56742,-2.55819 0.58978,-3.51077 0.008,-0.48001 0.0279,-0.88561 0.0653,-1.10329 0.0429,-0.21953 0.0875,-0.14698 -0.10228,0.006 0.66237,-0.55816 0.74976,-1.54794 0.18975,-2.20842 -0.26974,-0.32001 -0.65489,-0.52281 -1.07537,-0.56003 z m -5.58889,42.7414 c -0.6326,0.0875 -1.06239,0.67537 -0.96753,1.30794 1.08286,7.52202 1.12003,11.59839 0.72008,13.20586 -0.16007,0.61025 0.21768,1.24283 0.83532,1.39538 0.61772,0.15814 1.25032,-0.21954 1.39541,-0.84466 0.59535,-2.38331 0.4298,-6.46713 -0.67534,-14.09148 -0.0876,-0.63257 -0.67542,-1.06792 -1.30794,-0.97304 z m -2.54337,-15.51661 c -0.62512,-0.1228 -1.22978,0.28278 -1.3526,0.90791 -0.62512,3.17589 -0.95256,6.41132 -1.053,9.05509 -0.0446,1.31537 -0.0374,2.48564 0.0207,3.43821 0.0653,0.95257 0.11724,1.6205 0.42231,2.29028 0.26792,0.57305 0.95265,0.82793 1.52563,0.56559 0.58238,-0.26791 0.82792,-0.95814 0.56002,-1.54049 0.008,0.0224 -0.15259,-0.61768 -0.2102,-1.46049 -0.0517,-0.84281 -0.0653,-1.94051 -0.0152,-3.20567 0.0948,-2.52097 0.40744,-5.66894 1.00279,-8.69971 0.12281,-0.62327 -0.2828,-1.22793 -0.90043,-1.35072 z m -2.15258,-4.41871 -2.84846,1.35259 c 0,0 0.34233,0.73304 0.68283,1.51073 0.16746,0.39257 0.34981,0.78514 0.46514,1.09026 0.0374,0.10229 0.0573,0.16745 0.08,0.24001 -0.008,0.0354 0,-0.0297 -0.0223,0.028 -0.0501,0.16744 -0.14518,0.42233 -0.29768,0.71256 -0.30516,0.58233 -0.80563,1.33026 -1.58333,2.05772 l 2.15822,2.29587 c 1.06042,-0.98793 1.75812,-2.02051 2.21586,-2.89866 0.22508,-0.44467 0.39995,-0.84468 0.51719,-1.20003 0.11541,-0.35536 0.19531,-0.60281 0.19531,-1.0605 0,-0.45768 -0.0799,-0.56 -0.13012,-0.74234 -0.0573,-0.18045 -0.12465,-0.3628 -0.19724,-0.55256 -0.15257,-0.38513 -0.32561,-0.82048 -0.50795,-1.23538 -0.36278,-0.83536 -0.7274,-1.59818 -0.7274,-1.59818 z m 5.06613,-5.39918 c -0.5023,0.0428 -0.81487,0.19535 -1.10514,0.34047 -0.57298,0.29768 -1.07537,0.66978 -1.61301,1.0549 -1.08286,0.77025 -2.32561,1.50329 -2.78335,1.57585 -0.86509,0.11721 -1.46792,0.92282 -1.33771,1.78796 0.12464,0.86512 0.93027,1.46049 1.78796,1.33025 1.65775,-0.24 2.84098,-1.22049 3.87361,-1.97585 -0.0501,0.36279 -0.08,0.6456 -0.15258,1.06792 -0.31256,1.7805 -0.76282,3.88102 -0.91539,5.62431 -0.15258,1.69305 -0.17487,3.79357 -0.0152,5.62617 0.08,0.91537 0.2028,1.74328 0.41492,2.48563 0.10784,0.3628 0.23256,0.71816 0.44277,1.07538 0.21769,0.3628 0.55253,0.81303 1.21307,1.03071 0.10984,0.0372 -0.12282,-0.20279 0.0724,0.18978 0.19724,0.38512 0.56002,1.21304 1.32283,2.13586 0.0597,0.08 0.40744,0.70512 0.69771,1.4977 0.29202,0.79258 0.58229,1.78796 0.82227,2.79076 0.49308,2.01308 0.77029,4.28103 0.73304,4.74615 -0.0653,0.88002 -0.33301,3.16845 -0.45017,5.39175 -0.0573,1.10514 -0.08,2.20283 -0.0152,3.19076 0.0724,0.98793 0.0724,1.82515 0.77762,2.761 1.32282,1.77492 4.2234,4.31824 4.2234,4.31824 0.64001,0.58047 1.63539,0.53024 2.22326,-0.11721 0.58238,-0.64561 0.53025,-1.64097 -0.11541,-2.22332 0,0 -3.02331,-2.82052 -3.80842,-3.85868 0.16747,0.22511 -0.10227,-0.32747 -0.15998,-1.09771 -0.0501,-0.76279 -0.0294,-1.77305 0.0223,-2.81308 0.11533,-2.07819 0.37018,-4.22149 0.44277,-5.31919 0.10785,-1.50514 -0.2847,-3.53868 -0.81495,-5.71919 -0.26042,-1.09026 -0.57298,-2.17307 -0.91531,-3.1182 -0.34049,-0.95259 -0.65305,-1.73027 -1.22795,-2.42796 -0.50788,-0.6177 -0.67534,-1.02515 -0.95256,-1.57027 -0.28279,-0.55071 -0.93028,-1.43073 -1.87543,-1.7433 0.40002,0.13019 0.4949,0.34792 0.4949,0.34792 0,0.007 -0.0653,-0.13019 -0.12281,-0.34047 -0.11716,-0.40745 -0.23257,-1.0977 -0.29768,-1.89028 -0.14692,-1.59073 -0.12456,-3.59635 0.008,-5.07174 0.1322,-1.41769 0.55261,-3.51076 0.88005,-5.35639 0.15998,-0.91537 0.30516,-1.77306 0.37026,-2.53028 0.0294,-0.37769 0.0446,-0.74049 0.0152,-1.10328 -0.0223,-0.36466 -0.0351,-0.75724 -0.42049,-1.30236 -0.38515,-0.54513 -1.23536,-0.82792 -1.73774,-0.79071 z m 4.26615,-36.73197 c -2.31821,-0.8056 -4.25866,0.10229 -5.61874,0.31256 -1.35817,0.20467 -2.27348,1.05492 -2.81861,1.71539 -0.27721,0.33489 -0.47262,0.64745 -0.61031,0.83537 -0.13212,0.19721 -0.39254,0.2921 0.14518,-0.028 -0.87258,0.5228 -0.85769,1.0605 -0.93768,1.41772 -0.08,0.36279 -0.0949,0.68279 -0.11724,1.0028 -0.0279,0.63815 -0.0351,1.29305 -0.0573,1.57585 0,0 0,0.007 0,0.007 -0.0949,1.0605 0.24745,1.73028 0.5023,2.39076 0.21769,0.54512 0.39812,0.91722 0.46514,1.04002 -0.008,0.10228 -0.008,0.2549 -0.0294,0.42047 -0.0429,0.39258 -0.12281,0.72002 -0.12281,1.23724 0,0.6028 0.58047,1.43818 1.06049,1.64841 0.35538,0.16 0.53024,0.14511 0.71259,0.14511 0.27531,0.47258 0.47254,0.8149 0.97302,1.92749 0.20471,0.45024 0.60283,0.78327 1.08285,0.89305 0.49483,0.11722 1.18514,0.12279 1.7079,-0.10228 0.26982,-0.10786 0.37774,-0.24001 0.5526,-0.35535 0.31257,0.21023 0.72,0.57489 1.14048,0.90048 -0.16746,-0.12279 -0.10784,-0.17302 -0.0724,0.0875 0.0374,0.25488 0.0294,0.67536 0.0294,1.14049 0,-0.37769 0.0351,-0.24559 -0.0223,-0.10046 -0.0501,0.13771 -0.15257,0.37023 -0.29767,0.64559 -0.28279,0.54512 -0.69771,1.26514 -1.14796,2.04284 -0.90791,1.54793 -1.96283,3.2782 -2.58794,4.52846 -1.35817,2.7182 -0.51537,4.92663 -0.51537,5.21686 0,-0.10786 -0.0573,0.37955 -0.18974,0.87258 -0.12282,0.4949 -0.29768,1.09025 -0.48003,1.6577 -0.1954,0.61025 -0.25302,0.74793 -0.39071,1.15538 -0.34233,0.007 -0.44469,0 -0.81487,0.028 -0.008,0 -0.008,0 -0.008,0 -0.26791,0.0296 -0.59543,0.0875 -0.9731,0.34232 -0.37026,0.2549 -0.69022,0.79257 -0.74228,1.23538 -0.0279,0.2772 0.10228,0.2772 0.13769,0.45023 -0.48559,0.16001 -0.92279,0.26235 -1.45311,0.53025 -0.53017,0.26233 -1.00279,0.61212 -1.35069,1.12004 -0.34972,0.51534 -0.52467,1.22048 -0.42231,1.85305 0.13022,0.80002 0.83533,1.13305 1.38793,1.59259 l -0.82792,2.05588 c -0.33493,0.13771 -0.56749,0.22511 -1.20749,0.50232 -0.9805,0.42792 -1.94612,0.79817 -2.75358,1.40282 -1.1256,0.85025 -1.14788,1.99819 -1.21299,2.71634 -0.0669,0.72746 -0.26233,1.29491 -0.08,1.01024 0.13021,-0.21022 0.0351,-0.0502 -0.36469,0.0726 -0.20273,0.067 -0.43529,0.13215 -0.73296,0.24 -0.29028,0.1023 -0.67543,0.2121 -1.11263,0.72747 0,0 -0.008,0 -0.008,0 -0.23257,0.28279 -0.42049,0.72746 -0.42049,1.1777 0,0.45023 0.16747,0.82792 0.34798,1.08281 0.36462,0.50048 0.72748,0.66792 1.09026,0.83537 0.72739,0.32744 1.56279,0.47257 2.53024,0.47257 1.27817,0 2.34615,-0.50792 3.36381,-0.96746 0.0152,0.38513 0.008,0.37955 0.0294,0.81491 0.08,1.71538 0.18043,3.561 0.413,4.7387 0.1322,0.64558 0.45217,3.29123 0.74236,5.7415 0.1451,1.22795 0.2828,2.42611 0.41491,3.40102 0.12282,0.97304 0.19533,1.5777 0.3479,2.15075 0.21769,0.82791 0.59535,1.19259 0.99539,1.62794 0.40003,0.43536 0.85769,0.84281 1.29306,1.22048 0.53207,0.45768 0.71999,0.58235 1.04003,0.82236 v 9.17786 c 0,2.01308 1.16277,3.62799 2.15814,5.02337 0.46515,0.6456 0.56001,0.70513 0.9154,1.13304 -0.74793,0.72747 -1.49586,1.75818 -1.49586,3.29869 0,0.80747 0.60283,1.48282 1.4103,1.56282 l 20.34834,2.22517 c 0.73489,0.0856 1.43259,-0.34978 1.67073,-1.04746 0,0 0.40743,-1.18514 0.95997,-2.47077 0.27721,-0.64745 0.58237,-1.30792 0.87256,-1.82516 0.29028,-0.51535 0.64748,-0.89304 0.5675,-0.83534 0.39071,-0.2977 0.73304,-0.78515 0.86326,-1.27818 0.13212,-0.48746 0.0875,-0.93026 0.0152,-1.30794 -0.15998,-0.74978 -0.46505,-1.34515 -0.80555,-2.05771 -0.68465,-1.42329 -1.57776,-3.20379 -2.18051,-5.65408 -0.60283,-2.45586 -1.06797,-6.32944 -1.30237,-9.7751 -0.11541,-1.72282 -0.17304,-3.34333 -0.18043,-4.65127 -0.0152,-1.30049 0.0573,-2.36097 0.10227,-2.59354 0.10785,-0.56745 0.078,-1.04002 0.0501,-1.68004 -0.0294,-0.63815 -0.0876,-1.39538 -0.17494,-2.24563 -0.17486,-1.7005 -0.44278,-3.7638 -0.71251,-5.85687 -0.26791,-2.09306 -0.53773,-4.20102 -0.72564,-5.96664 -0.19724,-1.76002 -0.29211,-3.25588 -0.26234,-3.72845 0.17494,-2.68844 1.50517,-6.75921 1.50517,-9.92021 0,-1.65028 -0.4372,-4.52102 -0.87257,-7.41225 -0.44277,-2.90054 -0.91539,-5.80851 -0.9805,-6.53411 -0.14701,-1.54049 -1.0698,-2.59541 -1.79536,-3.38054 -0.72748,-0.78327 -1.30054,-1.41583 -1.43259,-1.72839 -0.51535,-1.25772 -1.50334,-2.45775 -2.4559,-3.87358 -0.96004,-1.41027 -1.81773,-2.96565 -1.96282,-3.64102 -0.35539,-1.73026 -1.45305,-3.04564 -2.61589,-4.06334 -1.16276,-1.0177 -2.3982,-1.74329 -3.48845,-2.12283 z m -1.04743,2.98054 c 0.56001,0.18977 1.61493,0.77024 2.45773,1.51073 0.8428,0.74235 1.46044,1.63539 1.60562,2.32561 0.35531,1.73774 1.43258,3.2931 2.44285,4.78337 1.01026,1.49027 2.01862,2.98611 2.15074,3.29868 0.52277,1.25771 1.4158,1.99818 2.04091,2.67541 0.6252,0.67536 0.92471,1.17025 0.95264,1.52562 0.10984,1.17026 0.56742,3.8438 1.00279,6.71457 0.4372,2.87074 0.8428,5.95361 0.8428,6.94154 0,2.12841 -1.2707,6.32199 -1.48838,9.71742 -0.0741,1.0456 0.0653,2.46331 0.26792,4.27172 0.19722,1.81026 0.47253,3.94055 0.74235,6.02617 0.26043,2.08562 0.52277,4.14148 0.69022,5.77686 0.0799,0.82236 0.1451,1.53307 0.17304,2.08564 0.0223,0.54514 -0.0207,0.98234 -0.0127,0.93026 -0.15259,0.82234 -0.16747,1.82515 -0.15259,3.20564 0.008,1.38794 0.0724,3.06611 0.19532,4.83918 0.24005,3.56285 0.68283,7.48667 1.38053,10.31278 0.69023,2.82796 1.74514,4.90616 2.3982,6.26618 0.29768,0.61769 0.45766,1.02328 0.5172,1.21306 -0.40744,0.4279 -0.7777,0.85024 -1.06233,1.35816 -0.37766,0.67722 -0.71816,1.41771 -1.01766,2.12284 -0.3405,0.79257 -0.40561,1.00281 -0.58796,1.50515 l -16.82454,-1.83259 c 0.0501,-0.015 0.17486,-0.24747 0.17486,-0.24747 1.07537,-0.38512 1.40281,-1.73585 0.61772,-2.56377 0,0 -0.87258,-0.94512 -1.73775,-2.1526 -0.86508,-1.21305 -1.57027,-2.80564 -1.57027,-3.18332 v -9.94068 c 0,-0.50235 -0.23815,-0.97492 -0.64557,-1.26516 0,0 -0.74236,-0.53768 -1.4903,-1.18513 -0.37766,-0.32746 -0.74784,-0.67537 -1.01018,-0.95817 -0.26233,-0.28466 -0.37026,-0.60465 -0.29028,-0.31256 0.0152,0.0502 -0.13021,-0.79258 -0.25485,-1.73771 -0.12281,-0.95259 -0.26799,-2.1433 -0.41492,-3.37124 -0.29027,-2.44285 -0.55818,-4.87824 -0.78326,-5.9964 -0.11724,-0.58235 -0.26983,-2.58053 -0.34981,-4.2587 -0.0799,-1.68004 -0.11541,-3.14798 -0.11541,-3.14798 -0.0294,-1.17584 -1.3023,-1.91074 -2.33302,-1.33585 0,0 -0.7777,0.42793 -1.73033,0.85771 -0.34973,0.15255 -0.50788,0.16558 -0.86509,0.28279 0.18235,-0.61769 0.34981,-1.27258 0.38515,-1.67818 0.0573,-0.57489 0.24745,-0.70513 -0.0351,-0.4949 0,0 0.008,0 0.008,0 0.0429,-0.0296 1.1907,-0.63257 2.11349,-1.04002 0.9228,-0.39814 1.75263,-0.72559 1.75263,-0.72559 0.39254,-0.15999 0.71068,-0.47257 0.87074,-0.86514 l 1.01018,-2.49306 c 0.095,-0.0502 0.41492,-0.21024 0.41492,-0.21024 0,0 0.49491,-0.59723 0.49491,-0.59723 0,0 0.15257,-0.73304 0.15257,-0.73304 0,0 -0.10227,-0.48001 -0.10227,-0.48001 0,0 -0.12281,-0.2679 -0.12281,-0.2679 0,0 -0.18235,-0.24747 -0.18976,-0.24747 0,0 -0.0724,-0.0875 -0.10235,-0.11721 -0.11533,-0.10047 -0.15998,-0.12278 -0.20272,-0.15255 -0.34233,-0.23257 -0.56749,-0.34048 -0.56749,-0.34048 -0.08,-0.007 -0.15999,-0.015 -0.23997,-0.015 -0.08,-0.0446 -0.0724,-0.0372 -0.18052,-0.0875 0.47262,-0.19536 1.01027,-0.38513 1.50334,-0.53771 0.31256,-0.0875 0.5749,-0.15255 0.90234,-0.29767 0.16738,-0.0652 0.34789,-0.0372 0.7777,-0.57489 0.0501,-0.0652 0.10785,-0.14513 0.15998,-0.24745 0.0573,-0.10046 0.13769,-0.34792 0.13769,-0.34792 0,-0.007 -0.008,-0.18978 -0.0152,-0.34977 0.51536,-0.0726 0.96005,-0.38513 1.20001,-0.85025 0,0 0.37774,-1.0605 0.76282,-2.26053 0.18792,-0.60279 0.37026,-1.24094 0.52284,-1.82328 0.15258,-0.58792 0.29019,-1.03257 0.29019,-1.6577 0,-1.83074 -0.7125,-2.00564 0.18235,-3.80102 0.50047,-1.01025 1.55539,-2.76844 2.48567,-4.35173 0.45765,-0.79257 0.90043,-1.54235 1.23535,-2.18796 0.16747,-0.32744 0.30516,-0.62512 0.42049,-0.90792 0.11724,-0.2921 0.24745,-0.49489 0.24745,-1.08467 0,-0.37769 0.0374,-0.93026 -0.0501,-1.57585 -0.0876,-0.64002 -0.32004,-1.51259 -1.11263,-2.13028 -0.20279,-0.16001 -0.74044,-0.65305 -1.37304,-1.07538 -0.31256,-0.21023 -0.66237,-0.42047 -1.16277,-0.55256 -0.4224,-0.10787 -1.06797,0.0149 -1.62798,0.29768 -0.28279,-0.61769 -0.56001,-1.29306 -0.96004,-1.85307 -0.18044,-0.26047 -0.4353,-0.45768 -0.72557,-0.56559 -0.0374,-0.015 -0.0223,0 -0.0517,-0.015 0.008,-0.13773 0.0223,-0.26978 0.0294,-0.42234 0.008,-0.24745 0.10984,-0.41303 -0.15258,-1.03816 -0.16747,-0.39256 -0.34233,-0.71258 -0.53765,-1.21491 -0.20471,-0.50792 -0.27722,-1.14792 -0.29027,-0.95816 0.0501,-0.58978 0.0351,-1.20747 0.0653,-1.68749 0.008,-0.21023 0.0279,-0.35534 0.0351,-0.43535 0.0597,-0.0948 0.26234,-0.24745 0.32004,-0.32745 0.15251,-0.22512 0.30508,-0.4428 0.45766,-0.63258 0.30508,-0.37023 0.56742,-0.55815 0.85021,-0.6028 1.93314,-0.29024 3.12567,-0.78513 4.09869,-0.4428 z m -7.91276,35.03703 c 0.12281,0.10229 0.22517,0.26978 0.38515,0.3628 -0.0741,-0.0428 -0.16746,-0.1154 -0.2847,-0.23255 -0.0351,-0.0354 -0.0724,-0.0875 -0.10045,-0.1302 z m 4.66428,53.8449 -8.45223,7.3769 c -0.26051,0.23256 -0.44286,0.54512 -0.50796,0.8949 l -0.53025,2.87076 3.1033,0.5656 0.42049,-2.32563 8.03183,-7.01224 z m 1.12002,-0.39256 c -0.90791,-0.0502 -1.67255,0.66977 -1.67255,1.57769 v 10.46535 h 3.15544 v -8.80019 l 20.28316,1.11816 -0.22508,9.4123 3.14611,0.08 0.26974,-10.94535 c 0.0152,-0.85026 -0.63999,-1.56282 -1.49028,-1.60563 z m -10.8802,19.94275 -0.10044,3.15541 47.07077,1.61306 0.10983,-3.15541 z m -1.62798,-6.95457 v 8.04483 l -7.0643,10.53046 2.63077,1.76003 7.31923,-10.93046 c 0.17487,-0.25489 0.26974,-0.56002 0.26974,-0.87259 v -8.53227 z m 25.46662,9.56485 c -8.14716,-0.5749 -17.25436,0.16001 -24.13631,2.62332 -0.18235,0.0652 -0.35539,0.16744 -0.50048,0.29769 -0.27722,0.24 -1.24284,0.90048 -1.9052,2.1005 -0.66786,1.19817 -0.9879,2.90612 -0.58788,5.13686 l 3.3787,1.00467 -0.26791,-1.54794 c -0.30515,-1.70794 -0.0517,-2.53773 0.23249,-3.06053 0.23257,-0.40745 0.57307,-0.66792 0.95074,-0.98793 6.20669,-2.17308 14.92126,-2.97308 22.61816,-2.42795 3.89406,0.26976 7.52203,0.87257 10.40583,1.73027 2.88562,0.85767 5.00103,2.04841 5.8736,3.081 l 1.01583,1.20002 1.38984,-3.24287 c -1.59263,-1.88841 -4.18058,-3.11077 -7.36946,-4.05404 -3.19826,-0.95257 -7.02904,-1.57026 -11.09795,-1.8605 z m -8.10434,11.18351 c -3.51639,0.25489 -7.24482,0.90978 -10.9305,2.14516 l -1.49586,0.50048 1.00287,2.98796 1.50325,-0.50233 c 6.77411,-2.2754 13.911,-2.40564 19.23016,-1.80283 2.66054,0.29769 4.86151,0.78514 6.29408,1.23538 0.34981,0.10982 0.46515,0.17488 0.7126,0.2772 l 2.70335,1.61307 0.71259,-1.41026 c 0.18792,-0.37025 0.21761,-0.86513 0.12273,-1.2205 -0.0948,-0.35535 -0.25485,-0.58791 -0.39995,-0.75536 -0.29027,-0.34234 -0.54512,-0.4949 -0.82051,-0.66234 -0.56742,-0.32 -1.23536,-0.58048 -2.08565,-0.85025 -1.693,-0.53769 -4.05586,-1.03815 -6.88943,-1.35817 -2.83539,-0.32001 -6.14899,-0.45768 -9.65973,-0.19721 z m -15.74178,-22.32607 c -0.51536,-0.007 -1.00278,0.22512 -1.30794,0.64002 l -7.89222,10.56766 c -0.21769,0.30513 -0.32744,0.66793 -0.30516,1.04561 l 0.56749,8.87461 c 0.0501,0.83537 0.74045,1.49026 1.57585,1.48282 h 4.92104 c 0.34042,0.71071 0.65306,1.67818 2.36095,3.14613 1.72286,1.47537 2.74052,1.1777 3.8159,1.21305 v 72.24715 h 3.1536 v -73.25742 c 0,-0.94327 -0.82051,-1.67817 -1.75818,-1.56096 0,0 -1.73584,0.18048 -3.16102,-1.04746 -1.68561,-1.43818 -2.22333,-2.8931 -2.22333,-2.8931 -0.23997,-0.61024 -0.82235,-1.01025 -1.47533,-1.01025 h -4.1657 l -0.42789,-6.81689 7.0569,-9.45509 44.48466,1.0698 0.21767,6.88201 -5.47921,5.87175 c -0.15998,0.16745 -0.27722,0.37025 -0.35531,0.58792 0,0 -1.12749,3.52567 -1.94053,5.70617 -0.13952,0.35536 -0.93768,0.97304 -1.92001,1.33026 -0.9805,0.35536 -1.88101,0.47815 -1.88101,0.47815 -0.79997,0.10982 -1.38976,0.80002 -1.37488,1.60004 l 2.00001,96.74629 0.0279,1.57027 3.15361,-0.0596 -0.0279,-1.57585 -1.97771,-95.50348 c 0.45018,-0.10227 0.55253,-0.067 1.16276,-0.2921 1.3452,-0.48559 3.08286,-1.28561 3.78614,-3.18332 0.82234,-2.18609 1.76002,-5.11638 1.87535,-5.50151 l 5.69873,-6.09688 c 0.28288,-0.30512 0.43537,-0.70513 0.42049,-1.11817 l -0.27531,-9.02716 c -0.0294,-0.83538 -0.70519,-1.50516 -1.54799,-1.52563 z m 5.88666,29.78298 c -68.56891,51.53414 -356.29425,-18.34273 -413.504788,12.0356 53.526748,-27.92246 335.633358,48.23548 413.504788,-12.0356 z"
         style="fill:#ffffff;fill-opacity:1;fill-rule:nonzero;stroke:none;stroke-width:1.8605" /></g></g></svg>
