<?xml version="1.0" encoding="UTF-8" standalone="no"?>
<!-- Created with Inkscape (http://www.inkscape.org/) -->

<svg
   width="91.291382mm"
   height="46.764801mm"
   viewBox="0 0 91.291382 46.764801"
   version="1.1"
   id="svg5"
   xml:space="preserve"
   xmlns="http://www.w3.org/2000/svg"
   xmlns:svg="http://www.w3.org/2000/svg"><defs
     id="defs2"><rect
       x="166.54997"
       y="171.96622"
       width="541.62592"
       height="218.00443"
       id="rect6290-8-9-07-0-8-4-5-6-7-5" /></defs><g
     id="layer1"
     transform="translate(-17.704218,-135.36761)"><g
       id="g9197"
       style="stroke:#ffffff;stroke-opacity:1"><path
         id="path5231-6-0"
         style="fill:none;stroke-width:0.505182;stroke-linecap:round;stroke-linejoin:round;stroke-miterlimit:3.6;paint-order:stroke fill markers"
         d="m 45.698762,145.60155 a 4.4841247,4.4841247 0 0 1 -4.484124,4.48412 4.4841247,4.4841247 0 0 1 -4.484125,-4.48412 4.4841247,4.4841247 0 0 1 4.484125,-4.48413 4.4841247,4.4841247 0 0 1 4.484124,4.48413 z" /><g
         id="g9173"
         style="stroke:#ffffff;stroke-opacity:1"><path
           style="fill:none;fill-opacity:1;stroke:#ffffff;stroke-width:0.597923;stroke-linecap:square;stroke-linejoin:round;stroke-miterlimit:3.6;stroke-dasharray:none;stroke-opacity:1;paint-order:stroke fill markers"
           d="m 106.61647,180.06365 -0.37837,-18.34453 c 0,0 0.80171,-0.10678 0.96203,-0.53446 0.16031,-0.42756 0.37412,-1.09563 0.37412,-1.09563 l 1.12239,-1.20254 -0.0535,-1.71027 -8.872049,-0.21379 -1.49647,2.00424 0.10678,1.68355 h 1.06892 c 0,0 0.13365,0.34739 0.50774,0.66807 0.374129,0.32067 0.828419,0.26723 0.828419,0.26723 v 13.59128"
           id="path31867-2-7-4-8" /><path
           style="fill:none;fill-opacity:1;stroke:#ffffff;stroke-width:0.597923;stroke-linecap:square;stroke-linejoin:round;stroke-miterlimit:3.6;stroke-dasharray:none;stroke-opacity:1;paint-order:stroke fill markers"
           d="m 100.78647,161.58552 c 2.68226,-0.89881 5.56663,-0.0954 5.45163,0.13364"
           id="path31869-1-7-7-5" /><path
           style="fill:none;fill-opacity:1;stroke:#ffffff;stroke-width:0.597923;stroke-linecap:square;stroke-linejoin:round;stroke-miterlimit:3.6;stroke-dasharray:none;stroke-opacity:1;paint-order:stroke fill markers"
           d="m 99.450361,160.65022 c -0.13348,-0.74826 0.21717,-0.95865 0.37421,-1.09566 2.484159,-0.88877 6.814499,-0.57504 7.749679,0.53447"
           id="path31871-4-6-0-3" /><path
           style="fill:none;fill-opacity:1;stroke:#ffffff;stroke-width:0.597923;stroke-linecap:butt;stroke-linejoin:round;stroke-miterlimit:3.6;stroke-dasharray:none;stroke-opacity:1;paint-order:stroke fill markers"
           d="m 99.771081,156.96243 v 1.61673 l -1.38969,2.07106"
           id="path31873-8-8-1-2" /><path
           style="fill:none;fill-opacity:1;stroke:#ffffff;stroke-width:0.597923;stroke-linecap:butt;stroke-linejoin:round;stroke-miterlimit:3.6;stroke-dasharray:none;stroke-opacity:1;paint-order:stroke fill markers"
           d="m 99.771081,158.57916 8.925559,0.30733"
           id="path31875-4-7-6-4" /><path
           style="fill:none;fill-opacity:1;stroke:#ffffff;stroke-width:0.597923;stroke-linecap:butt;stroke-linejoin:round;stroke-miterlimit:3.6;stroke-dasharray:none;stroke-opacity:1;paint-order:stroke fill markers"
           d="m 101.82632,156.78179 v -1.98407 l 4.45001,0.24565 -0.05,2.07461"
           id="path31877-6-2-2-3" /><path
           style="fill:none;fill-opacity:1;stroke:#ffffff;stroke-width:0.597923;stroke-linecap:butt;stroke-linejoin:round;stroke-miterlimit:3.6;stroke-dasharray:none;stroke-opacity:1;paint-order:stroke fill markers"
           d="m 101.82632,154.79772 -1.60146,1.3983 -0.0992,0.54326"
           id="path31881-6-6-7-9" /><path
           style="fill:none;fill-opacity:1;stroke:#ffffff;stroke-width:0.597673;stroke-linecap:butt;stroke-linejoin:round;stroke-miterlimit:3.6;stroke-dasharray:none;stroke-opacity:1;paint-order:stroke fill markers"
           d="m 101.52736,154.57251 c 0,-0.42936 0.40832,-0.57634 0.40832,-0.57634 0,0 -0.70817,-0.7616 -0.70817,-1.21589 v -1.88398 c 0,0 -0.58791,-0.42756 -0.64135,-0.628 -0.0535,-0.20042 -0.21379,-1.79044 -0.28058,-2.12449 -0.0668,-0.33402 -0.0935,-1.45639 -0.0935,-1.45639 0,0 -0.627969,0.34739 -0.921919,0.34739 -0.29396,0 -0.50773,-0.10679 -0.44095,-0.18705 0.0669,-0.0801 0.34739,-0.0801 0.44095,-0.22714 0.0935,-0.14705 0.0129,-0.50775 0.17368,-0.628 0.16031,-0.12018 0.801689,-0.37412 0.801689,-0.37412 l 0.28062,-0.69481 c 0,0 0.2405,0.13365 -0.0669,-0.0129 -0.30729,-0.14705 -0.34739,-0.37412 -0.0801,-0.50774 0.26724,-0.13365 0.64136,-0.18705 0.57456,-0.22714 -0.0669,-0.0401 -0.25388,-0.21378 -0.10678,-0.22715 0.1469,-0.0129 0.34741,-0.0129 0.34741,-0.0129 0,0 0.28057,-0.78835 0.28057,-0.98876 0,-0.20042 -0.14689,-0.42756 0.0668,-0.85515 0.21379,-0.42756 0.8017,-1.32278 0.8017,-1.48312 0,-0.16031 0.0129,-0.37413 -0.10679,-0.46766 -0.12019,-0.0935 -0.36081,-0.33404 -0.48102,-0.24051 -0.12019,0.0935 -0.15708,0.1274 -0.28076,0.0991 -0.12211,-0.26999 -0.16309,-0.37703 -0.26833,-0.52574 -0.0756,-0.0283 -0.22675,0.0236 -0.22675,-0.0567 0,-0.0803 0.0472,-0.33068 0.0235,-0.38737 -0.0235,-0.0567 -0.19367,-0.38737 -0.17949,-0.55271 0.0146,-0.16533 -0.005,-0.48656 0.0661,-0.52908 0.071,-0.0425 0.20315,-0.3921 0.51492,-0.43935 0.3118,-0.0471 0.60942,-0.1795 0.9212,-0.0709 0.31179,0.10859 0.86921,0.49129 0.96371,0.94952 0.0945,0.45825 0.7322,1.181 0.85504,1.47863 0.12276,0.29761 0.55688,0.52234 0.59026,0.8831 0.0332,0.36077 0.3498,2.11664 0.3498,2.61739 0,0.50073 -0.24564,1.28492 -0.28343,1.86126 -0.0376,0.57633 0.42517,3.25956 0.34958,3.65638 -0.0756,0.39682 0.0188,2.35256 0.26453,3.35406 0.24569,1.00148 0.74641,1.46444 0.51022,1.64394 -0.23619,0.17952 -0.55781,1.11306 -0.55781,1.11306 z"
           id="path31883-4-2-5-0" /><path
           style="fill:none;fill-opacity:1;stroke:#ffffff;stroke-width:0.597923;stroke-linecap:round;stroke-linejoin:round;stroke-miterlimit:3.6;stroke-dasharray:none;stroke-opacity:1;paint-order:stroke fill markers"
           d="m 100.63558,144.9791 c 0.42492,-0.0621 0.97277,-0.69675 1.08632,-0.53643 0.11361,0.16031 -0.16029,1.15243 -0.21378,1.75204 -0.0535,0.59959 -0.0129,1.56162 0.18706,1.62845 0.2004,0.0667 0.16031,0.24049 0.40085,0.53446 0.24051,0.29394 0.52108,1.54993 0.49435,1.92404 -0.0266,0.37413 -0.20039,1.68357 0,1.95078 0.20045,0.26724 0.76164,0.77498 0.76164,0.77498"
           id="path31885-4-0-8-0" /><path
           style="fill:none;fill-opacity:1;stroke:#ffffff;stroke-width:0.597923;stroke-linecap:butt;stroke-linejoin:round;stroke-miterlimit:3.6;stroke-dasharray:none;stroke-opacity:1;paint-order:stroke fill markers"
           d="m 100.21204,146.68742 c 0.34738,-0.32737 0.46101,-0.67477 0.46101,-0.7616 0,-0.087 -0.26729,-0.65473 -0.26729,-0.65473"
           id="path31887-5-7-7-3" /><path
           style="fill:none;fill-opacity:1;stroke:#ffffff;stroke-width:0.436323;stroke-linecap:round;stroke-linejoin:round;stroke-miterlimit:3.6;stroke-dasharray:none;stroke-opacity:1;paint-order:stroke fill markers"
           d="m 101.04212,146.19471 c -0.23175,1.17685 -0.24564,2.42401 -0.13235,2.66964"
           id="path31889-9-7-8-2" /><path
           style="fill:none;fill-opacity:1;stroke:#ffffff;stroke-width:0.436323;stroke-linecap:round;stroke-linejoin:round;stroke-miterlimit:3.6;stroke-dasharray:none;stroke-opacity:1;paint-order:stroke fill markers"
           d="m 101.5979,149.13906 c 0.20789,1.43611 0.2268,2.21085 0.13236,2.58878"
           id="path31891-0-8-9-0" /><path
           style="fill:none;fill-opacity:1;stroke:#ffffff;stroke-width:0.597923;stroke-linecap:round;stroke-linejoin:round;stroke-miterlimit:3.6;stroke-dasharray:none;stroke-opacity:1;paint-order:stroke fill markers"
           d="m 101.31947,143.62547 c 0.71046,-0.92124 0.9522,-1.25192 1.10271,-1.5448 0.15044,-0.29289 0,-0.81253 0.17886,-0.96369"
           id="path31893-9-9-9-0" /><path
           style="fill:none;fill-opacity:1;stroke:#ffffff;stroke-width:0.436323;stroke-linecap:round;stroke-linejoin:round;stroke-miterlimit:3.6;stroke-dasharray:none;stroke-opacity:1;paint-order:stroke fill markers"
           d="m 103.1396,144.43323 c -0.20789,1.29438 0.085,1.72899 0.0661,2.28641"
           id="path31895-7-4-4-2" /><path
           style="fill:none;fill-opacity:1;stroke:#ffffff;stroke-width:0.436323;stroke-linecap:round;stroke-linejoin:round;stroke-miterlimit:3.6;stroke-dasharray:none;stroke-opacity:1;paint-order:stroke fill markers"
           d="m 103.70646,146.19471 c 0.67083,1.2241 0.40628,1.15796 0.22674,1.79099"
           id="path31897-4-8-4-4" /><path
           style="fill:none;fill-opacity:1;stroke:#ffffff;stroke-width:0.597923;stroke-linecap:round;stroke-linejoin:round;stroke-miterlimit:3.6;stroke-dasharray:none;stroke-opacity:1;paint-order:stroke fill markers"
           d="m 101.11625,137.68511 c 0.077,0.38487 0.4408,0.74389 0.77618,0.92814 0.33542,0.18424 0.31178,0.4346 0.68971,0.77001 0.37792,0.3354 0.56216,0.81253 0.56216,0.81253"
           id="path31899-4-3-6-0" /><path
           style="fill:none;fill-opacity:1;stroke:#ffffff;stroke-width:0.597923;stroke-linecap:round;stroke-linejoin:round;stroke-miterlimit:3.6;stroke-dasharray:none;stroke-opacity:1;paint-order:stroke fill markers"
           d="m 101.95272,137.40493 c -0.29764,-0.49815 -0.36638,-1.4891 -0.0839,-1.66729 0.43427,-0.27391 0.84644,0.29403 1.09566,0.63467 0.34741,0.4749 0.50126,1.65835 0.38082,1.72366"
           id="path31901-9-1-4-0" /><path
           style="fill:none;fill-opacity:1;stroke:#ffffff;stroke-width:0.411111;stroke-linecap:round;stroke-linejoin:round;stroke-miterlimit:3.6;stroke-dasharray:none;stroke-opacity:1;paint-order:stroke fill markers"
           d="m 24.773267,164.84185 c 5.440035,-2.72138 74.891854,5.43701 76.013233,0.48315"
           id="path5233-3-6" /></g></g><g
       id="g9205"><path
         style="fill:#ffffff;fill-opacity:1;stroke:none;stroke-width:0.436486;stroke-opacity:1"
         d="m 99.421535,156.66347 -0.451337,0.60827 -4.285938,-0.0997 2.605267,1.35532 0.258618,0.73953 c -3.173132,-0.65342 -5.642533,-0.21359 -7.264213,-3.26943 -0.623432,-1.17459 -0.65159,-2.64206 -0.99423,-3.91616 l -6.547302,6.11081 -1.30946,-0.43648 2.61892,4.36486 -3.491899,-2.18243 v 1.30946 h -0.436476 l -2.618921,-5.23784 h -0.436497 l 0.872979,4.36487 c -2.930008,-2.21212 -4.224398,-7.49075 -5.096509,-10.95034 l -4.069714,2.2206 3.055397,10.0392 c -1.250085,-0.7931 -3.022651,-2.02836 -3.564775,-3.4919 -0.312076,-0.84372 0.183754,-1.74769 0.08512,-2.61892 -0.285028,-2.51111 -2.203823,-4.11868 -3.940611,-5.68654 -0.600588,-0.54168 -1.328383,-1.91504 -1.328383,-1.38808 -0.949931,3.20076 -4.09102,3.66435 -5.25512,4.87997 -1.550832,1.61893 -3.622832,1.87776 -5.638093,2.63114 l 4.364861,4.80135 c -3.824495,-0.98035 -7.122582,-4.5962 -9.602697,-7.42027 -0.869485,2.20164 -2.179818,3.82799 -4.364879,4.80135 v 0.43649 l 3.928376,2.18243 v 0.43649 l -8.729725,-3.92838 0.872974,1.30946 c -3.11914,-0.76036 -2.3656,-1.38354 -6.957713,-5.17845 l -6.6096,5.60272 -2.947326,0.0713 3.18128,-1.40824 3.356489,-2.95629 3.455666,-2.00042 3.055402,2.40068 4.338808,1.69834 2.18244,0.77607 5.237836,-4.7529 4.267955,2.53424 4.801359,-1.89129 6.644192,-7.29937 6.110804,3.75858 4.364868,-1.07899 3.055401,2.43734 3.892021,1.9882 2.230937,1.87951 6.97164,-3.7468 4.80136,3.27365 4.364868,1.38235 z"
         id="path5177-1-0" /><g
         aria-label="NUOVA PROLOCO  "
         transform="matrix(0.39130061,0,0,0.34056085,-47.907522,109.65046)"
         id="text6288-4-8-9-4-9-9-9-2-7-1"
         style="font-weight:600;font-size:25.006px;font-family:'Vollkorn SC';-inkscape-font-specification:'Vollkorn SC, Semi-Bold';letter-spacing:0px;white-space:pre;shape-inside:url(#rect6290-8-9-07-0-8-4-5-6-7-5);display:inline;fill:#ffffff;stroke-width:1.24346;stroke-linecap:round;stroke-linejoin:round;stroke-miterlimit:3.6;paint-order:stroke fill markers"><path
           d="m 181.47936,175.27802 q 1.47536,0 2.45059,-0.075 0,0.87521 -0.12503,1.32532 -0.60014,0.025 -0.92522,0.35008 -0.30007,0.30007 -0.45011,1.05025 -0.12503,0.75018 -0.12503,2.15052 v 12.1029 q -0.55013,0.17505 -1.42534,0.17505 L 171.05186,179.379 v 7.9019 q 0,1.45035 0.15004,2.22553 0.15003,0.75018 0.52512,1.07526 0.4001,0.32508 1.12527,0.35008 0.15004,0.45011 0.15004,1.32532 -1.12527,-0.075 -2.62563,-0.075 -1.80043,0 -2.70065,0.075 0,-0.8502 0.12503,-1.32532 0.72518,-0.025 1.10027,-0.35008 0.40009,-0.32508 0.55013,-1.07526 0.17504,-0.77518 0.17504,-2.22553 v -9.77735 l -0.17504,-0.22505 q -0.32508,-0.4001 -0.65016,-0.55013 -0.30007,-0.15004 -1.00024,-0.20005 -0.12503,-0.52513 -0.12503,-1.32532 0.80019,0.075 2.25054,0.075 1.2253,0 2.00048,-0.075 l 8.92714,11.95287 v -7.0767 q 0,-1.42534 -0.15003,-2.15052 -0.15004,-0.75018 -0.55013,-1.05025 -0.37509,-0.32508 -1.12527,-0.35008 -0.15004,-0.70017 -0.15004,-1.32532 1.10026,0.075 2.60062,0.075 z"
           id="path265" /><path
           d="m 199.30864,185.40545 q 0,2.27554 -0.30008,3.52584 -0.30007,1.2503 -1.15027,2.0755 -1.40034,1.40034 -4.151,1.40034 -2.35056,0 -3.72589,-0.65016 -1.35033,-0.67516 -1.95047,-2.00048 -0.57514,-1.32532 -0.57514,-3.40081 v -7.4768 q 0,-0.97523 -0.12503,-1.42534 -0.12503,-0.47511 -0.4251,-0.65016 -0.30007,-0.17504 -0.97523,-0.27506 -0.15004,-0.47512 -0.15004,-1.32532 1.00024,0.075 3.02573,0.075 2.37557,0 3.55085,-0.075 0,0.80019 -0.12503,1.32532 -0.77519,0.075 -1.12527,0.25006 -0.32508,0.17504 -0.45011,0.65015 -0.12503,0.45011 -0.12503,1.45035 v 7.10171 q 0,2.35056 0.87521,3.62587 0.90022,1.2753 2.97571,1.2753 0.67517,0 1.35033,-0.22505 0.70017,-0.25006 1.15027,-0.75018 0.55014,-0.57514 0.75018,-1.52537 0.22506,-0.95023 0.22506,-2.90069 v -5.72638 q 0,-1.2503 -0.15004,-1.90045 -0.12503,-0.65016 -0.47511,-0.95023 -0.35009,-0.30007 -1.07526,-0.37509 -0.12503,-0.70017 -0.12503,-1.32532 0.90022,0.075 2.47559,0.075 1.47536,0 2.45059,-0.075 0,0.67516 -0.15003,1.32532 -0.60015,0.075 -0.92523,0.37509 -0.32507,0.27506 -0.4501,0.92522 -0.12503,0.62515 -0.12503,1.85044 z"
           id="path267" /><path
           d="m 211.13647,192.40713 q -2.5006,0 -4.40106,-1.12527 -1.87545,-1.12527 -2.9257,-3.10075 -1.02524,-2.00048 -1.02524,-4.50108 0,-2.55061 1.07525,-4.50108 1.10027,-1.95046 3.00072,-3.02572 1.90046,-1.10027 4.27603,-1.10027 2.42558,0 4.32604,1.07526 1.92546,1.07526 2.97571,3.00072 1.07526,1.92546 1.07526,4.45107 0,2.5006 -1.07526,4.52609 -1.05025,2.00048 -2.95071,3.15075 -1.90045,1.15028 -4.35104,1.15028 z m 0.45011,-1.42534 q 1.42534,0 2.47559,-0.87521 1.05025,-0.87521 1.60039,-2.40058 0.57513,-1.55037 0.57513,-3.50084 0,-2.15052 -0.72517,-3.92594 -0.70017,-1.77543 -1.97547,-2.80067 -1.27531,-1.05026 -2.87569,-1.05026 -1.32532,0 -2.37557,0.8252 -1.05026,0.80019 -1.6504,2.30055 -0.57514,1.50036 -0.57514,3.47584 0,2.12551 0.65016,3.95095 0.65015,1.80043 1.90045,2.90069 1.2503,1.10027 2.97572,1.10027 z"
           id="path269" /><path
           d="m 234.06696,175.27802 q 1.55037,0 2.52561,-0.075 0,0.67516 -0.15004,1.32532 -0.70017,0.15003 -1.15027,0.80019 -0.45011,0.62515 -0.97524,2.02549 -2.95071,7.5268 -5.20125,12.85308 -0.47511,0.15004 -1.35032,0.15004 -2.75066,-7.42679 -5.15124,-12.92811 -0.57513,-1.32531 -0.87521,-1.87545 -0.27506,-0.55013 -0.55013,-0.75018 -0.25006,-0.22505 -0.70017,-0.27506 -0.15003,-0.50012 -0.15003,-1.32532 1.05025,0.075 3.3258,0.075 1.65039,0 3.3508,-0.075 0,0.75018 -0.15004,1.32532 -0.75018,0.05 -1.10026,0.25006 -0.32508,0.17504 -0.32508,0.62515 0,0.50012 0.55013,1.80043 1.97548,4.70113 3.37581,8.87713 2.15052,-4.97619 3.50084,-8.82712 0.30008,-0.8252 0.30008,-1.42534 0,-1.15028 -1.27531,-1.30031 -0.15004,-0.47512 -0.15004,-1.32532 1.02525,0.075 2.32556,0.075 z"
           id="path271" /><path
           d="m 250.77093,190.93177 q 0.17505,0.60015 0.17505,1.32532 -0.97524,-0.075 -3.15076,-0.075 -2.32556,0 -3.27579,0.075 0,-0.8502 0.20005,-1.32532 0.62515,-0.075 0.90022,-0.25006 0.30007,-0.17504 0.30007,-0.52512 0,-0.37509 -0.35008,-1.15028 l -0.8252,-1.95047 q -3.87593,0 -6.35153,0.12503 l -0.50012,1.30032 q -0.32507,0.82519 -0.32507,1.37533 0,0.50012 0.30007,0.77518 0.30007,0.25006 0.92522,0.30007 0.20005,0.60015 0.20005,1.32532 -0.85021,-0.075 -2.55061,-0.075 -0.72518,0 -2.15052,0.075 0,-0.77518 0.20005,-1.30031 0.65015,-0.12503 1.00024,-0.62515 0.37509,-0.52513 1.00024,-2.02549 l 5.20125,-13.05313 q 0.52512,-0.12503 1.22529,-0.12503 l 5.8514,13.25318 q 0.47512,1.05025 0.77519,1.57538 0.30007,0.50012 0.55013,0.72517 0.27507,0.20005 0.67516,0.25006 z m -6.57657,-5.15123 -1.62539,-3.80091 q -0.67517,-1.50036 -1.15028,-2.97572 -0.45011,1.45035 -1.02525,2.97572 l -1.45034,3.80091 z"
           id="path273" /><path
           d="m 264.49925,184.73029 q 1.37533,0 2.25054,-0.87521 0.90022,-0.87521 0.90022,-2.95071 0,-2.02549 -0.95023,-3.17576 -0.92522,-1.15028 -2.87569,-1.15028 -0.57514,0 -1.20029,0.15004 v 11.42774 q 0,1.07526 0.22506,1.6754 0.25006,0.57514 0.75018,0.8252 0.50012,0.22505 1.40033,0.27506 0.15004,0.42511 0.15004,1.32532 -1.22529,-0.075 -3.62587,-0.075 -2.65064,0 -3.82592,0.075 0,-0.92522 0.12503,-1.32532 0.70017,-0.05 1.05025,-0.25006 0.37509,-0.20004 0.52513,-0.67516 0.15004,-0.47511 0.15004,-1.42534 v -9.72733 q 0,-0.92523 -0.15004,-1.40034 -0.15004,-0.47511 -0.50012,-0.67516 -0.35008,-0.20005 -1.05025,-0.25006 -0.15004,-0.52513 -0.15004,-1.32532 1.37533,0.075 3.57586,0.075 l 2.12551,-0.025 q 0.65016,-0.025 1.55037,-0.025 3.12575,0 4.52609,1.37533 1.42534,1.35032 1.42534,3.57585 0,1.60039 -0.67516,2.97572 -0.67516,1.35032 -2.00048,2.17552 -1.32532,0.80019 -3.17576,0.80019 -1.05026,0 -1.75042,-0.27506 -0.05,-0.30008 -0.05,-0.47512 0,-0.40009 0.15004,-0.77518 0.4251,0.12503 1.10026,0.12503 z"
           id="path275" /><path
           d="m 285.85436,188.1311 q 0.95023,1.47536 1.75042,2.0755 0.8002,0.60014 2.0505,0.65016 0,0.82519 -0.15004,1.32531 -2.97571,0 -4.42606,0.22506 -0.65016,-0.95023 -1.30031,-2.00048 -0.65016,-1.07526 -0.87521,-1.42534 l -0.25006,-0.42511 q -0.77519,-1.2753 -1.42535,-2.07549 -0.65015,-0.8002 -1.72541,-1.6504 l -0.8252,0.025 -0.75018,-0.025 v 3.70089 q 0,0.97523 0.15004,1.47535 0.15003,0.50012 0.50012,0.70017 0.35008,0.20005 1.00024,0.22505 0.15003,0.4001 0.15003,1.32532 -1.07525,-0.075 -3.50084,-0.075 -1.95046,0 -3.22577,0.075 0,-0.87521 0.15004,-1.32532 0.70016,-0.05 1.05025,-0.25006 0.35008,-0.20004 0.50012,-0.67516 0.15003,-0.47511 0.15003,-1.42534 v -9.72733 q 0,-0.95023 -0.15003,-1.42535 -0.15004,-0.50012 -0.52513,-0.70016 -0.35008,-0.20005 -1.05025,-0.22506 -0.12503,-0.47511 -0.12503,-1.30031 0.92522,0.075 3.15076,0.075 0.97523,0 2.67564,-0.05 l 1.60038,-0.025 q 3.20077,0 4.62611,1.17528 1.42534,1.17528 1.42534,3.15076 0,1.80043 -1.07525,3.02572 -1.05026,1.2253 -2.9007,1.70041 0.97523,0.62515 1.57538,1.35033 0.60014,0.70016 1.77542,2.5256 z m -6.92666,-4.62611 q 1.90046,0 3.10075,-0.90021 1.22529,-0.92523 1.22529,-2.70065 0,-1.60039 -0.92522,-2.4756 -0.90022,-0.90021 -2.77567,-0.90021 -0.77518,0 -1.62539,0.20005 v 6.7016 q 0.60015,0.075 1.00024,0.075 z"
           id="path277" /><path
           d="m 298.33238,192.40713 q -2.5006,0 -4.40106,-1.12527 -1.87545,-1.12527 -2.9257,-3.10075 -1.02525,-2.00048 -1.02525,-4.50108 0,-2.55061 1.07526,-4.50108 1.10027,-1.95046 3.00072,-3.02572 1.90046,-1.10027 4.27603,-1.10027 2.42558,0 4.32604,1.07526 1.92546,1.07526 2.97571,3.00072 1.07526,1.92546 1.07526,4.45107 0,2.5006 -1.07526,4.52609 -1.05025,2.00048 -2.95071,3.15075 -1.90045,1.15028 -4.35104,1.15028 z m 0.45011,-1.42534 q 1.42534,0 2.47559,-0.87521 1.05025,-0.87521 1.60038,-2.40058 0.57514,-1.55037 0.57514,-3.50084 0,-2.15052 -0.72517,-3.92594 -0.70017,-1.77543 -1.97548,-2.80067 -1.2753,-1.05026 -2.87569,-1.05026 -1.32531,0 -2.37557,0.8252 -1.05025,0.80019 -1.65039,2.30055 -0.57514,1.50036 -0.57514,3.47584 0,2.12551 0.65016,3.95095 0.65015,1.80043 1.90045,2.90069 1.2503,1.10027 2.97572,1.10027 z"
           id="path279" /><path
           d="m 316.16167,190.85676 q 1.22529,0 1.97547,-0.30008 0.75018,-0.32507 1.20029,-1.00024 0.47511,-0.67516 0.87521,-1.92546 1.00024,0.17504 1.50036,0.67516 -0.50012,1.50036 -0.77519,3.92595 -2.20052,-0.05 -5.30127,-0.05 -4.97619,0 -6.82664,0.075 0,-0.92522 0.15004,-1.32532 0.70017,-0.05 1.05025,-0.25006 0.37509,-0.20004 0.52513,-0.72517 0.15003,-0.55013 0.15003,-1.57538 v -9.52728 q 0,-0.92523 -0.15003,-1.40034 -0.15004,-0.47511 -0.52513,-0.67516 -0.35008,-0.20005 -1.05025,-0.25006 -0.12503,-0.45011 -0.12503,-1.32532 1.6754,0.075 3.37581,0.075 1.90046,0 3.40082,-0.075 0,0.90022 -0.15004,1.32532 -0.70017,0.05 -1.05025,0.25006 -0.35009,0.20005 -0.50012,0.70017 -0.15004,0.47511 -0.15004,1.42534 v 9.45227 q 0,1.02524 0.17504,1.55037 0.17505,0.52512 0.62515,0.75018 0.47512,0.20005 1.37533,0.20005 z"
           id="path281" /><path
           d="m 331.39033,192.40713 q -2.5006,0 -4.40106,-1.12527 -1.87545,-1.12527 -2.9257,-3.10075 -1.02524,-2.00048 -1.02524,-4.50108 0,-2.55061 1.07525,-4.50108 1.10027,-1.95046 3.00072,-3.02572 1.90046,-1.10027 4.27603,-1.10027 2.42558,0 4.32604,1.07526 1.92546,1.07526 2.97571,3.00072 1.07526,1.92546 1.07526,4.45107 0,2.5006 -1.07526,4.52609 -1.05025,2.00048 -2.95071,3.15075 -1.90045,1.15028 -4.35104,1.15028 z m 0.45011,-1.42534 q 1.42534,0 2.47559,-0.87521 1.05025,-0.87521 1.60039,-2.40058 0.57513,-1.55037 0.57513,-3.50084 0,-2.15052 -0.72517,-3.92594 -0.70017,-1.77543 -1.97547,-2.80067 -1.27531,-1.05026 -2.87569,-1.05026 -1.32532,0 -2.37557,0.8252 -1.05026,0.80019 -1.6504,2.30055 -0.57514,1.50036 -0.57514,3.47584 0,2.12551 0.65016,3.95095 0.65015,1.80043 1.90045,2.90069 1.2503,1.10027 2.97572,1.10027 z"
           id="path283" /><path
           d="m 349.64471,192.40713 q -2.37557,0 -4.22602,-1.10027 -1.85044,-1.12527 -2.87569,-3.12575 -1.02524,-2.00048 -1.02524,-4.55109 0,-2.75066 1.17528,-4.67612 1.17528,-1.95047 3.10074,-2.9257 1.92547,-0.97524 4.151,-0.97524 1.47535,0 2.80067,0.32508 1.35033,0.32508 2.72566,0.97524 -0.27507,1.42534 -0.27507,3.87593 -0.52513,0.25006 -1.6504,0.25006 -0.05,-2.32556 -0.92522,-3.22578 -0.8502,-0.92522 -2.5006,-0.92522 -2.67564,0 -3.97595,1.90046 -1.30031,1.90045 -1.30031,4.72613 0,2.20053 0.70016,3.95095 0.70017,1.75042 2.0505,2.75066 1.35032,1.00024 3.22577,1.00024 1.10026,0 2.25054,-0.35009 1.15028,-0.35008 2.20053,-1.00024 0.17504,0.15004 0.32508,0.42511 0.15003,0.27506 0.20004,0.50012 -1.37533,1.10026 -2.82567,1.65039 -1.45035,0.52513 -3.3258,0.52513 z"
           id="path285" /><path
           d="m 365.7236,192.40713 q -2.5006,0 -4.40106,-1.12527 -1.87545,-1.12527 -2.9257,-3.10075 -1.02525,-2.00048 -1.02525,-4.50108 0,-2.55061 1.07526,-4.50108 1.10027,-1.95046 3.00072,-3.02572 1.90046,-1.10027 4.27603,-1.10027 2.42558,0 4.32604,1.07526 1.92546,1.07526 2.97571,3.00072 1.07526,1.92546 1.07526,4.45107 0,2.5006 -1.07526,4.52609 -1.05025,2.00048 -2.95071,3.15075 -1.90045,1.15028 -4.35104,1.15028 z m 0.45011,-1.42534 q 1.42534,0 2.47559,-0.87521 1.05025,-0.87521 1.60038,-2.40058 0.57514,-1.55037 0.57514,-3.50084 0,-2.15052 -0.72517,-3.92594 -0.70017,-1.77543 -1.97548,-2.80067 -1.2753,-1.05026 -2.87569,-1.05026 -1.32531,0 -2.37557,0.8252 -1.05025,0.80019 -1.65039,2.30055 -0.57514,1.50036 -0.57514,3.47584 0,2.12551 0.65016,3.95095 0.65015,1.80043 1.90045,2.90069 1.2503,1.10027 2.97572,1.10027 z"
           id="path287" /></g><g
         aria-label="Città di Luino"
         transform="scale(0.99861283,1.0013891)"
         id="text6346-26-7-6-0-0-8-6-9-7-8"
         style="font-size:6.99824px;font-family:'Vollkorn SC';-inkscape-font-specification:'Vollkorn SC, Normal';fill:#ffffff;stroke-width:0.348;stroke-linecap:round;stroke-linejoin:round;stroke-miterlimit:3.6;paint-order:stroke fill markers"><path
           d="m 49.164383,181.87976 q -0.643838,0 -1.15471,-0.30793 -0.503873,-0.31492 -0.790801,-0.87478 -0.27993,-0.55986 -0.27993,-1.28067 0,-0.76981 0.321919,-1.30867 0.328918,-0.53887 0.860784,-0.8118 0.538864,-0.27293 1.15471,-0.27293 0.426892,0 0.790801,0.091 0.363908,0.084 0.762808,0.27293 -0.07698,0.36391 -0.07698,1.08472 -0.153961,0.063 -0.370906,0.063 -0.02799,-0.69983 -0.286928,-0.95876 -0.258935,-0.26593 -0.762808,-0.26593 -0.566858,0 -0.937765,0.26593 -0.370906,0.26593 -0.545862,0.69982 -0.174956,0.43389 -0.174956,0.95176 0,0.62985 0.209947,1.14072 0.216945,0.50387 0.622843,0.7978 0.405898,0.28692 0.951761,0.28692 0.328917,0 0.678829,-0.11197 0.349912,-0.11197 0.650836,-0.30092 0.04199,0.035 0.07698,0.10497 0.04199,0.063 0.04899,0.11197 -0.426893,0.32892 -0.832791,0.47588 -0.398899,0.14697 -0.916769,0.14697 z"
           id="path290" /><path
           d="m 51.79572,181.83077 q 0,-0.21695 0.03499,-0.31492 0.174956,-0.014 0.258935,-0.056 0.09098,-0.042 0.125969,-0.14696 0.03499,-0.10497 0.03499,-0.31492 v -1.86853 q 0,-0.20295 -0.03499,-0.30792 -0.03499,-0.10498 -0.125969,-0.14697 -0.08398,-0.042 -0.258935,-0.056 -0.03499,-0.10498 -0.03499,-0.31492 0.447888,0.014 0.783803,0.014 0.27993,0 0.769807,-0.014 0,0.21694 -0.02799,0.31492 -0.251937,0.014 -0.342914,0.11197 -0.08398,0.098 -0.08398,0.3989 v 1.86853 q 0,0.30092 0.08398,0.4059 0.09098,0.098 0.342914,0.11197 0.02799,0.10497 0.02799,0.31492 -0.475881,-0.014 -0.769807,-0.014 -0.349912,0 -0.783803,0.014 z"
           id="path292" /><path
           d="m 57.520285,178.30366 q -0.02099,0.3779 0.04899,0.90977 -0.146963,0.063 -0.342913,0.063 -0.014,-0.33591 -0.181955,-0.49687 -0.160959,-0.16096 -0.510871,-0.16096 H 56.22561 v 2.40039 q 0,0.21695 0.03499,0.32192 0.04199,0.098 0.139965,0.13997 0.104974,0.042 0.314921,0.056 0.03499,0.084 0.03499,0.29393 -0.51787,-0.014 -0.846787,-0.014 -0.405898,0 -0.867782,0.014 0,-0.20995 0.03499,-0.29393 0.209947,-0.014 0.31492,-0.056 0.111972,-0.042 0.153962,-0.14697 0.04199,-0.10497 0.04199,-0.31492 v -2.40039 h -0.286928 q -0.279929,0 -0.433891,0.077 -0.146963,0.07 -0.216945,0.20295 -0.06998,0.13296 -0.11897,0.3779 -0.223944,0 -0.328917,-0.063 0.104973,-0.47588 0.104973,-0.90977 0.363909,0.014 1.602597,0.014 1.259683,0 1.616594,-0.014 z"
           id="path294" /><path
           d="m 61.530275,178.30366 q -0.02099,0.3779 0.04899,0.90977 -0.146963,0.063 -0.342914,0.063 -0.014,-0.33591 -0.181954,-0.49687 -0.16096,-0.16096 -0.510872,-0.16096 h -0.307922 v 2.40039 q 0,0.21695 0.03499,0.32192 0.04199,0.098 0.139965,0.13997 0.104974,0.042 0.314921,0.056 0.03499,0.084 0.03499,0.29393 -0.51787,-0.014 -0.846787,-0.014 -0.405898,0 -0.867782,0.014 0,-0.20995 0.03499,-0.29393 0.209948,-0.014 0.314921,-0.056 0.111972,-0.042 0.153961,-0.14697 0.04199,-0.10497 0.04199,-0.31492 v -2.40039 h -0.286928 q -0.27993,0 -0.433891,0.077 -0.146963,0.07 -0.216945,0.20295 -0.06998,0.13296 -0.11897,0.3779 -0.223944,0 -0.328918,-0.063 0.104974,-0.47588 0.104974,-0.90977 0.363908,0.014 1.602597,0.014 1.259683,0 1.616593,-0.014 z"
           id="path296" /><path
           d="m 65.792198,181.51585 q 0.03499,0.10497 0.03499,0.31492 -0.27993,-0.014 -0.720819,-0.014 -0.461884,0 -0.741814,0.014 0,-0.21695 0.04199,-0.31492 0.160959,-0.021 0.223944,-0.056 0.06998,-0.042 0.06998,-0.11897 0,-0.063 -0.06998,-0.21694 l -0.139965,-0.30093 q -1.007747,0 -1.588601,0.035 l -0.07698,0.18196 q -0.06998,0.16096 -0.06998,0.25193 0,0.19596 0.286928,0.22395 0.04199,0.12597 0.04199,0.31492 -0.265934,-0.014 -0.580854,-0.014 -0.272932,0 -0.496875,0.014 0,-0.16796 0.04199,-0.31492 0.153961,-0.028 0.23794,-0.12597 0.08398,-0.10497 0.223944,-0.4129 l 1.203697,-2.66633 q 0.132967,-0.028 0.27993,-0.028 l 1.287676,2.67333 q 0.153961,0.32192 0.258935,0.43389 0.111972,0.11197 0.251936,0.12597 z m -1.441637,-0.97976 -0.419894,-0.88177 q -0.181955,-0.37091 -0.251937,-0.58786 -0.05599,0.17496 -0.139965,0.34992 -0.07698,0.16795 -0.09797,0.20994 l -0.3989,0.90977 z m -0.538864,-2.7573 q -0.468883,-0.72782 -0.888777,-1.1827 0.153961,-0.077 0.3989,-0.077 0.132966,0 0.272931,0.021 0.195951,0.66483 0.496875,1.22469 -0.05599,0.028 -0.139965,0.028 -0.05599,0 -0.139964,-0.014 z"
           id="path298" /><path
           d="m 68.073628,181.83077 q 0,-0.21695 0.03499,-0.31492 0.167958,-0.014 0.258935,-0.056 0.09098,-0.042 0.125968,-0.15396 0.04199,-0.11197 0.04199,-0.33591 v -1.84054 q 0,-0.20295 -0.04199,-0.30792 -0.03499,-0.10498 -0.125968,-0.14697 -0.08398,-0.042 -0.258935,-0.056 -0.02799,-0.11198 -0.02799,-0.31492 0.391901,0.014 0.902773,0.014 0.230942,0 0.349912,-0.007 l 0.370907,-0.007 q 1.014744,0 1.665581,0.35691 0.657834,0.35691 0.657834,1.31567 0,1.09172 -0.741813,1.46963 -0.741814,0.3709 -1.588601,0.3709 -1.007746,0 -1.623591,0.014 z m 1.651584,-0.32892 q 0.503874,0 0.846787,-0.11197 0.349912,-0.11897 0.552861,-0.43389 0.209947,-0.31492 0.209947,-0.88878 0,-0.7768 -0.489876,-1.11972 -0.482879,-0.34291 -1.231691,-0.34291 -0.286927,0 -0.43389,0.042 v 2.30942 q 0,0.22394 0.04199,0.34291 0.04199,0.11197 0.153961,0.16096 0.11897,0.042 0.349912,0.042 z"
           id="path300" /><path
           d="m 72.944397,181.83077 q 0,-0.21695 0.03499,-0.31492 0.174956,-0.014 0.258935,-0.056 0.09098,-0.042 0.125969,-0.14696 0.03499,-0.10497 0.03499,-0.31492 v -1.86853 q 0,-0.20295 -0.03499,-0.30792 -0.03499,-0.10498 -0.125969,-0.14697 -0.08398,-0.042 -0.258935,-0.056 -0.03499,-0.10498 -0.03499,-0.31492 0.447887,0.014 0.783803,0.014 0.27993,0 0.769806,-0.014 0,0.21694 -0.02799,0.31492 -0.251936,0.014 -0.342913,0.11197 -0.08398,0.098 -0.08398,0.3989 v 1.86853 q 0,0.30092 0.08398,0.4059 0.09098,0.098 0.342913,0.11197 0.02799,0.10497 0.02799,0.31492 -0.47588,-0.014 -0.769806,-0.014 -0.349912,0 -0.783803,0.014 z"
           id="path302" /><path
           d="m 78.675964,181.50185 q 0.384903,0 0.608847,-0.084 0.223944,-0.084 0.35691,-0.26593 0.132967,-0.18195 0.258935,-0.53187 0.202949,0.063 0.307923,0.16796 -0.132967,0.4129 -0.216946,1.04274 -0.545862,-0.014 -1.357658,-0.014 -1.287676,0 -1.812544,0.021 0,-0.20295 0.03499,-0.30093 0.195951,-0.014 0.293926,-0.07 0.104974,-0.056 0.146963,-0.19595 0.04899,-0.14696 0.04899,-0.41989 v -2.87628 q 0,-0.34991 -0.104974,-0.46888 -0.09798,-0.12597 -0.377905,-0.13997 -0.03499,-0.098 -0.03499,-0.30092 0.405898,0.021 0.846787,0.021 0.426893,0 0.846787,-0.021 0,0.20295 -0.03499,0.30092 -0.195951,0.014 -0.300925,0.07 -0.09798,0.049 -0.139964,0.18196 -0.04199,0.13297 -0.04199,0.3779 v 2.85529 q 0,0.27293 0.04899,0.40589 0.04899,0.13297 0.181954,0.18896 0.132967,0.056 0.3989,0.056 z"
           id="path304" /><path
           d="m 82.706948,181.86576 q -0.573856,0 -0.909771,-0.13297 -0.328917,-0.13996 -0.47588,-0.41289 -0.139965,-0.27993 -0.139965,-0.72082 v -1.45564 q 0,-0.21694 -0.02799,-0.32191 -0.02799,-0.10498 -0.104974,-0.13997 -0.06998,-0.042 -0.230942,-0.063 -0.03499,-0.11198 -0.03499,-0.31492 0.335916,0.014 0.727817,0.014 0.391902,0 0.769806,-0.014 0,0.18195 -0.02799,0.31492 -0.195951,0.021 -0.27993,0.063 -0.08398,0.035 -0.11897,0.13997 -0.02799,0.098 -0.02799,0.32191 v 1.37166 q 0,0.49687 0.223944,0.74881 0.230941,0.25194 0.790801,0.25194 0.167957,0 0.342913,-0.049 0.174956,-0.056 0.300925,-0.16096 0.132966,-0.11897 0.188952,-0.31492 0.06298,-0.20295 0.06298,-0.59485 v -1.09872 q 0,-0.26594 -0.03499,-0.3989 -0.02799,-0.13997 -0.11897,-0.19595 -0.09098,-0.063 -0.272931,-0.084 -0.02799,-0.16796 -0.02799,-0.31492 0.279929,0.014 0.587852,0.014 0.272931,0 0.59485,-0.014 0,0.17495 -0.03499,0.31492 -0.216945,0.021 -0.293926,0.15396 -0.06998,0.13296 -0.06998,0.49687 v 1.13372 q 0,0.46888 -0.07698,0.74181 -0.06998,0.26593 -0.27993,0.43389 -0.349912,0.28693 -1.000748,0.28693 z"
           id="path306" /><path
           d="m 85.422266,181.83077 q 0,-0.21695 0.03499,-0.31492 0.174956,-0.014 0.258935,-0.056 0.09098,-0.042 0.125969,-0.14696 0.03499,-0.10497 0.03499,-0.31492 v -1.86853 q 0,-0.20295 -0.03499,-0.30792 -0.03499,-0.10498 -0.125969,-0.14697 -0.08398,-0.042 -0.258935,-0.056 -0.03499,-0.10498 -0.03499,-0.31492 0.447888,0.014 0.783803,0.014 0.27993,0 0.769806,-0.014 0,0.21694 -0.02799,0.31492 -0.251936,0.014 -0.342913,0.11197 -0.08398,0.098 -0.08398,0.3989 v 1.86853 q 0,0.30092 0.08398,0.4059 0.09098,0.098 0.342913,0.11197 0.02799,0.10497 0.02799,0.31492 -0.47588,-0.014 -0.769806,-0.014 -0.349912,0 -0.783803,0.014 z"
           id="path308" /><path
           d="m 91.433756,178.31765 q 0.265934,0 0.587853,-0.014 0,0.20994 -0.02799,0.31492 -0.146963,0.014 -0.223944,0.077 -0.07698,0.063 -0.111972,0.21694 -0.02799,0.14697 -0.02799,0.44089 v 2.47038 q -0.09098,0.042 -0.286928,0.042 l -2.512368,-2.7783 v 1.67958 q 0,0.30092 0.03499,0.45488 0.04199,0.15396 0.132967,0.21695 0.09098,0.063 0.265933,0.077 0.03499,0.11197 0.03499,0.31492 -0.377905,-0.014 -0.622843,-0.014 -0.328917,0 -0.63684,0.014 0,-0.20295 0.03499,-0.31492 0.174956,-0.014 0.258935,-0.077 0.09098,-0.063 0.125968,-0.21695 0.04199,-0.15396 0.04199,-0.45488 v -2.04349 l -0.007,-0.007 q -0.04899,-0.049 -0.125969,-0.063 -0.07698,-0.021 -0.293926,-0.035 -0.03499,-0.12597 -0.03499,-0.31492 0.251937,0.014 0.489877,0.014 0.216945,0 0.440889,-0.014 l 2.330414,2.61034 v -1.56061 q 0,-0.29392 -0.04199,-0.44089 -0.03499,-0.15396 -0.125968,-0.21694 -0.09098,-0.063 -0.272931,-0.077 -0.02799,-0.16096 -0.02799,-0.31492 0.349912,0.014 0.601848,0.014 z"
           id="path310" /><path
           d="m 94.974873,181.87976 q -0.601849,0 -1.063732,-0.22395 -0.461884,-0.22394 -0.720819,-0.62984 -0.251937,-0.4059 -0.251937,-0.94476 0,-0.53187 0.251937,-0.94476 0.258935,-0.4129 0.720819,-0.63684 0.468882,-0.23095 1.077729,-0.23095 0.601848,0 1.063732,0.22395 0.461884,0.22394 0.713821,0.63684 0.258934,0.4059 0.258934,0.93776 0,0.53887 -0.258934,0.95176 -0.251937,0.4059 -0.720819,0.63684 -0.461884,0.22395 -1.070731,0.22395 z m 0.09797,-0.32192 q 0.566858,0 0.895775,-0.37791 0.335916,-0.3779 0.335916,-1.00774 0,-0.45489 -0.181955,-0.8118 -0.181954,-0.36391 -0.510871,-0.56686 -0.321919,-0.20295 -0.727817,-0.20295 -0.566857,0 -0.895775,0.38491 -0.328917,0.3779 -0.328917,1.00075 0,0.46888 0.181954,0.83279 0.181954,0.35691 0.503873,0.55286 0.32192,0.19595 0.727817,0.19595 z"
           id="path312" /></g></g></g></svg>
