<?xml version="1.0" encoding="UTF-8" standalone="no"?>
<!-- Created with Inkscape (http://www.inkscape.org/) -->

<svg
   width="304.43964mm"
   height="364.78223mm"
   viewBox="0 0 304.43963 364.78223"
   version="1.1"
   id="svg5"
   xml:space="preserve"
   inkscape:version="1.3.2 (091e20e, 2023-11-25, custom)"
   sodipodi:docname="app_icon.svg"
   xmlns:inkscape="http://www.inkscape.org/namespaces/inkscape"
   xmlns:sodipodi="http://sodipodi.sourceforge.net/DTD/sodipodi-0.dtd"
   xmlns="http://www.w3.org/2000/svg"
   xmlns:svg="http://www.w3.org/2000/svg"><sodipodi:namedview
     id="namedview7"
     pagecolor="#ffffff"
     bordercolor="#000000"
     borderopacity="0.25"
     inkscape:showpageshadow="2"
     inkscape:pageopacity="0"
     inkscape:pagecheckerboard="0"
     inkscape:deskcolor="#d1d1d1"
     inkscape:document-units="mm"
     showgrid="false"
     inkscape:zoom="0.45407884"
     inkscape:cx="256.56337"
     inkscape:cy="-9.9101732"
     inkscape:window-width="1920"
     inkscape:window-height="1009"
     inkscape:window-x="-8"
     inkscape:window-y="-8"
     inkscape:window-maximized="1"
     inkscape:current-layer="g1"
     showguides="false"><sodipodi:guide
       position="172.53661,-590.92327"
       orientation="-1,0"
       id="guide7280"
       inkscape:locked="false" /><sodipodi:guide
       position="184.85693,-712.48412"
       orientation="0,-1"
       id="guide9663"
       inkscape:locked="false" /><sodipodi:guide
       position="225.41469,-702.54439"
       orientation="0,1"
       id="guide19274"
       inkscape:locked="false" /></sodipodi:namedview><defs
     id="defs2"><clipPath
       clipPathUnits="userSpaceOnUse"
       id="clipPath279"><rect
         style="font-variation-settings:'opsz' 12, 'wght' 800;fill:#ffffff;fill-opacity:1;stroke:none;stroke-width:13.0014;stroke-linecap:round;stroke-dasharray:none;stroke-opacity:1"
         id="rect279"
         width="1150.6382"
         height="1838.2723"
         x="-527.27917"
         y="-2424.9165" /></clipPath></defs><g
     id="g1"
     inkscape:groupmode="layer"
     inkscape:label="1"
     transform="matrix(0.26458332,0,0,0.26458333,139.50928,519.99848)"><path
       id="path276"
       style="font-variation-settings:'opsz' 12, 'wght' 800;fill:none;fill-opacity:1;stroke:#7687a1;stroke-width:10;stroke-linecap:round;stroke-dasharray:none;stroke-opacity:0.0646204"
       d="m 458.87513,-1926.3964 c 223.83532,-129.2314 191.33256,155.711 386.22679,103.4892 m -443.48557,-27.5564 c 223.83533,-129.2314 191.33256,155.7109 386.22679,103.4892 m -687.15284,-179.422 c 223.83533,-129.2314 191.33256,155.711 386.2268,103.4892 m -443.485582,-27.5564 c 223.835332,-129.2314 191.332562,155.7109 386.226802,103.4892 m -725.19482,-179.422 c 223.835328,-129.2314 191.33256,155.711 386.226798,103.4892 m -443.485578,-27.5564 c 223.83533,-129.2314 191.33256,155.7109 386.226798,103.4892 m -725.194818,-179.422 c 223.83533,-129.2314 191.33256,155.711 386.2268,103.4892 m -443.48558,-27.5564 c 223.83533,-129.2314 191.33256,155.7109 386.2268,103.4892 m 821.67041,50.3621 c 223.83532,-129.2314 191.33256,155.711 386.22679,103.4892 m -443.48557,-27.5564 c 223.83533,-129.2314 191.33256,155.7109 386.22679,103.4892 m -687.15284,-179.422 c 223.83533,-129.2314 191.33256,155.711 386.2268,103.4892 m -443.485582,-27.5564 c 223.835332,-129.2314 191.332562,155.7109 386.226802,103.4892 m -725.19482,-179.422 c 223.835328,-129.2314 191.33256,155.711 386.226798,103.4892 m -443.485578,-27.5564 c 223.83533,-129.2314 191.33256,155.7109 386.226798,103.4892 m -725.194818,-179.422 c 223.83533,-129.2314 191.33256,155.711 386.2268,103.4892 m -443.48558,-27.5564 c 223.83533,-129.2314 191.33256,155.7109 386.2268,103.4892 m 821.67041,50.3621 c 223.83532,-129.2314 191.33256,155.711 386.22679,103.4892 m -443.48557,-27.5564 c 223.83533,-129.2314 191.33256,155.7109 386.22679,103.4892 m -687.15284,-179.422 c 223.83533,-129.2314 191.33256,155.711 386.2268,103.4892 m -443.485582,-27.5564 c 223.835332,-129.2314 191.332562,155.7109 386.226802,103.4892 m -725.19482,-179.422 c 223.835328,-129.2314 191.33256,155.711 386.226798,103.4892 m -443.485578,-27.5564 c 223.83533,-129.2314 191.33256,155.7109 386.226798,103.4892 m -725.194818,-179.422 c 223.83533,-129.2314 191.33256,155.711 386.2268,103.4892 m -443.48558,-27.5564 c 223.83533,-129.2314 191.33256,155.7109 386.2268,103.4892 m 821.67041,50.3621 c 223.83532,-129.2314 191.33256,155.711 386.22679,103.4892 m -443.48557,-27.5564 c 223.83533,-129.2314 191.33256,155.7109 386.22679,103.4892 m -687.15284,-179.422 c 223.83533,-129.2314 191.33256,155.711 386.2268,103.4892 m -443.485582,-27.5564 c 223.835332,-129.2314 191.332562,155.7109 386.226802,103.4892 m -725.19482,-179.422 c 223.835328,-129.2314 191.33256,155.711 386.226798,103.4892 m -443.485578,-27.5564 c 223.83533,-129.2314 191.33256,155.7109 386.226798,103.4892 m -725.194818,-179.422 c 223.83533,-129.2314 191.33256,155.711 386.2268,103.4892 m -443.48558,-27.5564 c 223.83533,-129.2314 191.33256,155.7109 386.2268,103.4892 m 821.67041,50.3621 c 223.83532,-129.2314 191.33256,155.71094 386.22679,103.48919 m -443.48557,-27.5564 c 223.83533,-129.23139 191.33256,155.71091 386.22679,103.48916 M 100.6903,-1007.26 c 223.83533,-129.2314 191.33256,155.71094 386.2268,103.48919 M 43.431518,-931.32721 C 267.26685,-1060.5586 234.76408,-775.6163 429.65832,-827.83805 M -295.5365,-1007.26 c 223.835328,-129.2314 191.33256,155.71094 386.226798,103.48919 m -443.485578,-27.5564 c 223.83533,-129.23139 191.33256,155.71091 386.226798,103.48916 M -691.7633,-1007.26 c 223.83533,-129.2314 191.33256,155.71094 386.2268,103.48919 m -443.48558,-27.5564 c 223.83533,-129.23139 191.33256,155.71091 386.2268,103.48916 m 821.67041,50.36211 c 223.83532,-129.23139 191.33256,155.71091 386.22679,103.48916 m -443.48557,-27.5564 c 223.83533,-129.23139 191.33256,155.71091 386.22679,103.48916 M 100.6903,-777.47594 c 223.83533,-129.23139 191.33256,155.71091 386.2268,103.48916 M 43.431518,-701.54318 C 267.26685,-830.77457 234.76408,-545.83227 429.65832,-598.05402 M -295.5365,-777.47594 c 223.835328,-129.23139 191.33256,155.71091 386.226798,103.48916 m -443.485578,-27.5564 c 223.83533,-129.23139 191.33256,155.71091 386.226798,103.48916 M -691.7633,-777.47594 c 223.83533,-129.23139 191.33256,155.71091 386.2268,103.48916 m -443.48558,-27.5564 c 223.83533,-129.23139 191.33256,155.71091 386.2268,103.48916"
       transform="translate(4.8031496e-6)"
       clip-path="url(#clipPath279)"
       inkscape:export-filename="..\pattern.svg"
       inkscape:export-xdpi="4.1715984"
       inkscape:export-ydpi="4.1715984" /></g></svg>
